<svg xmlns="http://www.w3.org/2000/svg" width="237.65052795410156" height="246.52447509765625" viewBox="-9.379756927490234 -10.627767562866211 237.65052795410156 246.52447509765625"><title>Neo4j Graph Visualization</title><desc>Created using Neo4j (http://www.neo4j.com/)</desc><g class="layer relationships"><g class="relationship" transform="translate(125.47123600186723 127.28352525809161) rotate(407.6155579440084)"><path class="outline" fill="#A5ABB6" stroke="none" d="M 25 0.5 L 27.610600108883382 0.5 L 27.610600108883382 -0.5 L 25 -0.5 Z M 73.17310010888338 0.5 L 75.78370021776676 0.5 L 75.78370021776676 3.5 L 82.78370021776676 0 L 75.78370021776676 -3.5 L 75.78370021776676 -0.5 L 73.17310010888338 -0.5 Z"/><text text-anchor="middle" pointer-events="none" font-size="8px" fill="#000000" x="50.39185010888338" y="3" font-family="sans-serif">ACTED_IN</text></g><g class="relationship" transform="translate(125.47123600186723 127.28352525809161) rotate(310.816641306977)"><path class="outline" fill="#A5ABB6" stroke="none" d="M 25 0.5 L 30.17144343673695 0.5 L 30.17144343673695 -0.5 L 25 -0.5 Z M 75.73394343673695 0.5 L 80.9053868734739 0.5 L 80.9053868734739 3.5 L 87.9053868734739 0 L 80.9053868734739 -3.5 L 80.9053868734739 -0.5 L 75.73394343673695 -0.5 Z"/><text text-anchor="middle" pointer-events="none" font-size="8px" fill="#000000" x="52.95269343673695" y="3" font-family="sans-serif">ACTED_IN</text></g><g class="relationship" transform="translate(125.47123600186723 127.28352525809161) rotate(254.14592427927278)"><path class="outline" fill="#A5ABB6" stroke="none" d="M 25 0.5 L 30.327770233698537 0.5 L 30.327770233698537 -0.5 L 25 -0.5 Z M 75.89027023369854 0.5 L 81.21804046739707 0.5 L 81.21804046739707 3.5 L 88.21804046739707 0 L 81.21804046739707 -3.5 L 81.21804046739707 -0.5 L 75.89027023369854 -0.5 Z"/><text text-anchor="middle" pointer-events="none" font-size="8px" fill="#000000" x="53.10902023369854" y="3" transform="rotate(180 53.10902023369854 0)" font-family="sans-serif">ACTED_IN</text></g><g class="relationship" transform="translate(125.47123600186723 127.28352525809161) rotate(200.79042720276817)"><path class="outline" fill="#A5ABB6" stroke="none" d="M 25 0.5 L 30.330522659466318 0.5 L 30.330522659466318 -0.5 L 25 -0.5 Z M 75.89302265946631 0.5 L 81.22354531893264 0.5 L 81.22354531893264 3.5 L 88.22354531893264 0 L 81.22354531893264 -3.5 L 81.22354531893264 -0.5 L 75.89302265946631 -0.5 Z"/><text text-anchor="middle" pointer-events="none" font-size="8px" fill="#000000" x="53.11177265946632" y="3" transform="rotate(180 53.11177265946632 0)" font-family="sans-serif">ACTED_IN</text></g><g class="relationship" transform="translate(125.47123600186723 127.28352525809161) rotate(504.1673306894571)"><path class="outline" fill="#A5ABB6" stroke="none" d="M 25 0.5 L 30.182924478034174 0.5 L 30.182924478034174 -0.5 L 25 -0.5 Z M 75.74542447803418 0.5 L 80.92834895606835 0.5 L 80.92834895606835 3.5 L 87.92834895606835 0 L 80.92834895606835 -3.5 L 80.92834895606835 -0.5 L 75.74542447803418 -0.5 Z"/><text text-anchor="middle" pointer-events="none" font-size="8px" fill="#000000" x="52.964174478034174" y="3" transform="rotate(180 52.964174478034174 0)" font-family="sans-serif">ACTED_IN</text></g></g><g class="layer nodes"><g class="node" transform="translate(125.47123600186723,127.28352525809161)"><circle class="outline" cx="0" cy="0" r="25" fill="#F79767" stroke="#f36924" stroke-width="2px"/><text text-anchor="middle" pointer-events="none" font-family="sans-serif" dy="1.5625" font-size="25" fill="#FFFFFF"/><text text-anchor="middle" pointer-events="none" font-family="sans-serif" dy="1.5625" font-size="25" fill="#FFFFFF"/><text text-anchor="middle" pointer-events="none" x="0" y="0" font-size="10px" fill="#FFFFFF" font-family="sans-serif"> Hugo</text><text text-anchor="middle" pointer-events="none" x="0" y="10" font-size="10px" fill="#FFFFFF" font-family="sans-serif"> Weaving</text></g><g class="node" transform="translate(198.12842712812653,206.89670639209507)"><circle class="outline" cx="0" cy="0" r="25" fill="#57C7E3" stroke="#23b3d7" stroke-width="2px"/><text text-anchor="middle" pointer-events="none" font-family="sans-serif" dy="1.5625" font-size="25" fill="#2A2C34"/><text text-anchor="middle" pointer-events="none" font-family="sans-serif" dy="1.5625" font-size="25" fill="#2A2C34"/><text text-anchor="middle" pointer-events="none" x="0" y="0" font-size="10px" fill="#2A2C34" font-family="sans-serif"> Cloud</text><text text-anchor="middle" pointer-events="none" x="0" y="10" font-size="10px" fill="#2A2C34" font-family="sans-serif"> Atlas</text></g><g class="node" transform="translate(199.2707630168276,41.836136781807866)"><circle class="outline" cx="0" cy="0" r="25" fill="#57C7E3" stroke="#23b3d7" stroke-width="2px"/><text text-anchor="middle" pointer-events="none" font-family="sans-serif" dy="1.5625" font-size="25" fill="#2A2C34"/><text text-anchor="middle" pointer-events="none" font-family="sans-serif" dy="1.5625" font-size="25" fill="#2A2C34"/><text text-anchor="middle" pointer-events="none" x="0" y="0" font-size="10px" fill="#2A2C34" font-family="sans-serif"> V for</text><text text-anchor="middle" pointer-events="none" x="0" y="10" font-size="10px" fill="#2A2C34" font-family="sans-serif"> Vendetta</text></g><g class="node" transform="translate(94.54139580408501,18.37223258090035)"><circle class="outline" cx="0" cy="0" r="25" fill="#57C7E3" stroke="#23b3d7" stroke-width="2px"/><text text-anchor="middle" pointer-events="none" font-family="sans-serif" dy="1.5625" font-size="25" fill="#2A2C34"/><text text-anchor="middle" pointer-events="none" font-family="sans-serif" dy="1.5625" font-size="25" fill="#2A2C34"/><text text-anchor="middle" pointer-events="none" font-family="sans-serif" dy="1.5625" font-size="25" fill="#2A2C34"/><text text-anchor="middle" pointer-events="none" x="0" y="-5" font-size="10px" fill="#2A2C34" font-family="sans-serif"> The</text><text text-anchor="middle" pointer-events="none" x="0" y="5" font-size="10px" fill="#2A2C34" font-family="sans-serif"> Matrix</text><text text-anchor="middle" pointer-events="none" x="0" y="15" font-size="10px" fill="#2A2C34" font-family="sans-serif"> Revol…</text></g><g class="node" transform="translate(19.620242573035465,87.09474069426325)"><circle class="outline" cx="0" cy="0" r="25" fill="#57C7E3" stroke="#23b3d7" stroke-width="2px"/><text text-anchor="middle" pointer-events="none" font-family="sans-serif" dy="1.5625" font-size="25" fill="#2A2C34"/><text text-anchor="middle" pointer-events="none" font-family="sans-serif" dy="1.5625" font-size="25" fill="#2A2C34"/><text text-anchor="middle" pointer-events="none" font-family="sans-serif" dy="1.5625" font-size="25" fill="#2A2C34"/><text text-anchor="middle" pointer-events="none" x="0" y="-5" font-size="10px" fill="#2A2C34" font-family="sans-serif"> The</text><text text-anchor="middle" pointer-events="none" x="0" y="5" font-size="10px" fill="#2A2C34" font-family="sans-serif"> Matrix</text><text text-anchor="middle" pointer-events="none" x="0" y="15" font-size="10px" fill="#2A2C34" font-family="sans-serif"> Reloa…</text></g><g class="node" transform="translate(33.91681850089882,193.39404358915533)"><circle class="outline" cx="0" cy="0" r="25" fill="#57C7E3" stroke="#23b3d7" stroke-width="2px"/><text text-anchor="middle" pointer-events="none" font-family="sans-serif" dy="1.5625" font-size="25" fill="#2A2C34"/><text text-anchor="middle" pointer-events="none" font-family="sans-serif" dy="1.5625" font-size="25" fill="#2A2C34"/><text text-anchor="middle" pointer-events="none" x="0" y="0" font-size="10px" fill="#2A2C34" font-family="sans-serif"> The</text><text text-anchor="middle" pointer-events="none" x="0" y="10" font-size="10px" fill="#2A2C34" font-family="sans-serif"> Matrix</text></g></g></svg>