<svg xmlns="http://www.w3.org/2000/svg" width="182.3313446044922" height="185.150146484375" viewBox="75.00569152832031 23.963275909423828 182.3313446044922 185.150146484375"><title>Neo4j Graph Visualization</title><desc>Created using Neo4j (http://www.neo4j.com/)</desc><g class="layer relationships"><g class="relationship" transform="translate(228.33702288610428 129.41983140222575) rotate(506.5243472889917)"><path class="outline" fill="#A5ABB6" stroke="none" d="M 25 0.5 L 27.45284869885421 0.5 L 27.45284869885421 -0.5 L 25 -0.5 Z M 57.45284869885421 0.5 L 59.90569739770842 0.5 L 59.90569739770842 3.5 L 66.90569739770842 0 L 59.90569739770842 -3.5 L 59.90569739770842 -0.5 L 57.45284869885421 -0.5 Z"/><text text-anchor="middle" pointer-events="none" font-size="8px" fill="#000000" x="42.45284869885421" y="3" transform="rotate(180 42.45284869885421 0)" font-family="sans-serif">ACT…</text></g><g class="relationship" transform="translate(228.33702288610428 129.41983140222575) rotate(211.58910333750168)"><path class="outline" fill="#A5ABB6" stroke="none" d="M 25 0.5 L 46.69800102574901 0.5 L 46.69800102574901 -0.5 L 25 -0.5 Z M 92.26050102574901 0.5 L 113.95850205149802 0.5 L 113.95850205149802 3.5 L 120.95850205149802 0 L 113.95850205149802 -3.5 L 113.95850205149802 -0.5 L 92.26050102574901 -0.5 Z"/><text text-anchor="middle" pointer-events="none" font-size="8px" fill="#000000" x="69.47925102574901" y="3" transform="rotate(180 69.47925102574901 0)" font-family="sans-serif">ACTED_IN</text></g><g class="relationship" transform="translate(228.33702288610428 129.41983140222575) rotate(181.97977929263118)"><path class="outline" fill="#A5ABB6" stroke="none" d="M 25 0.5 L 34.26493723263724 0.5 L 34.26493723263724 -0.5 L 25 -0.5 Z M 79.82743723263724 0.5 L 89.09237446527447 0.5 L 89.09237446527447 3.5 L 96.09237446527447 0 L 89.09237446527447 -3.5 L 89.09237446527447 -0.5 L 79.82743723263724 -0.5 Z"/><text text-anchor="middle" pointer-events="none" font-size="8px" fill="#000000" x="57.04618723263724" y="3" transform="rotate(180 57.04618723263724 0)" font-family="sans-serif">ACTED_IN</text></g><g class="relationship" transform="translate(190.09154755218833 53.42874367274063) rotate(466.86901806547604)"><path class="outline" fill="#A5ABB6" stroke="none" d="M 25 0.5 L 39.90921854383497 0.5 L 39.90921854383497 -0.5 L 25 -0.5 Z M 85.47171854383497 0.5 L 100.38093708766993 0.5 L 100.38093708766993 3.5 L 107.38093708766993 0 L 100.38093708766993 -3.5 L 100.38093708766993 -0.5 L 85.47171854383497 -0.5 Z"/><text text-anchor="middle" pointer-events="none" font-size="8px" fill="#000000" x="62.69046854383497" y="3" transform="rotate(180 62.69046854383497 0)" font-family="sans-serif">ACTED_IN</text></g><g class="relationship" transform="translate(190.09154755218833 53.42874367274063) rotate(180.30979506513626)"><path class="outline" fill="#A5ABB6" stroke="none" d="M 25 0.5 L 26.986916107566998 0.5 L 26.986916107566998 -0.5 L 25 -0.5 Z M 52.100197357567 0.5 L 54.087113465133996 0.5 L 54.087113465133996 3.5 L 61.087113465133996 0 L 54.087113465133996 -3.5 L 54.087113465133996 -0.5 L 52.100197357567 -0.5 Z"/><text text-anchor="middle" pointer-events="none" font-size="8px" fill="#000000" x="39.543556732567" y="3" transform="rotate(180 39.543556732567 0)" font-family="sans-serif">AC…</text></g><g class="relationship" transform="translate(190.09154755218833 53.42874367274063) rotate(499.0580635985055)"><path class="outline" fill="#A5ABB6" stroke="none" d="M 25 0.5 L 28.509232652633763 0.5 L 28.509232652633763 -0.5 L 25 -0.5 Z M 74.07173265263376 0.5 L 77.58096530526753 0.5 L 77.58096530526753 3.5 L 84.58096530526753 0 L 77.58096530526753 -3.5 L 77.58096530526753 -0.5 L 74.07173265263376 -0.5 Z"/><text text-anchor="middle" pointer-events="none" font-size="8px" fill="#000000" x="51.29048265263376" y="3" transform="rotate(180 51.29048265263376 0)" font-family="sans-serif">ACTED_IN</text></g></g><g class="layer nodes"><g class="node" transform="translate(151.67661618932013,180.11341343430158)"><circle class="outline" cx="0" cy="0" r="25" fill="#57C7E3" stroke="#23b3d7" stroke-width="2px"/><text text-anchor="middle" pointer-events="none" font-family="sans-serif" dy="1.5625" font-size="25" fill="#2A2C34"/><text text-anchor="middle" pointer-events="none" font-family="sans-serif" dy="1.5625" font-size="25" fill="#2A2C34"/><text text-anchor="middle" pointer-events="none" font-family="sans-serif" dy="1.5625" font-size="25" fill="#2A2C34"/><text text-anchor="middle" pointer-events="none" x="0" y="-5" font-size="10px" fill="#2A2C34" font-family="sans-serif"> The</text><text text-anchor="middle" pointer-events="none" x="0" y="5" font-size="10px" fill="#2A2C34" font-family="sans-serif"> Matrix</text><text text-anchor="middle" pointer-events="none" x="0" y="15" font-size="10px" fill="#2A2C34" font-family="sans-serif"> Revol…</text></g><g class="node" transform="translate(228.33702288610428,129.41983140222575)"><circle class="outline" cx="0" cy="0" r="25" fill="#F79767" stroke="#f36924" stroke-width="2px"/><text text-anchor="middle" pointer-events="none" font-family="sans-serif" dy="1.5625" font-size="25" fill="#FFFFFF"/><text text-anchor="middle" pointer-events="none" font-family="sans-serif" dy="1.5625" font-size="25" fill="#FFFFFF"/><text text-anchor="middle" pointer-events="none" x="0" y="0" font-size="10px" fill="#FFFFFF" font-family="sans-serif"> Hugo</text><text text-anchor="middle" pointer-events="none" x="0" y="10" font-size="10px" fill="#FFFFFF" font-family="sans-serif"> Weaving</text></g><g class="node" transform="translate(190.09154755218833,53.42874367274063)"><circle class="outline" cx="0" cy="0" r="25" fill="#F79767" stroke="#f36924" stroke-width="2px"/><text text-anchor="middle" pointer-events="none" font-family="sans-serif" dy="1.5625" font-size="25" fill="#FFFFFF"/><text text-anchor="middle" pointer-events="none" font-family="sans-serif" dy="1.5625" font-size="25" fill="#FFFFFF"/><text text-anchor="middle" pointer-events="none" x="0" y="0" font-size="10px" fill="#FFFFFF" font-family="sans-serif"> Keanu</text><text text-anchor="middle" pointer-events="none" x="0" y="10" font-size="10px" fill="#FFFFFF" font-family="sans-serif"> Reeves</text></g><g class="node" transform="translate(104.00569246418881,52.96327774831308)"><circle class="outline" cx="0" cy="0" r="25" fill="#57C7E3" stroke="#23b3d7" stroke-width="2px"/><text text-anchor="middle" pointer-events="none" font-family="sans-serif" dy="1.5625" font-size="25" fill="#2A2C34"/><text text-anchor="middle" pointer-events="none" font-family="sans-serif" dy="1.5625" font-size="25" fill="#2A2C34"/><text text-anchor="middle" pointer-events="none" font-family="sans-serif" dy="1.5625" font-size="25" fill="#2A2C34"/><text text-anchor="middle" pointer-events="none" x="0" y="-5" font-size="10px" fill="#2A2C34" font-family="sans-serif"> The</text><text text-anchor="middle" pointer-events="none" x="0" y="5" font-size="10px" fill="#2A2C34" font-family="sans-serif"> Matrix</text><text text-anchor="middle" pointer-events="none" x="0" y="15" font-size="10px" fill="#2A2C34" font-family="sans-serif"> Reloa…</text></g><g class="node" transform="translate(107.31693070673685,125.23647837676083)"><circle class="outline" cx="0" cy="0" r="25" fill="#57C7E3" stroke="#23b3d7" stroke-width="2px"/><text text-anchor="middle" pointer-events="none" font-family="sans-serif" dy="1.5625" font-size="25" fill="#2A2C34"/><text text-anchor="middle" pointer-events="none" font-family="sans-serif" dy="1.5625" font-size="25" fill="#2A2C34"/><text text-anchor="middle" pointer-events="none" x="0" y="0" font-size="10px" fill="#2A2C34" font-family="sans-serif"> The</text><text text-anchor="middle" pointer-events="none" x="0" y="10" font-size="10px" fill="#2A2C34" font-family="sans-serif"> Matrix</text></g></g></svg>