<svg xmlns="http://www.w3.org/2000/svg" width="288.0481872558594" height="284.5216369628906" viewBox="-37.104087829589844 -41.82884979248047 288.0481872558594 284.5216369628906"><title>Neo4j Graph Visualization</title><desc>Created using Neo4j (http://www.neo4j.com/)</desc><g class="layer relationships"><g class="relationship" transform="translate(151.04990969058824 213.69279773291933) rotate(248.67817428767876)"><path class="outline" fill="#A5ABB6" stroke="none" d="M 25 0.5 L 36.97136735674586 0.5 L 36.97136735674586 -0.5 L 25 -0.5 Z M 72.74480485674586 0.5 L 84.71617221349172 0.5 L 84.71617221349172 3.5 L 91.71617221349172 0 L 84.71617221349172 -3.5 L 84.71617221349172 -0.5 L 72.74480485674586 -0.5 Z"/><text text-anchor="middle" pointer-events="none" font-size="8px" fill="#000000" x="54.85808610674586" y="3" transform="rotate(180 54.85808610674586 0)" font-family="sans-serif">WROTE</text></g><g class="relationship" transform="translate(221.9440845248869 134.75838655432648) rotate(194.72863042936484)"><path class="outline" fill="#A5ABB6" stroke="none" d="M 25 0.5 L 32.310469564069784 0.5 L 32.310469564069784 -0.5 L 25 -0.5 Z M 77.87296956406979 0.5 L 85.18343912813957 0.5 L 85.18343912813957 3.5 L 92.18343912813957 0 L 85.18343912813957 -3.5 L 85.18343912813957 -0.5 L 77.87296956406979 -0.5 Z"/><text text-anchor="middle" pointer-events="none" font-size="8px" fill="#000000" x="55.091719564069784" y="3" transform="rotate(180 55.091719564069784 0)" font-family="sans-serif">ACTED_IN</text></g><g class="relationship" transform="translate(199.8967267144713 31.43928191895105) rotate(501.15017579043354)"><path class="outline" fill="#A5ABB6" stroke="none" d="M 25 0.5 L 32.325823287605616 0.5 L 32.325823287605616 -0.5 L 25 -0.5 Z M 77.88832328760562 0.5 L 85.21414657521123 0.5 L 85.21414657521123 3.5 L 92.21414657521123 0 L 85.21414657521123 -3.5 L 85.21414657521123 -0.5 L 77.88832328760562 -0.5 Z"/><text text-anchor="middle" pointer-events="none" font-size="8px" fill="#000000" x="55.107073287605616" y="3" transform="rotate(180 55.107073287605616 0)" font-family="sans-serif">ACTED_IN</text></g><g class="relationship" transform="translate(104.82122113500543 -12.8288490952559) rotate(448.1571727790158)"><path class="outline" fill="#A5ABB6" stroke="none" d="M 25 0.5 L 32.646412934772655 0.5 L 32.646412934772655 -0.5 L 25 -0.5 Z M 78.20891293477266 0.5 L 85.85532586954531 0.5 L 85.85532586954531 3.5 L 92.85532586954531 0 L 85.85532586954531 -3.5 L 85.85532586954531 -0.5 L 78.20891293477266 -0.5 Z"/><text text-anchor="middle" pointer-events="none" font-size="8px" fill="#000000" x="55.427662934772655" y="3" font-family="sans-serif">ACTED_IN</text></g><g class="relationship" transform="translate(19.80945627987474 28.650154274761753) rotate(400.6754491221011)"><path class="outline" fill="#A5ABB6" stroke="none" d="M 25 0.5 L 32.263144165744286 0.5 L 32.263144165744286 -0.5 L 25 -0.5 Z M 77.82564416574428 0.5 L 85.08878833148857 0.5 L 85.08878833148857 3.5 L 92.08878833148857 0 L 85.08878833148857 -3.5 L 85.08878833148857 -0.5 L 77.82564416574428 -0.5 Z"/><text text-anchor="middle" pointer-events="none" font-size="8px" fill="#000000" x="55.044394165744286" y="3" font-family="sans-serif">ACTED_IN</text></g><g class="relationship" transform="translate(-8.104085506980383 118.98528538904908) rotate(353.1504858072378)"><path class="outline" fill="#A5ABB6" stroke="none" d="M 25 0.5 L 31.831831594443265 0.5 L 31.831831594443265 -0.5 L 25 -0.5 Z M 78.72245659444326 0.5 L 85.55428818888653 0.5 L 85.55428818888653 3.5 L 92.55428818888653 0 L 85.55428818888653 -3.5 L 85.55428818888653 -0.5 L 78.72245659444326 -0.5 Z"/><text text-anchor="middle" pointer-events="none" font-size="8px" fill="#000000" x="55.277144094443265" y="3" font-family="sans-serif">DIRECTED</text></g><g class="relationship" transform="translate(46.74635313628116 205.02136049077768) rotate(301.7286335585719)"><path class="outline" fill="#A5ABB6" stroke="none" d="M 25 0.5 L 37.431708487420636 0.5 L 37.431708487420636 -0.5 L 25 -0.5 Z M 73.20514598742064 0.5 L 85.63685447484127 0.5 L 85.63685447484127 3.5 L 92.63685447484127 0 L 85.63685447484127 -3.5 L 85.63685447484127 -0.5 L 73.20514598742064 -0.5 Z"/><text text-anchor="middle" pointer-events="none" font-size="8px" fill="#000000" x="55.318427237420636" y="3" font-family="sans-serif">WROTE</text></g></g><g class="layer nodes"><g class="node" transform="translate(151.04990969058824,213.69279773291933)"><circle class="outline" cx="0" cy="0" r="25" fill="#F79767" stroke="#f36924" stroke-width="2px"/><text text-anchor="middle" pointer-events="none" font-family="sans-serif" dy="1.5625" font-size="25" fill="#FFFFFF"/><text text-anchor="middle" pointer-events="none" x="0" y="5" font-size="10px" fill="#FFFFFF" font-family="sans-serif"> Christop…</text></g><g class="node" transform="translate(108.61119589991713,104.9655222774801)"><circle class="outline" cx="0" cy="0" r="25" fill="#57C7E3" stroke="#23b3d7" stroke-width="2px"/><text text-anchor="middle" pointer-events="none" font-family="sans-serif" dy="1.5625" font-size="25" fill="#2A2C34"/><text text-anchor="middle" pointer-events="none" font-family="sans-serif" dy="1.5625" font-size="25" fill="#2A2C34"/><text text-anchor="middle" pointer-events="none" font-family="sans-serif" dy="1.5625" font-size="25" fill="#2A2C34"/><text text-anchor="middle" pointer-events="none" x="0" y="-5" font-size="10px" fill="#2A2C34" font-family="sans-serif"> Captain</text><text text-anchor="middle" pointer-events="none" x="0" y="5" font-size="10px" fill="#2A2C34" font-family="sans-serif"> America:</text><text text-anchor="middle" pointer-events="none" x="0" y="15" font-size="10px" fill="#2A2C34" font-family="sans-serif"> The Fi…</text></g><g class="node" transform="translate(221.9440845248869,134.75838655432648)"><circle class="outline" cx="0" cy="0" r="25" fill="#F79767" stroke="#f36924" stroke-width="2px"/><text text-anchor="middle" pointer-events="none" font-family="sans-serif" dy="1.5625" font-size="25" fill="#FFFFFF"/><text text-anchor="middle" pointer-events="none" font-family="sans-serif" dy="1.5625" font-size="25" fill="#FFFFFF"/><text text-anchor="middle" pointer-events="none" font-family="sans-serif" dy="1.5625" font-size="25" fill="#FFFFFF"/><text text-anchor="middle" pointer-events="none" x="0" y="-5" font-size="10px" fill="#FFFFFF" font-family="sans-serif"> Samuel</text><text text-anchor="middle" pointer-events="none" x="0" y="5" font-size="10px" fill="#FFFFFF" font-family="sans-serif"> L.</text><text text-anchor="middle" pointer-events="none" x="0" y="15" font-size="10px" fill="#FFFFFF" font-family="sans-serif"> Jackson</text></g><g class="node" transform="translate(199.8967267144713,31.43928191895105)"><circle class="outline" cx="0" cy="0" r="25" fill="#F79767" stroke="#f36924" stroke-width="2px"/><text text-anchor="middle" pointer-events="none" font-family="sans-serif" dy="1.5625" font-size="25" fill="#FFFFFF"/><text text-anchor="middle" pointer-events="none" font-family="sans-serif" dy="1.5625" font-size="25" fill="#FFFFFF"/><text text-anchor="middle" pointer-events="none" x="0" y="0" font-size="10px" fill="#FFFFFF" font-family="sans-serif"> Hayley</text><text text-anchor="middle" pointer-events="none" x="0" y="10" font-size="10px" fill="#FFFFFF" font-family="sans-serif"> Atwell</text></g><g class="node" transform="translate(104.82122113500543,-12.8288490952559)"><circle class="outline" cx="0" cy="0" r="25" fill="#F79767" stroke="#f36924" stroke-width="2px"/><text text-anchor="middle" pointer-events="none" font-family="sans-serif" dy="1.5625" font-size="25" fill="#FFFFFF"/><text text-anchor="middle" pointer-events="none" font-family="sans-serif" dy="1.5625" font-size="25" fill="#FFFFFF"/><text text-anchor="middle" pointer-events="none" x="0" y="0" font-size="10px" fill="#FFFFFF" font-family="sans-serif"> Hugo</text><text text-anchor="middle" pointer-events="none" x="0" y="10" font-size="10px" fill="#FFFFFF" font-family="sans-serif"> Weaving</text></g><g class="node" transform="translate(19.80945627987474,28.650154274761753)"><circle class="outline" cx="0" cy="0" r="25" fill="#F79767" stroke="#f36924" stroke-width="2px"/><text text-anchor="middle" pointer-events="none" font-family="sans-serif" dy="1.5625" font-size="25" fill="#FFFFFF"/><text text-anchor="middle" pointer-events="none" font-family="sans-serif" dy="1.5625" font-size="25" fill="#FFFFFF"/><text text-anchor="middle" pointer-events="none" x="0" y="0" font-size="10px" fill="#FFFFFF" font-family="sans-serif"> Chris</text><text text-anchor="middle" pointer-events="none" x="0" y="10" font-size="10px" fill="#FFFFFF" font-family="sans-serif"> Evans</text></g><g class="node" transform="translate(-8.104085506980383,118.98528538904908)"><circle class="outline" cx="0" cy="0" r="25" fill="#F79767" stroke="#f36924" stroke-width="2px"/><text text-anchor="middle" pointer-events="none" font-family="sans-serif" dy="1.5625" font-size="25" fill="#FFFFFF"/><text text-anchor="middle" pointer-events="none" font-family="sans-serif" dy="1.5625" font-size="25" fill="#FFFFFF"/><text text-anchor="middle" pointer-events="none" x="0" y="0" font-size="10px" fill="#FFFFFF" font-family="sans-serif"> Joe</text><text text-anchor="middle" pointer-events="none" x="0" y="10" font-size="10px" fill="#FFFFFF" font-family="sans-serif"> Johnston</text></g><g class="node" transform="translate(46.74635313628116,205.02136049077768)"><circle class="outline" cx="0" cy="0" r="25" fill="#F79767" stroke="#f36924" stroke-width="2px"/><text text-anchor="middle" pointer-events="none" font-family="sans-serif" dy="1.5625" font-size="25" fill="#FFFFFF"/><text text-anchor="middle" pointer-events="none" font-family="sans-serif" dy="1.5625" font-size="25" fill="#FFFFFF"/><text text-anchor="middle" pointer-events="none" x="0" y="0" font-size="10px" fill="#FFFFFF" font-family="sans-serif"> Stephen</text><text text-anchor="middle" pointer-events="none" x="0" y="10" font-size="10px" fill="#FFFFFF" font-family="sans-serif"> McFeely</text></g></g></svg>