<svg xmlns="http://www.w3.org/2000/svg" width="196.39508056640625" height="215.7499542236328" viewBox="-24.239458084106445 -21.890422821044922 196.39508056640625 215.7499542236328"><title>Neo4j Graph Visualization</title><desc>Created using Neo4j (http://www.neo4j.com/)</desc><g class="layer relationships"><g class="relationship" transform="translate(69.96444597845904 164.85952439878935) rotate(252.93797036707133)"><path class="outline" fill="#A5ABB6" stroke="none" d="M 5.987513214418485,-24.277555179777966 L 6.953439040707552,-24.018736134675446 A 45.890142893278686 45.890142893278686 0 0 1 18.738213632383548,-44.4979917743481 L 18.029091857001063,-45.20307780291369 A 46.890142893278686 46.890142893278686 0 0 0 5.987513214418485,-24.277555179777966 Z M 80.1528430646431,-49.087933101585705 L 79.53708614752436,-48.29999692458884 A 45.890142893278686 45.890142893278686 0 0 1 93.78137882991864,-29.448446598157616 L 91.00290858008712,-28.317030197887032 L 96.8844288055219,-23.153918748595864 L 97.48600582969398,-30.957001798518395 L 94.70753557986247,-29.82558539824781 A 46.890142893278686 46.890142893278686 0 0 0 80.1528430646431,-49.087933101585705"/><text text-anchor="middle" pointer-events="none" font-size="8px" fill="#000000" x="48.384601147593436" y="-55.44119647051649" transform="rotate(180 48.384601147593436 -58.44119647051649)" font-family="sans-serif">FLIGHT_TICKET</text></g><g class="relationship" transform="translate(38.771513319957265 63.22570421537423) rotate(349.0607320422703)"><path class="outline" fill="#A5ABB6" stroke="none" d="M 5.987513214418485,24.277555179777966 L 6.953439040707552,24.018736134675446 A 45.89179665619872 45.89179665619872 0 0 0 18.739533054068367,44.499629619140585 L 18.030430775169634,45.20473525524103 A 46.89179665619872 46.89179665619872 0 0 1 5.987513214418485,24.277555179777966 Z M 80.15456851497719,49.089503853631356 L 79.53883058365132,48.30155283997217 A 45.89179665619872 45.89179665619872 0 0 0 93.78456942201457,29.448491153261173 L 91.00609514949743,28.317084631731284 L 96.8875970176705,23.15395227097617 L 97.48920178537075,30.957033181967695 L 94.71072751285361,29.825626660437806 A 46.89179665619872 46.89179665619872 0 0 1 80.15456851497719,49.089503853631356"/><text text-anchor="middle" pointer-events="none" font-size="8px" fill="#000000" x="48.386177656141136" y="61.44242413120445" font-family="sans-serif">FLIGHT_TICKET</text></g><g class="relationship" transform="translate(69.96444597845904 164.85952439878935) rotate(252.93797036707133)"><path class="outline" fill="#A5ABB6" stroke="none" d="M 17.324116139070416,-18.03122292025696 L 18.031222920256962,-17.324116139070412 A 47.02074877201994 47.02074877201994 0 0 1 19.126066587526978,-18.384039335544244 L 18.44224407330475,-19.113687722812244 A 48.02074877201994 48.02074877201994 0 0 0 17.324116139070416,-18.03122292025696 Z M 80.8765206667666,-21.891204821741972 L 80.26019109694136,-21.103716497156128 A 47.02074877201994 47.02074877201994 0 0 1 81.44482916945964,-20.14520073029325 L 79.52025863046464,-17.843890616372814 L 87.1353145251065,-16.038087824958318 L 84.01092322145297,-23.213614215520497 L 82.08635268245797,-20.91230410160006 A 48.02074877201994 48.02074877201994 0 0 0 80.8765206667666,-21.891204821741972"/><text text-anchor="middle" pointer-events="none" font-size="8px" fill="#000000" x="49.167943931635165" y="-28.54922017101555" transform="rotate(180 49.167943931635165 -31.54922017101555)" font-family="sans-serif">FLIGHT_TICKET</text></g><g class="relationship" transform="translate(69.96444597845904 164.85952439878935) rotate(252.93797036707133)"><path class="outline" fill="#A5ABB6" stroke="none" d="M 24.018736134675446,-6.953439040707552 L 24.277555179777966,-5.987513214418485 A 104.32910005887486 104.32910005887486 0 0 1 26.51177862746832,-6.559779685031273 L 26.27437473352142,-7.531190716026316 A 105.32910005887486 105.32910005887486 0 0 0 24.018736134675446,-6.953439040707552 Z M 72.99468387657797,-8.279766484477761 L 72.78852270524906,-7.301248435877596 A 104.32910005887486 104.32910005887486 0 0 1 75.03993286961585,-6.800852992869859 L 74.3567096953686,-3.8796877982648854 L 81.969855519402,-5.693526452060432 L 75.95089710194553,-10.695739919009823 L 75.26767392769827,-7.774574724404849 A 105.32910005887486 105.32910005887486 0 0 0 72.99468387657797,-8.279766484477761"/><text text-anchor="middle" pointer-events="none" font-size="8px" fill="#000000" x="49.600505396271004" y="-7.028987807187562" transform="rotate(180 49.600505396271004 -10.028987807187562)" font-family="sans-serif">FLIGHT_…</text></g><g class="relationship" transform="translate(38.771513319957265 63.22570421537423) rotate(432.93797036707133)"><path class="outline" fill="#A5ABB6" stroke="none" d="M 24.018736134675446,-6.953439040707552 L 24.277555179777966,-5.987513214418485 A 104.32910005887486 104.32910005887486 0 0 1 26.51177862746832,-6.559779685031273 L 26.27437473352142,-7.531190716026316 A 105.32910005887486 105.32910005887486 0 0 0 24.018736134675446,-6.953439040707552 Z M 72.99468387657797,-8.279766484477761 L 72.78852270524906,-7.301248435877596 A 104.32910005887486 104.32910005887486 0 0 1 75.03993286961585,-6.800852992869859 L 74.3567096953686,-3.8796877982648854 L 81.969855519402,-5.693526452060432 L 75.95089710194553,-10.695739919009823 L 75.26767392769827,-7.774574724404849 A 105.32910005887486 105.32910005887486 0 0 0 72.99468387657797,-8.279766484477761"/><text text-anchor="middle" pointer-events="none" font-size="8px" fill="#000000" x="49.600505396271004" y="-7.028987807187562" font-family="sans-serif">FLIGHT_…</text></g><g class="relationship" transform="translate(38.771513319957265 63.22570421537423) rotate(349.0607320422703)"><path class="outline" fill="#A5ABB6" stroke="none" d="M 10.396609043987748,22.74116356711926 L 11.29757791189017,22.307279828001697 A 44.37881724696445 44.37881724696445 0 0 0 19.204348070447296,33.7201767440292 L 18.481544612284317,34.41123040393387 A 45.37881724696445 45.37881724696445 0 0 1 10.396609043987748,22.74116356711926 Z M 80.25880051324206,37.97414208793407 L 79.62023627500282,37.204573563602466 A 44.37881724696445 44.37881724696445 0 0 0 88.78666081400628,26.77634785033394 L 86.25131946232781,25.17258844491517 L 92.95132298526316,21.12784459732063 L 92.16711594957758,28.914693724225636 L 89.63177459789911,27.310934318806865 A 45.37881724696445 45.37881724696445 0 0 1 80.25880051324206,37.97414208793407"/><text text-anchor="middle" pointer-events="none" font-size="8px" fill="#000000" x="48.69748533823967" y="50.856396855801606" font-family="sans-serif">FLIGHT_TICKET</text></g><g class="relationship" transform="translate(38.771513319957265 63.22570421537423) rotate(349.0607320422703)"><path class="outline" fill="#A5ABB6" stroke="none" d="M 14.44320574945421,20.411854586953456 L 15.247803529220876,19.818034401379958 A 44.78474589746553 44.78474589746553 0 0 0 19.328431818291218,24.60346737531745 L 18.614950515961155,25.30414164430797 A 45.78474589746553 45.78474589746553 0 0 1 14.44320574945421,20.411854586953456 Z M 80.51611385484848,28.46002258205548 L 79.87759107534933,27.69041965842495 A 44.78474589746553 44.78474589746553 0 0 0 84.42374386106486,23.344802230424598 L 82.20364195686687,21.327093744300686 L 89.50174731272033,18.500849201649935 L 87.38387973332885,26.035080211923148 L 85.16377782913086,24.017371725799237 A 45.78474589746553 45.78474589746553 0 0 1 80.51611385484848,28.46002258205548"/><text text-anchor="middle" pointer-events="none" font-size="8px" fill="#000000" x="48.97577213958559" y="41.44995607520203" font-family="sans-serif">FLIGHT_TICKET</text></g><g class="relationship" transform="translate(38.771513319957265 63.22570421537423) rotate(349.0607320422703)"><path class="outline" fill="#A5ABB6" stroke="none" d="M 17.9862104268602,17.370844380187897 L 18.666383164631117,16.637792508358068 A 47.951241897745156 47.951241897745156 0 0 0 19.032955703634826,16.97439901617951 L 18.360427659191878,17.71447065422393 A 48.951241897745156 48.951241897745156 0 0 1 17.9862104268602,17.370844380187897 Z M 80.99289362864108,20.39022989703627 L 80.38593491153705,19.59549653563044 A 47.951241897745156 47.951241897745156 0 0 0 80.77988014085375,19.29138056472795 L 78.93435737683302,16.92620705576898 L 86.60620545576147,15.379356366839417 L 83.24057715954805,22.444945243339912 L 81.39505439552732,20.07977173438094 A 48.951241897745156 48.951241897745156 0 0 1 80.99289362864108,20.39022989703627"/><text text-anchor="middle" pointer-events="none" font-size="8px" fill="#000000" x="49.21348235970378" y="32.89413217423204" font-family="sans-serif">FLIGHT_TICKET</text></g><g class="relationship" transform="translate(38.771513319957265 63.22570421537423) rotate(349.0607320422703)"><path class="outline" fill="#A5ABB6" stroke="none" d="M 20.90208894244944,13.724164012497553 L 21.434121018964774,12.87743981326927 A 56.10073329086372 56.10073329086372 0 0 0 23.883248497034497,14.330953734174457 L 23.39487231117164,15.203586933796181 A 57.10073329086372 57.10073329086372 0 0 1 20.90208894244944,13.724164012497553 Z M 75.80386548156244,16.94251732758444 L 75.37440768964737,16.03943039657313 A 56.10073329086372 56.10073329086372 0 0 0 77.91449766017226,14.751458710649873 L 76.49029237164137,12.111072508572482 L 84.31276634644132,11.868377404424043 L 79.81343804488012,18.271973646753057 L 78.38923275634923,15.631587444675668 A 57.10073329086372 57.10073329086372 0 0 1 75.80386548156244,16.94251732758444"/><text text-anchor="middle" pointer-events="none" font-size="8px" fill="#000000" x="49.40453122547071" y="24.94519410935542" font-family="sans-serif">FLIGHT_TI…</text></g><g class="relationship" transform="translate(38.771513319957265 63.22570421537423) rotate(349.0607320422703)"><path class="outline" fill="#A5ABB6" stroke="none" d="M 23.08917320392191,9.598962483481976 L 23.454514228288303,8.668088734837774 A 76.1671823352104 76.1671823352104 0 0 0 24.42389500784133,9.04093558200583 L 24.071280997260043,9.976704442110602 A 77.1671823352104 77.1671823352104 0 0 1 23.08917320392191,9.598962483481976 Z M 75.19210890893804,11.13537957413071 L 74.88225441458401,10.184595585872273 A 76.1671823352104 76.1671823352104 0 0 0 75.86753250632725,9.856051906674548 L 74.89916183380892,7.016640305548989 L 82.65422135437326,8.069755604319383 L 77.15869340301835,13.641934041508627 L 76.19032273050001,10.802522440383068 A 77.1671823352104 77.1671823352104 0 0 1 75.19210890893804,11.13537957413071"/><text text-anchor="middle" pointer-events="none" font-size="8px" fill="#000000" x="49.54426278629974" y="17.41355532602509" font-family="sans-serif">FLIGHT_T…</text></g><g class="relationship" transform="translate(38.771513319957265 63.22570421537423) rotate(432.93797036707133)"><path class="outline" fill="#A5ABB6" stroke="none" d="M 17.324116139070416,-18.03122292025696 L 18.031222920256962,-17.324116139070412 A 47.02074877201994 47.02074877201994 0 0 1 19.126066587526978,-18.384039335544244 L 18.44224407330475,-19.113687722812244 A 48.02074877201994 48.02074877201994 0 0 0 17.324116139070416,-18.03122292025696 Z M 80.8765206667666,-21.891204821741972 L 80.26019109694136,-21.103716497156128 A 47.02074877201994 47.02074877201994 0 0 1 81.44482916945964,-20.14520073029325 L 79.52025863046464,-17.843890616372814 L 87.1353145251065,-16.038087824958318 L 84.01092322145297,-23.213614215520497 L 82.08635268245797,-20.91230410160006 A 48.02074877201994 48.02074877201994 0 0 0 80.8765206667666,-21.891204821741972"/><text text-anchor="middle" pointer-events="none" font-size="8px" fill="#000000" x="49.167943931635165" y="-28.54922017101555" font-family="sans-serif">FLIGHT_TICKET</text></g><g class="relationship" transform="translate(38.771513319957265 63.22570421537423) rotate(349.0607320422703)"><path class="outline" fill="#A5ABB6" stroke="none" d="M 24.471206027250748,5.139073415689509 L 24.657117634413662,4.15650694245622 A 143.2099556214981 143.2099556214981 0 0 0 26.39638993897771,4.474486688718002 L 26.222623243786984,5.459273536539655 A 144.2099556214981 144.2099556214981 0 0 1 24.471206027250748,5.139073415689509 Z M 73.06871258829875,5.997859055554699 L 72.91763285286254,5.0093374758506855 A 143.2099556214981 143.2099556214981 0 0 0 74.66375603351497,4.731429026097207 L 74.17393857732685,1.7716859866403372 L 81.65145936827902,4.081812134901057 L 75.31684597509914,8.677753078706369 L 74.82702851891102,5.718010039249498 A 144.2099556214981 144.2099556214981 0 0 1 73.06871258829875,5.997859055554699"/><text text-anchor="middle" pointer-events="none" font-size="8px" fill="#000000" x="49.62939864898853" y="10.143664755046245" font-family="sans-serif">FLIGHT_…</text></g><g class="relationship" transform="translate(38.771513319957265 63.22570421537423) rotate(349.0607320422703)"><path class="outline" fill="#A5ABB6" stroke="none" d="M 25 0.5 L 26.210726723543132 0.5 L 26.210726723543132 -0.5 L 25 -0.5 Z M 73.10525797354313 0.5 L 74.31598469708626 0.5 L 74.31598469708626 3.5 L 81.31598469708626 0 L 74.31598469708626 -3.5 L 74.31598469708626 -0.5 L 73.10525797354313 -0.5 Z"/><text text-anchor="middle" pointer-events="none" font-size="8px" fill="#000000" x="49.65799234854313" y="3" font-family="sans-serif">FLIGHT_…</text></g><g class="relationship" transform="translate(38.771513319957265 63.22570421537423) rotate(349.0607320422703)"><path class="outline" fill="#A5ABB6" stroke="none" d="M 24.471206027250748,-5.139073415689509 L 24.657117634413662,-4.15650694245622 A 143.2099556214981 143.2099556214981 0 0 1 26.396389938977684,-4.474486688717974 L 26.22262324378696,-5.4592735365396265 A 144.2099556214981 144.2099556214981 0 0 0 24.471206027250748,-5.139073415689509 Z M 73.06871258829874,-5.997859055554699 L 72.91763285286254,-5.0093374758506855 A 143.2099556214981 143.2099556214981 0 0 1 74.66375603351497,-4.731429026097207 L 74.17393857732685,-1.7716859866403372 L 81.65145936827902,-4.081812134901057 L 75.31684597509914,-8.677753078706369 L 74.82702851891102,-5.718010039249498 A 144.2099556214981 144.2099556214981 0 0 0 73.06871258829874,-5.997859055554699"/><text text-anchor="middle" pointer-events="none" font-size="8px" fill="#000000" x="49.62939864898851" y="-4.143664755046245" font-family="sans-serif">FLIGHT_…</text></g><g class="relationship" transform="translate(38.771513319957265 63.22570421537423) rotate(349.0607320422703)"><path class="outline" fill="#A5ABB6" stroke="none" d="M 23.08917320392191,-9.598962483481976 L 23.454514228288303,-8.668088734837774 A 76.1671823352104 76.1671823352104 0 0 1 24.42389500784133,-9.04093558200583 L 24.071280997260043,-9.976704442110602 A 77.1671823352104 77.1671823352104 0 0 0 23.08917320392191,-9.598962483481976 Z M 75.19210890893804,-11.13537957413071 L 74.882254414584,-10.184595585872287 A 76.1671823352104 76.1671823352104 0 0 1 75.86753250632725,-9.856051906674548 L 74.89916183380892,-7.016640305548989 L 82.65422135437326,-8.069755604319383 L 77.15869340301835,-13.641934041508627 L 76.19032273050001,-10.802522440383068 A 77.1671823352104 77.1671823352104 0 0 0 75.19210890893804,-11.13537957413071"/><text text-anchor="middle" pointer-events="none" font-size="8px" fill="#000000" x="49.54426278629973" y="-11.41355532602509" font-family="sans-serif">FLIGHT_T…</text></g><g class="relationship" transform="translate(38.771513319957265 63.22570421537423) rotate(349.0607320422703)"><path class="outline" fill="#A5ABB6" stroke="none" d="M 20.90208894244944,-13.724164012497553 L 21.434121018964774,-12.87743981326927 A 56.10073329086372 56.10073329086372 0 0 1 23.883248497034483,-14.33095373417445 L 23.39487231117162,-15.203586933796174 A 57.10073329086372 57.10073329086372 0 0 0 20.90208894244944,-13.724164012497553 Z M 75.80386548156244,-16.94251732758444 L 75.37440768964736,-16.03943039657313 A 56.10073329086372 56.10073329086372 0 0 1 77.91449766017226,-14.751458710649873 L 76.49029237164137,-12.111072508572482 L 84.31276634644132,-11.868377404424043 L 79.81343804488012,-18.271973646753057 L 78.38923275634923,-15.631587444675668 A 57.10073329086372 57.10073329086372 0 0 0 75.80386548156244,-16.94251732758444"/><text text-anchor="middle" pointer-events="none" font-size="8px" fill="#000000" x="49.4045312254707" y="-18.94519410935542" font-family="sans-serif">FLIGHT_TI…</text></g><g class="relationship" transform="translate(38.771513319957265 63.22570421537423) rotate(349.0607320422703)"><path class="outline" fill="#A5ABB6" stroke="none" d="M 17.9862104268602,-17.370844380187897 L 18.666383164631117,-16.637792508358068 A 47.951241897745156 47.951241897745156 0 0 1 19.032955703634826,-16.97439901617951 L 18.360427659191885,-17.71447065422393 A 48.951241897745156 48.951241897745156 0 0 0 17.9862104268602,-17.370844380187897 Z M 80.99289362864107,-20.390229897036278 L 80.38593491153703,-19.595496535630446 A 47.951241897745156 47.951241897745156 0 0 1 80.77988014085375,-19.29138056472795 L 78.93435737683302,-16.92620705576898 L 86.60620545576147,-15.379356366839417 L 83.24057715954805,-22.444945243339912 L 81.39505439552732,-20.07977173438094 A 48.951241897745156 48.951241897745156 0 0 0 80.99289362864107,-20.390229897036278"/><text text-anchor="middle" pointer-events="none" font-size="8px" fill="#000000" x="49.213482359703775" y="-26.89413217423204" font-family="sans-serif">FLIGHT_TICKET</text></g><g class="relationship" transform="translate(38.771513319957265 63.22570421537423) rotate(349.0607320422703)"><path class="outline" fill="#A5ABB6" stroke="none" d="M 14.44320574945421,-20.411854586953456 L 15.247803529220876,-19.818034401379958 A 44.78474589746553 44.78474589746553 0 0 1 19.328431818291214,-24.60346737531745 L 18.614950515961148,-25.30414164430797 A 45.78474589746553 45.78474589746553 0 0 0 14.44320574945421,-20.411854586953456 Z M 80.5161138548485,-28.46002258205548 L 79.87759107534933,-27.690419658424943 A 44.78474589746553 44.78474589746553 0 0 1 84.42374386106486,-23.344802230424598 L 82.20364195686687,-21.327093744300686 L 89.50174731272033,-18.500849201649935 L 87.38387973332885,-26.035080211923148 L 85.16377782913086,-24.017371725799237 A 45.78474589746553 45.78474589746553 0 0 0 80.5161138548485,-28.46002258205548"/><text text-anchor="middle" pointer-events="none" font-size="8px" fill="#000000" x="48.975772139585594" y="-35.44995607520203" font-family="sans-serif">FLIGHT_TICKET</text></g><g class="relationship" transform="translate(38.771513319957265 63.22570421537423) rotate(349.0607320422703)"><path class="outline" fill="#A5ABB6" stroke="none" d="M 10.396609043987748,-22.74116356711926 L 11.29757791189017,-22.307279828001697 A 44.37881724696445 44.37881724696445 0 0 1 19.204348070447303,-33.72017674402921 L 18.481544612284324,-34.41123040393388 A 45.37881724696445 45.37881724696445 0 0 0 10.396609043987748,-22.74116356711926 Z M 80.25880051324206,-37.97414208793407 L 79.62023627500282,-37.204573563602466 A 44.37881724696445 44.37881724696445 0 0 1 88.78666081400628,-26.77634785033394 L 86.25131946232781,-25.17258844491517 L 92.95132298526316,-21.12784459732063 L 92.16711594957758,-28.914693724225636 L 89.63177459789911,-27.310934318806865 A 45.37881724696445 45.37881724696445 0 0 0 80.25880051324206,-37.97414208793407"/><text text-anchor="middle" pointer-events="none" font-size="8px" fill="#000000" x="48.69748533823968" y="-44.856396855801606" font-family="sans-serif">FLIGHT_TICKET</text></g><g class="relationship" transform="translate(38.771513319957265 63.22570421537423) rotate(432.93797036707133)"><path class="outline" fill="#A5ABB6" stroke="none" d="M 5.987513214418485,-24.277555179777966 L 6.953439040707552,-24.018736134675446 A 45.890142893278686 45.890142893278686 0 0 1 18.738213632383548,-44.4979917743481 L 18.029091857001063,-45.20307780291369 A 46.890142893278686 46.890142893278686 0 0 0 5.987513214418485,-24.277555179777966 Z M 80.1528430646431,-49.087933101585705 L 79.53708614752436,-48.29999692458884 A 45.890142893278686 45.890142893278686 0 0 1 93.78137882991864,-29.448446598157616 L 91.00290858008712,-28.317030197887032 L 96.8844288055219,-23.153918748595864 L 97.48600582969398,-30.957001798518395 L 94.70753557986247,-29.82558539824781 A 46.890142893278686 46.890142893278686 0 0 0 80.1528430646431,-49.087933101585705"/><text text-anchor="middle" pointer-events="none" font-size="8px" fill="#000000" x="48.384601147593436" y="-55.44119647051649" font-family="sans-serif">FLIGHT_TICKET</text></g><g class="relationship" transform="translate(38.771513319957265 63.22570421537423) rotate(349.0607320422703)"><path class="outline" fill="#A5ABB6" stroke="none" d="M 5.987513214418485,-24.277555179777966 L 6.953439040707552,-24.018736134675446 A 45.89179665619872 45.89179665619872 0 0 1 18.73953305406836,-44.49962961914058 L 18.030430775169627,-45.20473525524103 A 46.89179665619872 46.89179665619872 0 0 0 5.987513214418485,-24.277555179777966 Z M 80.15456851497717,-49.08950385363136 L 79.5388305836513,-48.301552839972175 A 45.89179665619872 45.89179665619872 0 0 1 93.78456942201457,-29.448491153261173 L 91.00609514949743,-28.317084631731284 L 96.8875970176705,-23.15395227097617 L 97.48920178537075,-30.957033181967695 L 94.71072751285361,-29.825626660437806 A 46.89179665619872 46.89179665619872 0 0 0 80.15456851497717,-49.08950385363136"/><text text-anchor="middle" pointer-events="none" font-size="8px" fill="#000000" x="48.386177656141115" y="-55.44242413120445" font-family="sans-serif">FLIGHT_TICKET</text></g></g><g class="layer nodes"><g class="node" transform="translate(69.96444597845904,164.85952439878935)"><circle class="outline" cx="0" cy="0" r="25" fill="#ECB5C9" stroke="#da7298" stroke-width="2px"/><text text-anchor="middle" pointer-events="none" font-family="sans-serif" dy="1.5625" font-size="25" fill="#2A2C34"/><text text-anchor="middle" pointer-events="none" x="0" y="5" font-size="10px" fill="#2A2C34" font-family="sans-serif"> MSN</text></g><g class="node" transform="translate(143.15561798510362,43.050291075444385)"><circle class="outline" cx="0" cy="0" r="25" fill="#ECB5C9" stroke="#da7298" stroke-width="2px"/><text text-anchor="middle" pointer-events="none" font-family="sans-serif" dy="1.5625" font-size="25" fill="#2A2C34"/><text text-anchor="middle" pointer-events="none" x="0" y="5" font-size="10px" fill="#2A2C34" font-family="sans-serif"> GRR</text></g><g class="node" transform="translate(38.771513319957265,63.22570421537423)"><circle class="outline" cx="0" cy="0" r="25" fill="#ECB5C9" stroke="#da7298" stroke-width="2px"/><text text-anchor="middle" pointer-events="none" font-family="sans-serif" dy="1.5625" font-size="25" fill="#2A2C34"/><text text-anchor="middle" pointer-events="none" x="0" y="5" font-size="10px" fill="#2A2C34" font-family="sans-serif"> ORD</text></g></g></svg>