<svg xmlns="http://www.w3.org/2000/svg" width="512.8235473632812" height="656.4300537109375" viewBox="-149.94281005859375 -227.3407440185547 512.8235473632812 656.4300537109375"><title>Neo4j Graph Visualization</title><desc>Created using Neo4j (http://www.neo4j.com/)</desc><g class="layer relationships"><g class="relationship" transform="translate(276.25522400203215 400.08919134718593) rotate(282.8084100402609)"><path class="outline" fill="#A5ABB6" stroke="none" d="M 24.018736134675446,-6.953439040707552 L 24.277555179777966,-5.987513214418485 A 97.38919782872489 97.38919782872489 0 0 1 36.95926083729481,-8.497274088937516 L 36.83065855072664,-9.48897033874863 A 98.38919782872489 98.38919782872489 0 0 0 24.018736134675446,-6.953439040707552 Z M 58.905211676273574,-9.85384353765535 L 58.80945444357852,-8.85843881977091 A 97.38919782872489 97.38919782872489 0 0 1 71.56717807542898,-6.769169625893441 L 70.88691442598943,-3.8473138171220422 L 78.49821890413551,-5.668863745329694 L 72.47419627468173,-10.664977370921973 L 71.79393262524218,-7.7431215621505745 A 98.38919782872489 98.38919782872489 0 0 0 58.905211676273574,-9.85384353765535"/><text text-anchor="middle" pointer-events="none" font-size="8px" fill="#000000" x="47.865931895143085" y="-6.792600136761479" font-family="sans-serif">road</text></g><g class="relationship" transform="translate(299.0555469591442 299.80133444152256) rotate(230.70120864084817)"><path class="outline" fill="#A5ABB6" stroke="none" d="M 21.40063509461097,-12.933012701892217 L 21.90063509461097,-12.06698729810778 A 59.698872130195824 59.698872130195824 0 0 1 27.58102819160627,-14.953908109595943 L 27.176178952320928,-15.868291559495425 A 60.698872130195824 60.698872130195824 0 0 0 21.40063509461097,-12.933012701892217 Z M 72.85079166799933,-17.27945042260439 L 72.50316213605299,-16.341818454016092 A 59.698872130195824 59.698872130195824 0 0 1 78.35093904132006,-13.811070980556813 L 77.01418675777953,-11.12535071730355 L 84.84041170283443,-11.139602362837778 L 80.13327541937412,-17.392031331561164 L 78.79652313583358,-14.706311068307901 A 60.698872130195824 60.698872130195824 0 0 0 72.85079166799933,-17.27945042260439"/><text text-anchor="middle" pointer-events="none" font-size="8px" fill="#000000" x="49.89105909586202" y="-17.53640849869366" transform="rotate(180 49.89105909586202 -20.53640849869366)" font-family="sans-serif">twowheeler</text></g><g class="relationship" transform="translate(231.14530455576661 216.8276604557155) rotate(513.4089370359878)"><path class="outline" fill="#A5ABB6" stroke="none" d="M 21.40063509461097,12.933012701892217 L 21.90063509461097,12.06698729810778 A 78.406297745374 78.406297745374 0 0 0 36.36165460417451,18.565239488128483 L 36.04609156810981,19.514144104130338 A 79.406297745374 79.406297745374 0 0 1 21.40063509461097,12.933012701892217 Z M 82.1163723768821,20.740798666409916 L 81.85175119435368,19.776446225775643 A 78.406297745374 78.406297745374 0 0 0 96.63807774073985,14.056925787424007 L 95.27845632784619,11.382710086774361 L 103.10451794440462,11.33017844078043 L 98.45090629126472,17.622546721623536 L 97.09128487837106,14.948331020973889 A 79.406297745374 79.406297745374 0 0 1 82.1163723768821,20.740798666409916"/><text text-anchor="middle" pointer-events="none" font-size="8px" fill="#000000" x="59.00359100656415" y="26.043484754262323" transform="rotate(180 59.00359100656415 23.043484754262323)" font-family="sans-serif">twowheeler</text></g><g class="relationship" transform="translate(119.01886276851168 272.95452634088196) rotate(500.4329118024948)"><path class="outline" fill="#A5ABB6" stroke="none" d="M 25 0.5 L 55.0632469218842 0.5 L 55.0632469218842 -0.5 L 25 -0.5 Z M 74.3991844218842 0.5 L 104.4624313437684 0.5 L 104.4624313437684 3.5 L 111.4624313437684 0 L 104.4624313437684 -3.5 L 104.4624313437684 -0.5 L 74.3991844218842 -0.5 Z"/><text text-anchor="middle" pointer-events="none" font-size="8px" fill="#000000" x="64.7312156718842" y="3" transform="rotate(180 64.7312156718842 0)" font-family="sans-serif">trek</text></g><g class="relationship" transform="translate(276.25522400203215 400.08919134718593) rotate(282.8084100402609)"><path class="outline" fill="#A5ABB6" stroke="none" d="M 24.018736134675446,6.953439040707552 L 24.277555179777966,5.987513214418485 A 97.38919782872489 97.38919782872489 0 0 0 38.28039365748651,8.659425353285712 L 38.165356867396866,9.652786585127316 A 98.38919782872489 98.38919782872489 0 0 1 24.018736134675446,6.953439040707552 Z M 57.56582847062969,9.973459538002558 L 57.48368435030065,8.976839076896454 A 97.38919782872489 97.38919782872489 0 0 0 71.56717807542898,6.769169625893441 L 70.88691442598943,3.8473138171220422 L 78.49821890413551,5.668863745329694 L 72.47419627468173,10.664977370921973 L 71.79393262524218,7.7431215621505745 A 98.38919782872489 98.38919782872489 0 0 1 57.56582847062969,9.973459538002558"/><text text-anchor="middle" pointer-events="none" font-size="8px" fill="#000000" x="47.865931895143085" y="12.792600136761479" font-family="sans-serif">trek</text></g><g class="relationship" transform="translate(299.0555469591442 299.80133444152256) rotate(230.70120864084817)"><path class="outline" fill="#A5ABB6" stroke="none" d="M 25 0.5 L 39.104847573305804 0.5 L 39.104847573305804 -0.5 L 25 -0.5 Z M 61.116566323305804 0.5 L 75.22141389661161 0.5 L 75.22141389661161 3.5 L 82.22141389661161 0 L 75.22141389661161 -3.5 L 75.22141389661161 -0.5 L 61.116566323305804 -0.5 Z"/><text text-anchor="middle" pointer-events="none" font-size="8px" fill="#000000" x="50.110706948305804" y="3" transform="rotate(180 50.110706948305804 0)" font-family="sans-serif">road</text></g><g class="relationship" transform="translate(299.0555469591442 299.80133444152256) rotate(230.70120864084817)"><path class="outline" fill="#A5ABB6" stroke="none" d="M 21.40063509461097,12.933012701892217 L 21.90063509461097,12.06698729810778 A 59.698872130195824 59.698872130195824 0 0 0 40.38827028841308,18.97396720850186 L 40.19795177039289,19.95568960393684 A 60.698872130195824 60.698872130195824 0 0 1 21.40063509461097,12.933012701892217 Z M 59.60152827391293,20.5551808164711 L 59.472177318307644,19.56358194077388 A 59.698872130195824 59.698872130195824 0 0 0 78.35093904132006,13.811070980556813 L 77.01418675777953,11.12535071730355 L 84.84041170283443,11.139602362837778 L 80.13327541937412,17.392031331561164 L 78.79652313583358,14.706311068307901 A 60.698872130195824 60.698872130195824 0 0 1 59.60152827391293,20.5551808164711"/><text text-anchor="middle" pointer-events="none" font-size="8px" fill="#000000" x="49.89105909586204" y="23.53640849869366" transform="rotate(180 49.89105909586204 20.53640849869366)" font-family="sans-serif">trek</text></g><g class="relationship" transform="translate(231.14530455576661 216.8276604557155) rotate(513.4089370359878)"><path class="outline" fill="#A5ABB6" stroke="none" d="M 25 0.5 L 48.188965016575835 0.5 L 48.188965016575835 -0.5 L 25 -0.5 Z M 70.20068376657584 0.5 L 93.38964878315167 0.5 L 93.38964878315167 3.5 L 100.38964878315167 0 L 93.38964878315167 -3.5 L 93.38964878315167 -0.5 L 70.20068376657584 -0.5 Z"/><text text-anchor="middle" pointer-events="none" font-size="8px" fill="#000000" x="59.194824391575835" y="3" transform="rotate(180 59.194824391575835 0)" font-family="sans-serif">road</text></g><g class="relationship" transform="translate(231.14530455576661 216.8276604557155) rotate(513.4089370359878)"><path class="outline" fill="#A5ABB6" stroke="none" d="M 21.40063509461097,-12.933012701892217 L 21.90063509461097,-12.06698729810778 A 78.406297745374 78.406297745374 0 0 1 49.453250958860124,-21.70102111404634 L 49.304659157646995,-22.68991973201092 A 79.406297745374 79.406297745374 0 0 0 21.40063509461097,-12.933012701892217 Z M 68.70759539736441,-23.206536949059384 L 68.61183710556685,-22.211132333060448 A 78.406297745374 78.406297745374 0 0 1 96.63807774073985,-14.056925787424007 L 95.27845632784619,-11.382710086774361 L 103.10451794440462,-11.33017844078043 L 98.45090629126472,-17.622546721623536 L 97.09128487837106,-14.948331020973889 A 79.406297745374 79.406297745374 0 0 0 68.70759539736441,-23.206536949059384"/><text text-anchor="middle" pointer-events="none" font-size="8px" fill="#000000" x="59.00359100656415" y="-20.043484754262323" transform="rotate(180 59.00359100656415 -23.043484754262323)" font-family="sans-serif">trek</text></g><g class="relationship" transform="translate(333.88070981322426 -3.523321360850082) rotate(267.37495587713806)"><path class="outline" fill="#A5ABB6" stroke="none" d="M 24.018736134675446,-6.953439040707552 L 24.277555179777966,-5.987513214418485 A 98.19848849762278 98.19848849762278 0 0 1 37.160333355254785,-8.530490959762702 L 37.032705516580954,-9.522313088370169 A 99.19848849762278 99.19848849762278 0 0 0 24.018736134675446,-6.953439040707552 Z M 59.10712106889568,-9.88584492295358 L 59.01222116660657,-8.890358103078242 A 98.19848849762278 98.19848849762278 0 0 1 71.97174853977378,-6.772963573004209 L 71.29113049735648,-3.8511902963217026 L 78.90265585910252,-5.671817020144239 L 72.87923926299686,-10.668661275247551 L 72.19862122057955,-7.746887998565044 A 99.19848849762278 99.19848849762278 0 0 0 59.10712106889568,-9.88584492295358"/><text text-anchor="middle" pointer-events="none" font-size="8px" fill="#000000" x="48.068001546305844" y="-6.820164259184523" transform="rotate(180 48.068001546305844 -9.820164259184523)" font-family="sans-serif">road</text></g><g class="relationship" transform="translate(329.15186226841627 -106.6657412633711) rotate(193.56003671482057)"><path class="outline" fill="#A5ABB6" stroke="none" d="M 21.40063509461097,-12.933012701892217 L 21.90063509461097,-12.06698729810778 A 65.3392605648851 65.3392605648851 0 0 1 30.19312999458991,-16.103093598177885 L 29.820044422887488,-17.0308905351137 A 66.3392605648851 66.3392605648851 0 0 0 21.40063509461097,-12.933012701892217 Z M 75.65230110120105,-18.381808086039513 L 75.33450986348402,-17.433647377493607 A 65.3392605648851 65.3392605648851 0 0 1 83.85033239427538,-13.892970555795758 L 82.50596148630596,-11.211055780526891 L 90.33219535456432,-11.203090899745234 L 85.64282693823462,-17.468856922820912 L 84.2984560302652,-14.786942147552045 A 66.3392605648851 66.3392605648851 0 0 0 75.65230110120105,-18.381808086039513"/><text text-anchor="middle" pointer-events="none" font-size="8px" fill="#000000" x="52.63047869341621" y="-18.292206700183158" transform="rotate(180 52.63047869341621 -21.292206700183158)" font-family="sans-serif">twowheeler</text></g><g class="relationship" transform="translate(219.61139902679182 -133.08550674445613) rotate(497.17041965234296)"><path class="outline" fill="#A5ABB6" stroke="none" d="M 21.40063509461097,12.933012701892217 L 21.90063509461097,12.06698729810778 A 87.28815718310071 87.28815718310071 0 0 0 52.47115617592281,22.7767857846425 L 52.32138147644308,23.765505936857352 A 88.28815718310071 88.28815718310071 0 0 1 21.40063509461097,12.933012701892217 Z M 74.39364127424328,24.316809325956314 L 74.29341347619636,23.321844809755518 A 87.28815718310071 87.28815718310071 0 0 0 105.36048297344801,14.151581146258874 L 103.99205784320611,11.481859688330644 L 111.81790389698753,11.403542752015815 L 107.18504981377055,17.71120975682985 L 105.81662468352864,15.04148829890162 A 88.28815718310071 88.28815718310071 0 0 1 74.39364127424328,24.316809325956314"/><text text-anchor="middle" pointer-events="none" font-size="8px" fill="#000000" x="63.352694413956925" y="27.234011920452943" transform="rotate(180 63.352694413956925 24.234011920452943)" font-family="sans-serif">road</text></g><g class="relationship" transform="translate(121.29051757843271 -41.94503966528759) rotate(192.01012497545162)"><path class="outline" fill="#A5ABB6" stroke="none" d="M 25 0.5 L 50.066153633715714 0.5 L 50.066153633715714 -0.5 L 25 -0.5 Z M 69.40209113371571 0.5 L 94.46824476743143 0.5 L 94.46824476743143 3.5 L 101.46824476743143 0 L 94.46824476743143 -3.5 L 94.46824476743143 -0.5 L 69.40209113371571 -0.5 Z"/><text text-anchor="middle" pointer-events="none" font-size="8px" fill="#000000" x="59.734122383715714" y="3" transform="rotate(180 59.734122383715714 0)" font-family="sans-serif">trek</text></g><g class="relationship" transform="translate(333.88070981322426 -3.523321360850082) rotate(267.37495587713806)"><path class="outline" fill="#A5ABB6" stroke="none" d="M 24.018736134675446,6.953439040707552 L 24.277555179777966,5.987513214418485 A 98.19848849762278 98.19848849762278 0 0 0 38.48167163357277,8.691424905629248 L 38.36749958529382,9.684885898014855 A 99.19848849762278 99.19848849762278 0 0 1 24.018736134675446,6.953439040707552 Z M 57.767697625354366,10.004377463627122 L 57.68630018125617,9.007695741062548 A 98.19848849762278 98.19848849762278 0 0 0 71.97174853977378,6.772963573004209 L 71.29113049735648,3.8511902963217026 L 78.90265585910252,5.671817020144239 L 72.87923926299686,10.668661275247551 L 72.19862122057955,7.746887998565044 A 99.19848849762278 99.19848849762278 0 0 1 57.767697625354366,10.004377463627122"/><text text-anchor="middle" pointer-events="none" font-size="8px" fill="#000000" x="48.06800154630588" y="12.820164259184523" transform="rotate(180 48.06800154630588 9.820164259184523)" font-family="sans-serif">trek</text></g><g class="relationship" transform="translate(329.15186226841627 -106.6657412633711) rotate(193.56003671482057)"><path class="outline" fill="#A5ABB6" stroke="none" d="M 25 0.5 L 41.83488319923576 0.5 L 41.83488319923576 -0.5 L 25 -0.5 Z M 63.84660194923576 0.5 L 80.68148514847152 0.5 L 80.68148514847152 3.5 L 87.68148514847152 0 L 80.68148514847152 -3.5 L 80.68148514847152 -0.5 L 63.84660194923576 -0.5 Z"/><text text-anchor="middle" pointer-events="none" font-size="8px" fill="#000000" x="52.84074257423576" y="3" transform="rotate(180 52.84074257423576 0)" font-family="sans-serif">road</text></g><g class="relationship" transform="translate(329.15186226841627 -106.6657412633711) rotate(193.56003671482057)"><path class="outline" fill="#A5ABB6" stroke="none" d="M 21.40063509461097,12.933012701892217 L 21.90063509461097,12.06698729810778 A 65.3392605648851 65.3392605648851 0 0 0 43.109973011331455,19.807888400103508 L 42.93457628558581,20.792386235854153 A 66.3392605648851 66.3392605648851 0 0 1 21.40063509461097,12.933012701892217 Z M 62.33898740113053,21.36433624314614 L 62.2218814527385,20.371216815860976 A 65.3392605648851 65.3392605648851 0 0 0 83.85033239427538,13.892970555795758 L 82.50596148630596,11.211055780526891 L 90.33219535456432,11.203090899745234 L 85.64282693823462,17.468856922820912 L 84.2984560302652,14.786942147552045 A 66.3392605648851 66.3392605648851 0 0 1 62.33898740113053,21.36433624314614"/><text text-anchor="middle" pointer-events="none" font-size="8px" fill="#000000" x="52.6304786934162" y="24.292206700183158" transform="rotate(180 52.6304786934162 21.292206700183158)" font-family="sans-serif">trek</text></g><g class="relationship" transform="translate(219.61139902679182 -133.08550674445613) rotate(497.17041965234296)"><path class="outline" fill="#A5ABB6" stroke="none" d="M 25 0.5 L 40.30036948152805 0.5 L 40.30036948152805 -0.5 L 25 -0.5 Z M 86.76521323152805 0.5 L 102.0655827130561 0.5 L 102.0655827130561 3.5 L 109.0655827130561 0 L 102.0655827130561 -3.5 L 102.0655827130561 -0.5 L 86.76521323152805 -0.5 Z"/><text text-anchor="middle" pointer-events="none" font-size="8px" fill="#000000" x="63.53279135652805" y="3" transform="rotate(180 63.53279135652805 0)" font-family="sans-serif">twowheeler</text></g><g class="relationship" transform="translate(219.61139902679182 -133.08550674445613) rotate(497.17041965234296)"><path class="outline" fill="#A5ABB6" stroke="none" d="M 21.40063509461097,-12.933012701892217 L 21.90063509461097,-12.06698729810778 A 87.28815718310071 87.28815718310071 0 0 1 53.787888828176456,-22.96599683450745 L 53.65319902331183,-23.956884646757416 A 88.28815718310071 88.28815718310071 0 0 0 21.40063509461097,-12.933012701892217 Z M 73.05393017839624,-24.441460713493527 L 72.96887668162134,-23.44508432743936 A 87.28815718310071 87.28815718310071 0 0 1 105.36048297344801,-14.151581146258874 L 103.99205784320611,-11.481859688330644 L 111.81790389698753,-11.403542752015815 L 107.18504981377055,-17.71120975682985 L 105.81662468352864,-15.04148829890162 A 88.28815718310071 88.28815718310071 0 0 0 73.05393017839624,-24.441460713493527"/><text text-anchor="middle" pointer-events="none" font-size="8px" fill="#000000" x="63.352694413956904" y="-21.234011920452943" transform="rotate(180 63.352694413956904 -24.234011920452943)" font-family="sans-serif">trek</text></g><g class="relationship" transform="translate(333.88070981322426 -3.523321360850082) rotate(205.64485989745253)"><path class="outline" fill="#A5ABB6" stroke="none" d="M 21.40063509461097,12.933012701892217 L 21.90063509461097,12.06698729810778 A 74.03181544670534 74.03181544670534 0 0 0 47.32463355783528,21.07220689621917 L 47.1680534552107,22.059872159080072 A 75.03181544670534 75.03181544670534 0 0 1 21.40063509461097,12.933012701892217 Z M 66.57181861684722,22.593825611958437 L 66.46979155335012,21.599043988528365 A 74.03181544670534 74.03181544670534 0 0 0 92.35055175368812,14.005630439877027 L 90.99570146125703,11.328994363549246 L 98.82184431385812,11.29041910359244 L 94.15701881026291,17.5744785416474 L 92.80216851783182,14.89784246531962 A 75.03181544670534 75.03181544670534 0 0 1 66.57181861684722,22.593825611958437"/><text text-anchor="middle" pointer-events="none" font-size="8px" fill="#000000" x="56.866349949387214" y="25.45716658019971" transform="rotate(180 56.866349949387214 22.45716658019971)" font-family="sans-serif">trek</text></g><g class="relationship" transform="translate(224.68532179615084 -55.94614539313994) rotate(209.3483159972987)"><path class="outline" fill="#A5ABB6" stroke="none" d="M 24.018736134675446,-6.953439040707552 L 24.277555179777966,-5.987513214418485 A 190.18702612579256 190.18702612579256 0 0 1 48.20269193841183,-10.777826000851206 L 48.0696708367653,-11.768939206553114 A 191.18702612579256 191.18702612579256 0 0 0 24.018736134675446,-6.953439040707552 Z M 94.53806470323535,-12.307122779435872 L 94.42803377981458,-11.31319461508437 A 190.18702612579256 190.18702612579256 0 0 1 118.45769812016282,-7.078280542592426 L 117.74856270703714,-4.163297358103863 L 125.37751478615708,-5.909461776047282 L 119.40321200433038,-10.964924788577175 L 118.6940765912047,-8.049941604088612 A 191.18702612579256 191.18702612579256 0 0 0 94.53806470323535,-12.307122779435872"/><text text-anchor="middle" pointer-events="none" font-size="8px" fill="#000000" x="71.29324548353631" y="-9.955191263286764" transform="rotate(180 71.29324548353631 -12.955191263286764)" font-family="sans-serif">twowheeler</text></g><g class="relationship" transform="translate(94.22536211119872 -129.301587247952) rotate(221.04206856202694)"><path class="outline" fill="#A5ABB6" stroke="none" d="M 24.018736134675446,-6.953439040707552 L 24.277555179777966,-5.987513214418485 A 101.99109691900541 101.99109691900541 0 0 1 39.425850754840106,-8.840535493535327 L 39.31555737553263,-9.834434568130405 A 102.99109691900541 102.99109691900541 0 0 0 24.018736134675446,-6.953439040707552 Z M 58.71447990646545,-10.148499241171734 L 58.63641795107649,-9.151550731407625 A 101.99109691900541 101.99109691900541 0 0 1 73.86913009109924,-6.790390886376468 L 73.18688417066743,-3.868997296999276 L 80.79942278638465,-5.685382670265105 L 74.77879131834165,-10.685582338879389 L 74.09654539790984,-7.764188749502198 A 102.99109691900541 102.99109691900541 0 0 0 58.71447990646545,-10.148499241171734"/><text text-anchor="middle" pointer-events="none" font-size="8px" fill="#000000" x="49.01570056586169" y="-6.949346256523114" transform="rotate(180 49.01570056586169 -9.949346256523114)" font-family="sans-serif">trek</text></g><g class="relationship" transform="translate(14.922568825487808 -198.34074560136827) rotate(457.5894775909035)"><path class="outline" fill="#A5ABB6" stroke="none" d="M 24.018736134675446,6.953439040707552 L 24.277555179777966,5.987513214418485 A 153.8403403169918 153.8403403169918 0 0 0 39.0297294016756,9.173918588755186 L 38.86680311260508,10.160556832657022 A 154.8403403169918 154.8403403169918 0 0 1 24.018736134675446,6.953439040707552 Z M 85.30233266390563,10.770226907450137 L 85.16536598286102,9.77965125244765 A 153.8403403169918 153.8403403169918 0 0 0 99.9961117802783,6.98165150705611 L 99.296001265427,4.064487598909254 L 106.91951265176286,5.834254290427542 L 100.92959246674671,10.871203384585252 L 100.22948195189541,7.954039476438396 A 154.8403403169918 154.8403403169918 0 0 1 85.30233266390563,10.770226907450137"/><text text-anchor="middle" pointer-events="none" font-size="8px" fill="#000000" x="62.06814561211186" y="14.716194756220176" transform="rotate(180 62.06814561211186 11.716194756220176)" font-family="sans-serif">twowheeler</text></g><g class="relationship" transform="translate(333.88070981322426 -3.523321360850082) rotate(205.64485989745253)"><path class="outline" fill="#A5ABB6" stroke="none" d="M 25 0.5 L 46.05771309996148 0.5 L 46.05771309996148 -0.5 L 25 -0.5 Z M 68.06943184996149 0.5 L 89.12714494992296 0.5 L 89.12714494992296 3.5 L 96.12714494992296 0 L 89.12714494992296 -3.5 L 89.12714494992296 -0.5 L 68.06943184996149 -0.5 Z"/><text text-anchor="middle" pointer-events="none" font-size="8px" fill="#000000" x="57.06357247496148" y="3" transform="rotate(180 57.06357247496148 0)" font-family="sans-serif">road</text></g><g class="relationship" transform="translate(333.88070981322426 -3.523321360850082) rotate(205.64485989745253)"><path class="outline" fill="#A5ABB6" stroke="none" d="M 21.40063509461097,-12.933012701892217 L 21.90063509461097,-12.06698729810778 A 74.03181544670534 74.03181544670534 0 0 1 27.274155018205906,-14.882389718413947 L 26.846738945685885,-15.786444750451025 A 75.03181544670534 75.03181544670534 0 0 0 21.40063509461097,-12.933012701892217 Z M 87.20738361768812,-17.44745097125923 L 86.83033235441675,-16.52125858041083 A 74.03181544670534 74.03181544670534 0 0 1 92.35055175368812,-14.005630439877027 L 90.99570146125703,-11.328994363549246 L 98.82184431385812,-11.29041910359244 L 94.15701881026291,-17.5744785416474 L 92.80216851783182,-14.89784246531962 A 75.03181544670534 75.03181544670534 0 0 0 87.20738361768812,-17.44745097125923"/><text text-anchor="middle" pointer-events="none" font-size="8px" fill="#000000" x="56.866349949387214" y="-19.45716658019971" transform="rotate(180 56.866349949387214 -22.45716658019971)" font-family="sans-serif">PublicTransport</text></g><g class="relationship" transform="translate(224.68532179615084 -55.94614539313994) rotate(209.3483159972987)"><path class="outline" fill="#A5ABB6" stroke="none" d="M 24.018736134675446,6.953439040707552 L 24.277555179777966,5.987513214418485 A 190.18702612579256 190.18702612579256 0 0 0 61.66402483873051,12.099227006626961 L 61.60178318600083,13.097288115309937 A 191.18702612579256 191.18702612579256 0 0 1 24.018736134675446,6.953439040707552 Z M 80.97881717230027,13.321707349867182 L 80.93970762783339,12.322472420768122 A 190.18702612579256 190.18702612579256 0 0 0 118.45769812016282,7.078280542592426 L 117.74856270703714,4.163297358103863 L 125.37751478615708,5.909461776047282 L 119.40321200433038,10.964924788577175 L 118.6940765912047,8.049941604088612 A 191.18702612579256 191.18702612579256 0 0 1 80.97881717230027,13.321707349867182"/><text text-anchor="middle" pointer-events="none" font-size="8px" fill="#000000" x="71.29324548353634" y="15.955191263286764" transform="rotate(180 71.29324548353634 12.955191263286764)" font-family="sans-serif">trek</text></g><g class="relationship" transform="translate(224.68532179615084 -55.94614539313994) rotate(532.2882566945409)"><path class="outline" fill="#A5ABB6" stroke="none" d="M 25 0.5 L 39.00126667860956 0.5 L 39.00126667860956 -0.5 L 25 -0.5 Z M 58.33720417860956 0.5 L 72.33847085721912 0.5 L 72.33847085721912 3.5 L 79.33847085721912 0 L 72.33847085721912 -3.5 L 72.33847085721912 -0.5 L 58.33720417860956 -0.5 Z"/><text text-anchor="middle" pointer-events="none" font-size="8px" fill="#000000" x="48.66923542860956" y="3" transform="rotate(180 48.66923542860956 0)" font-family="sans-serif">trek</text></g><g class="relationship" transform="translate(276.25522400203215 400.08919134718593) rotate(212.80148130487862)"><path class="outline" fill="#A5ABB6" stroke="none" d="M 21.40063509461097,12.933012701892217 L 21.90063509461097,12.06698729810778 A 65.60762649981137 65.60762649981137 0 0 0 43.23975023550471,19.847268921728386 L 43.06500381164125,20.83188239276508 A 66.60762649981137 66.60762649981137 0 0 1 21.40063509461097,12.933012701892217 Z M 62.469423838621736,21.402582065011345 L 62.35284596455311,20.409400510975217 A 65.60762649981137 65.60762649981137 0 0 0 84.11232974420119,13.896683506344923 L 82.76761345272999,11.2149418902581 L 90.59384623031563,11.205969095593273 L 85.90528479949612,17.472338994460685 L 84.56056850802491,14.790597378373862 A 66.60762649981137 66.60762649981137 0 0 1 62.469423838621736,21.402582065011345"/><text text-anchor="middle" pointer-events="none" font-size="8px" fill="#000000" x="52.76100998371254" y="24.328169698328594" transform="rotate(180 52.76100998371254 21.328169698328594)" font-family="sans-serif">trek</text></g><g class="relationship" transform="translate(181.32179049304364 338.905294553079) rotate(209.38818697968338)"><path class="outline" fill="#A5ABB6" stroke="none" d="M 24.018736134675446,-6.953439040707552 L 24.277555179777966,-5.987513214418485 A 199.9333949074109 199.9333949074109 0 0 1 50.6737621082183,-11.186429081604416 L 50.5469680654455,-12.178358146970169 A 200.9333949074109 200.9333949074109 0 0 0 24.018736134675446,-6.953439040707552 Z M 97.02055987074333,-12.700061463793816 L 96.91606537222256,-11.705535999173179 A 199.9333949074109 199.9333949074109 0 0 1 123.4223295994145,-7.100492772296393 L 122.71111968742038,-4.186015038450874 L 130.3413126303864,-5.926749266617694 L 124.37060948207333,-10.986463084090419 L 123.65939957007922,-8.0719853502449 A 200.9333949074109 200.9333949074109 0 0 0 97.02055987074333,-12.700061463793816"/><text text-anchor="middle" pointer-events="none" font-size="8px" fill="#000000" x="73.77424178680143" y="-10.287450466760902" transform="rotate(180 73.77424178680143 -13.287450466760902)" font-family="sans-serif">twowheeler</text></g><g class="relationship" transform="translate(46.59154748192992 263.0252976465599) rotate(524.6438816227469)"><path class="outline" fill="#A5ABB6" stroke="none" d="M 24.018736134675446,-6.953439040707552 L 24.277555179777966,-5.987513214418485 A 106.79764470284788 106.79764470284788 0 0 1 27.324853149539763,-6.756162105268217 L 27.09456748621959,-7.729285177273596 A 107.79764470284788 107.79764470284788 0 0 0 24.018736134675446,-6.953439040707552 Z M 73.40621725498508,-8.463298091477 L 73.20688639100146,-7.483365845521419 A 106.79764470284788 106.79764470284788 0 0 1 76.2770129204257,-6.811674601537799 L 75.59277891730984,-3.8907460113493912 L 83.20655196471797,-5.701950025965522 L 77.18932492458019,-10.706246055122344 L 76.50509092146433,-7.785317464933936 A 107.79764470284788 107.79764470284788 0 0 0 73.40621725498508,-8.463298091477"/><text text-anchor="middle" pointer-events="none" font-size="8px" fill="#000000" x="50.21842743226313" y="-7.113080440948252" transform="rotate(180 50.21842743226313 -10.113080440948252)" font-family="sans-serif">twowheeler</text></g><g class="relationship" transform="translate(-57.11646515117441 291.50580759394234) rotate(403.94456322773)"><path class="outline" fill="#A5ABB6" stroke="none" d="M 24.018736134675446,6.953439040707552 L 24.277555179777966,5.987513214418485 A 88.71128697652841 88.71128697652841 0 0 0 25.488119693266885,6.302752009112254 L 25.242946764174487,7.272231371883976 A 89.71128697652841 89.71128697652841 0 0 1 24.018736134675446,6.953439040707552 Z M 66.22716343618484,7.977472394512304 L 66.01549065440551,7.00013180216294 A 88.71128697652841 88.71128697652841 0 0 0 67.2361842884356,6.726729185428881 L 66.55988505284222,3.8039532200261585 L 74.16871141364085,5.635826963278127 L 68.1379166025601,10.623763805965844 L 67.46161736696672,7.700987840563122 A 89.71128697652841 89.71128697652841 0 0 1 66.22716343618484,7.977472394512304"/><text text-anchor="middle" pointer-events="none" font-size="8px" fill="#000000" x="45.70283863694019" y="12.497072113512601" font-family="sans-serif">twowhe…</text></g><g class="relationship" transform="translate(276.25522400203215 400.08919134718593) rotate(212.80148130487862)"><path class="outline" fill="#A5ABB6" stroke="none" d="M 25 0.5 L 41.96498714051957 0.5 L 41.96498714051957 -0.5 L 25 -0.5 Z M 63.97670589051957 0.5 L 80.94169303103914 0.5 L 80.94169303103914 3.5 L 87.94169303103914 0 L 80.94169303103914 -3.5 L 80.94169303103914 -0.5 L 63.97670589051957 -0.5 Z"/><text text-anchor="middle" pointer-events="none" font-size="8px" fill="#000000" x="52.97084651551957" y="3" transform="rotate(180 52.97084651551957 0)" font-family="sans-serif">road</text></g><g class="relationship" transform="translate(276.25522400203215 400.08919134718593) rotate(212.80148130487862)"><path class="outline" fill="#A5ABB6" stroke="none" d="M 21.40063509461097,-12.933012701892217 L 21.90063509461097,-12.06698729810778 A 65.60762649981137 65.60762649981137 0 0 1 23.463951959655205,-12.941334264928251 L 22.987780239208174,-13.820686579217877 A 66.60762649981137 66.60762649981137 0 0 0 21.40063509461097,-12.933012701892217 Z M 82.92399745186012,-15.583459157392426 L 82.50032901342053,-14.67764181693677 A 65.60762649981137 65.60762649981137 0 0 1 84.11232974420119,-13.896683506344923 L 82.76761345272999,-11.2149418902581 L 90.59384623031563,-11.205969095593273 L 85.90528479949612,-17.472338994460685 L 84.56056850802491,-14.790597378373862 A 66.60762649981137 66.60762649981137 0 0 0 82.92399745186012,-15.583459157392426"/><text text-anchor="middle" pointer-events="none" font-size="8px" fill="#000000" x="52.76100998371253" y="-18.328169698328594" transform="rotate(180 52.76100998371253 -21.328169698328594)" font-family="sans-serif">PublicTransport</text></g><g class="relationship" transform="translate(181.32179049304364 338.905294553079) rotate(209.38818697968338)"><path class="outline" fill="#A5ABB6" stroke="none" d="M 24.018736134675446,6.953439040707552 L 24.277555179777966,5.987513214418485 A 199.9333949074109 199.9333949074109 0 0 0 64.14296011189602,12.446743430017136 L 64.08353449454268,13.444976166407884 A 200.9333949074109 200.9333949074109 0 0 1 24.018736134675446,6.953439040707552 Z M 83.45897070886542,13.662480967419725 L 83.42196916823814,12.663165758893825 A 199.9333949074109 199.9333949074109 0 0 0 123.4223295994145,7.100492772296393 L 122.71111968742038,4.186015038450874 L 130.3413126303864,5.926749266617694 L 124.37060948207333,10.986463084090419 L 123.65939957007922,8.0719853502449 A 200.9333949074109 200.9333949074109 0 0 1 83.45897070886542,13.662480967419725"/><text text-anchor="middle" pointer-events="none" font-size="8px" fill="#000000" x="73.77424178680145" y="16.2874504667609" transform="rotate(180 73.77424178680145 13.287450466760902)" font-family="sans-serif">trek</text></g><g class="relationship" transform="translate(46.59154748192992 263.0252976465599) rotate(524.6438816227469)"><path class="outline" fill="#A5ABB6" stroke="none" d="M 24.018736134675446,6.953439040707552 L 24.277555179777966,5.987513214418485 A 106.79764470284788 106.79764470284788 0 0 0 40.62452278037511,9.027665997118888 L 40.51876860525245,10.022058301214273 A 107.79764470284788 107.79764470284788 0 0 1 24.018736134675446,6.953439040707552 Z M 59.916098865170504,10.329494788209203 L 59.84191098021023,9.332250506337843 A 106.79764470284788 106.79764470284788 0 0 0 76.2770129204257,6.811674601537799 L 75.59277891730984,3.8907460113493912 L 83.20655196471797,5.701950025965522 L 77.18932492458019,10.706246055122344 L 76.50509092146433,7.785317464933936 A 107.79764470284788 107.79764470284788 0 0 1 59.916098865170504,10.329494788209203"/><text text-anchor="middle" pointer-events="none" font-size="8px" fill="#000000" x="50.218427432263134" y="13.113080440948252" transform="rotate(180 50.218427432263134 10.113080440948252)" font-family="sans-serif">trek</text></g><g class="relationship" transform="translate(-57.11646515117441 291.50580759394234) rotate(403.94456322773)"><path class="outline" fill="#A5ABB6" stroke="none" d="M 24.018736134675446,-6.953439040707552 L 24.277555179777966,-5.987513214418485 A 88.71128697652841 88.71128697652841 0 0 1 36.12683930505087,-8.311720023725684 L 36.001591584738264,-9.303845524132 A 89.71128697652841 89.71128697652841 0 0 0 24.018736134675446,-6.953439040707552 Z M 55.404990238485254,-9.637731927733299 L 55.313950808009096,-8.641884639190238 A 88.71128697652841 88.71128697652841 0 0 1 67.2361842884356,-6.726729185428881 L 66.55988505284222,-3.8039532200261585 L 74.16871141364085,-5.635826963278127 L 68.1379166025601,-10.623763805965844 L 67.46161736696672,-7.700987840563122 A 89.71128697652841 89.71128697652841 0 0 0 55.404990238485254,-9.637731927733299"/><text text-anchor="middle" pointer-events="none" font-size="8px" fill="#000000" x="45.702838636940186" y="-6.497072113512601" font-family="sans-serif">trek</text></g><g class="relationship" transform="translate(181.32179049304364 338.905294553079) rotate(226.62918916555617)"><path class="outline" fill="#A5ABB6" stroke="none" d="M 25 0.5 L 32.19489775672329 0.5 L 32.19489775672329 -0.5 L 25 -0.5 Z M 51.53083525672329 0.5 L 58.725733013446586 0.5 L 58.725733013446586 3.5 L 65.72573301344659 0 L 58.725733013446586 -3.5 L 58.725733013446586 -0.5 L 51.53083525672329 -0.5 Z"/><text text-anchor="middle" pointer-events="none" font-size="8px" fill="#000000" x="41.86286650672329" y="3" transform="rotate(180 41.86286650672329 0)" font-family="sans-serif">trek</text></g><g class="relationship" transform="translate(94.22536211119872 -129.301587247952) rotate(221.04206856202694)"><path class="outline" fill="#A5ABB6" stroke="none" d="M 24.018736134675446,6.953439040707552 L 24.277555179777966,5.987513214418485 A 101.99109691900541 101.99109691900541 0 0 0 26.147428399391636,6.469619093494899 L 25.906943044935648,7.440271860601754 A 102.99109691900541 102.99109691900541 0 0 1 24.018736134675446,6.953439040707552 Z M 72.19356874150334,8.189643066265305 L 71.98463053332877,7.211714221632533 A 101.99109691900541 101.99109691900541 0 0 0 73.86913009109924,6.790390886376468 L 73.18688417066743,3.868997296999276 L 80.79942278638465,5.685382670265105 L 74.77879131834165,10.685582338879389 L 74.09654539790984,7.764188749502198 A 102.99109691900541 102.99109691900541 0 0 1 72.19356874150334,8.189643066265305"/><text text-anchor="middle" pointer-events="none" font-size="8px" fill="#000000" x="49.01570056586171" y="12.949346256523114" transform="rotate(180 49.01570056586171 9.949346256523114)" font-family="sans-serif">twowheeler</text></g><g class="relationship" transform="translate(14.922568825487808 -198.34074560136827) rotate(457.5894775909035)"><path class="outline" fill="#A5ABB6" stroke="none" d="M 24.018736134675446,-6.953439040707552 L 24.277555179777966,-5.987513214418485 A 153.8403403169918 153.8403403169918 0 0 1 52.44915320588272,-10.788110221744063 L 52.37345646776455,-11.785241107755667 A 154.8403403169918 154.8403403169918 0 0 0 24.018736134675446,-6.953439040707552 Z M 71.75768021535126,-12.039744098379288 L 71.70818849348606,-11.040969564529519 A 153.8403403169918 153.8403403169918 0 0 1 99.9961117802783,-6.98165150705611 L 99.296001265427,-4.064487598909254 L 106.91951265176286,-5.834254290427542 L 100.92959246674671,-10.871203384585252 L 100.22948195189541,-7.954039476438396 A 154.8403403169918 154.8403403169918 0 0 0 71.75768021535126,-12.039744098379288"/><text text-anchor="middle" pointer-events="none" font-size="8px" fill="#000000" x="62.06814561211185" y="-8.716194756220176" transform="rotate(180 62.06814561211185 -11.716194756220176)" font-family="sans-serif">trek</text></g><g class="relationship" transform="translate(181.32179049304364 338.905294553079) rotate(341.62666573297065)"><path class="outline" fill="#A5ABB6" stroke="none" d="M 25 0.5 L 48.860970278539874 0.5 L 48.860970278539874 -0.5 L 25 -0.5 Z M 68.19690777853987 0.5 L 92.05787805707975 0.5 L 92.05787805707975 3.5 L 99.05787805707975 0 L 92.05787805707975 -3.5 L 92.05787805707975 -0.5 L 68.19690777853987 -0.5 Z"/><text text-anchor="middle" pointer-events="none" font-size="8px" fill="#000000" x="58.528939028539874" y="3" font-family="sans-serif">trek</text></g><g class="relationship" transform="translate(224.68532179615084 -55.94614539313994) rotate(334.1029428854781)"><path class="outline" fill="#A5ABB6" stroke="none" d="M 25 0.5 L 44.8960809784745 0.5 L 44.8960809784745 -0.5 L 25 -0.5 Z M 64.2320184784745 0.5 L 84.128099456949 0.5 L 84.128099456949 3.5 L 91.128099456949 0 L 84.128099456949 -3.5 L 84.128099456949 -0.5 L 64.2320184784745 -0.5 Z"/><text text-anchor="middle" pointer-events="none" font-size="8px" fill="#000000" x="54.5640497284745" y="3" font-family="sans-serif">trek</text></g><g class="relationship" transform="translate(46.59154748192992 263.0252976465599) rotate(207.23647248286863)"><path class="outline" fill="#A5ABB6" stroke="none" d="M 24.018736134675446,-6.953439040707552 L 24.277555179777966,-5.987513214418485 A 161.78685932417665 161.78685932417665 0 0 1 41.02842873942889,-9.537812533106688 L 40.87314636986123,-10.525682659034914 A 162.78685932417665 162.78685932417665 0 0 0 24.018736134675446,-6.953439040707552 Z M 87.31833454594502,-11.118205131632408 L 87.18830403234197,-10.126695138978704 A 161.78685932417665 161.78685932417665 0 0 1 104.02429681781977,-7.004878810135844 L 103.3220168918265,-4.088236407381116 L 110.94684241191302,-5.8523327166106505 L 104.96067005247748,-10.89373534714215 L 104.2583901264842,-7.977092944387421 A 162.78685932417665 162.78685932417665 0 0 0 87.31833454594502,-11.118205131632408"/><text text-anchor="middle" pointer-events="none" font-size="8px" fill="#000000" x="64.08087651344377" y="-8.98706206279735" transform="rotate(180 64.08087651344377 -11.98706206279735)" font-family="sans-serif">twowheeler</text></g><g class="relationship" transform="translate(-73.6645909180088 201.12523595632462) rotate(439.624418588451)"><path class="outline" fill="#A5ABB6" stroke="none" d="M 21.40063509461097,12.933012701892217 L 21.90063509461097,12.06698729810778 A 43.73926507528609 43.73926507528609 0 0 0 22.780547530408146,12.561556419285672 L 22.300664750811432,13.438889034572789 A 44.73926507528609 44.73926507528609 0 0 1 21.40063509461097,12.933012701892217 Z M 62.38346006647308,14.871218498647949 L 61.967423003662645,13.961870841055934 A 43.73926507528609 43.73926507528609 0 0 0 62.88039217446092,13.531369036802971 L 61.56966202094918,10.83285343286901 L 69.39538360922546,10.922751279264556 L 64.62803237914325,17.129389842048255 L 63.31730222563151,14.430874238114292 A 44.73926507528609 44.73926507528609 0 0 1 62.38346006647308,14.871218498647949"/><text text-anchor="middle" pointer-events="none" font-size="8px" fill="#000000" x="42.19041811525396" y="21.39871929547369" font-family="sans-serif">twowhe…</text></g><g class="relationship" transform="translate(46.59154748192992 263.0252976465599) rotate(207.23647248286863)"><path class="outline" fill="#A5ABB6" stroke="none" d="M 24.018736134675446,6.953439040707552 L 24.277555179777966,5.987513214418485 A 161.78685932417665 161.78685932417665 0 0 0 54.45921749087376,11.077245715934481 L 54.38695044657756,12.074631034810125 A 162.78685932417665 162.78685932417665 0 0 1 24.018736134675446,6.953439040707552 Z M 73.76941371737912,12.321901968856196 L 73.72261425132388,11.322997664141809 A 161.78685932417665 161.78685932417665 0 0 0 104.02429681781977,7.004878810135844 L 103.3220168918265,4.088236407381116 L 110.94684241191302,5.8523327166106505 L 104.96067005247748,10.89373534714215 L 104.2583901264842,7.977092944387421 A 162.78685932417665 162.78685932417665 0 0 1 73.76941371737912,12.321901968856196"/><text text-anchor="middle" pointer-events="none" font-size="8px" fill="#000000" x="64.0808765134438" y="14.98706206279735" transform="rotate(180 64.0808765134438 11.98706206279735)" font-family="sans-serif">trek</text></g><g class="relationship" transform="translate(-73.6645909180088 201.12523595632462) rotate(439.624418588451)"><path class="outline" fill="#A5ABB6" stroke="none" d="M 25 0.5 L 31.43564744600424 0.5 L 31.43564744600424 -0.5 L 25 -0.5 Z M 53.44736619600424 0.5 L 59.88301364200848 0.5 L 59.88301364200848 3.5 L 66.88301364200848 0 L 59.88301364200848 -3.5 L 59.88301364200848 -0.5 L 53.44736619600424 -0.5 Z"/><text text-anchor="middle" pointer-events="none" font-size="8px" fill="#000000" x="42.44150682100424" y="3" font-family="sans-serif">road</text></g><g class="relationship" transform="translate(-73.6645909180088 201.12523595632462) rotate(439.624418588451)"><path class="outline" fill="#A5ABB6" stroke="none" d="M 21.40063509461097,-12.933012701892217 L 21.90063509461097,-12.06698729810778 A 43.73926507528609 43.73926507528609 0 0 1 32.768678323074965,-16.520737005998406 L 32.51715170756731,-17.48858738787117 A 44.73926507528609 44.73926507528609 0 0 0 21.40063509461097,-12.933012701892217 Z M 51.90397455014867,-18.18136136617165 L 51.72217212437776,-17.198026286972393 A 43.73926507528609 43.73926507528609 0 0 1 62.88039217446092,-13.531369036802971 L 61.56966202094918,-10.83285343286901 L 69.39538360922546,-10.922751279264556 L 64.62803237914325,-17.129389842048255 L 63.31730222563151,-14.430874238114292 A 44.73926507528609 44.73926507528609 0 0 0 51.90397455014867,-18.18136136617165"/><text text-anchor="middle" pointer-events="none" font-size="8px" fill="#000000" x="42.19041811525395" y="-15.39871929547369" font-family="sans-serif">trek</text></g><g class="relationship" transform="translate(94.22536211119872 -129.301587247952) rotate(182.97078438887922)"><path class="outline" fill="#A5ABB6" stroke="none" d="M 24.018736134675446,-6.953439040707552 L 24.277555179777966,-5.987513214418485 A 181.7450876871066 181.7450876871066 0 0 1 59.5193140053578,-11.797031979907445 L 59.454402588098574,-12.79492300998507 A 182.7450876871066 182.7450876871066 0 0 0 24.018736134675446,-6.953439040707552 Z M 78.83292249437328,-13.02568981489523 L 78.79179264862763,-12.026536005019636 A 181.7450876871066 181.7450876871066 0 0 1 114.16190196698813,-7.057890292742488 L 113.45467091136166,-4.14244448910328 L 121.08248068475069,-5.89359213022059 L 115.10487670782342,-10.94515136426143 L 114.39764565219696,-8.029705560622224 A 182.7450876871066 182.7450876871066 0 0 0 78.83292249437328,-13.02568981489523"/><text text-anchor="middle" pointer-events="none" font-size="8px" fill="#000000" x="69.14655508922515" y="-9.667406230974905" transform="rotate(180 69.14655508922515 -12.667406230974905)" font-family="sans-serif">trek</text></g><g class="relationship" transform="translate(-50.95712572306913 -136.83604787483097) rotate(316.967041316229)"><path class="outline" fill="#A5ABB6" stroke="none" d="M 21.40063509461097,12.933012701892217 L 21.90063509461097,12.06698729810778 A 41.899143354046195 41.899143354046195 0 0 0 31.90097406566902,16.224465878190912 L 31.639650519899966,17.189717143109377 A 42.899143354046195 42.899143354046195 0 0 1 21.40063509461097,12.933012701892217 Z M 51.021688586694545,17.894960693496614 L 50.83120735149548,16.913269856706826 A 41.899143354046195 41.899143354046195 0 0 0 61.10725269202565,13.493576911531667 L 59.80003890728641,10.79335615741031 L 67.62563674909869,10.893448206160333 L 62.8502044050113,17.093871250360145 L 61.54299062027206,14.393650496238786 A 42.899143354046195 42.899143354046195 0 0 1 51.021688586694545,17.894960693496614"/><text text-anchor="middle" pointer-events="none" font-size="8px" fill="#000000" x="41.3084727508796" y="21.15236827508886" font-family="sans-serif">trek</text></g><g class="relationship" transform="translate(94.22536211119872 -129.301587247952) rotate(182.97078438887922)"><path class="outline" fill="#A5ABB6" stroke="none" d="M 24.018736134675446,6.953439040707552 L 24.277555179777966,5.987513214418485 A 181.7450876871066 181.7450876871066 0 0 0 46.065726415660095,10.417649461204888 L 45.926790507500414,11.40795083625386 A 182.7450876871066 182.7450876871066 0 0 1 24.018736134675446,6.953439040707552 Z M 92.3897269332698,11.961249201535423 L 92.27441285302311,10.967920120668055 A 181.7450876871066 181.7450876871066 0 0 0 114.16190196698813,7.057890292742488 L 113.45467091136166,4.14244448910328 L 121.08248068475069,5.89359213022059 L 115.10487670782342,10.94515136426143 L 114.39764565219696,8.029705560622224 A 182.7450876871066 182.7450876871066 0 0 1 92.3897269332698,11.961249201535423"/><text text-anchor="middle" pointer-events="none" font-size="8px" fill="#000000" x="69.14655508922522" y="15.667406230974905" transform="rotate(180 69.14655508922522 12.667406230974905)" font-family="sans-serif">twowheeler</text></g><g class="relationship" transform="translate(-50.95712572306913 -136.83604787483097) rotate(316.967041316229)"><path class="outline" fill="#A5ABB6" stroke="none" d="M 25 0.5 L 30.55787880838833 0.5 L 30.55787880838833 -0.5 L 25 -0.5 Z M 52.56959755838833 0.5 L 58.12747636677666 0.5 L 58.12747636677666 3.5 L 65.12747636677666 0 L 58.12747636677666 -3.5 L 58.12747636677666 -0.5 L 52.56959755838833 -0.5 Z"/><text text-anchor="middle" pointer-events="none" font-size="8px" fill="#000000" x="41.56373818338833" y="3" font-family="sans-serif">road</text></g><g class="relationship" transform="translate(-50.95712572306913 -136.83604787483097) rotate(316.967041316229)"><path class="outline" fill="#A5ABB6" stroke="none" d="M 21.40063509461097,-12.933012701892217 L 21.90063509461097,-12.06698729810778 A 41.899143354046195 41.899143354046195 0 0 1 21.9824744631586,-12.114114384888616 L 21.48442770997933,-12.981264563143561 A 42.899143354046195 42.899143354046195 0 0 0 21.40063509461097,-12.933012701892217 Z M 61.45591280503115,-14.435684989186349 L 61.02220470322025,-13.534631559902827 A 41.899143354046195 41.899143354046195 0 0 1 61.10725269202565,-13.493576911531667 L 59.80003890728641,-10.79335615741031 L 67.62563674909869,-10.893448206160333 L 62.8502044050113,-17.093871250360145 L 61.54299062027206,-14.393650496238786 A 42.899143354046195 42.899143354046195 0 0 0 61.45591280503115,-14.435684989186349"/><text text-anchor="middle" pointer-events="none" font-size="8px" fill="#000000" x="41.3084727508796" y="-15.152368275088861" font-family="sans-serif">twowhe…</text></g><g class="relationship" transform="translate(-50.95712572306913 -136.83604787483097) rotate(489.8716032915039)"><path class="outline" fill="#A5ABB6" stroke="none" d="M 25 0.5 L 41.41714923829075 0.5 L 41.41714923829075 -0.5 L 25 -0.5 Z M 60.75308673829075 0.5 L 77.1702359765815 0.5 L 77.1702359765815 3.5 L 84.1702359765815 0 L 77.1702359765815 -3.5 L 77.1702359765815 -0.5 L 60.75308673829075 -0.5 Z"/><text text-anchor="middle" pointer-events="none" font-size="8px" fill="#000000" x="51.08511798829075" y="3" transform="rotate(180 51.08511798829075 0)" font-family="sans-serif">trek</text></g><g class="relationship" transform="translate(-120.94281613135354 -53.04975089699421) rotate(352.68720750171315)"><path class="outline" fill="#A5ABB6" stroke="none" d="M 25 0.5 L 46.584742946503816 0.5 L 46.584742946503816 -0.5 L 25 -0.5 Z M 65.92068044650381 0.5 L 87.50542339300763 0.5 L 87.50542339300763 3.5 L 94.50542339300763 0 L 87.50542339300763 -3.5 L 87.50542339300763 -0.5 L 65.92068044650381 -0.5 Z"/><text text-anchor="middle" pointer-events="none" font-size="8px" fill="#000000" x="56.252711696503816" y="3" font-family="sans-serif">trek</text></g><g class="relationship" transform="translate(-73.6645909180088 201.12523595632462) rotate(468.4216837903598)"><path class="outline" fill="#A5ABB6" stroke="none" d="M 25 0.5 L 48.57903534209631 0.5 L 48.57903534209631 -0.5 L 25 -0.5 Z M 67.91497284209632 0.5 L 91.49400818419262 0.5 L 91.49400818419262 3.5 L 98.49400818419262 0 L 91.49400818419262 -3.5 L 91.49400818419262 -0.5 L 67.91497284209632 -0.5 Z"/><text text-anchor="middle" pointer-events="none" font-size="8px" fill="#000000" x="58.24700409209631" y="3" transform="rotate(180 58.24700409209631 0)" font-family="sans-serif">trek</text></g><g class="relationship" transform="translate(-112.68970025280069 318.29097710451595) rotate(378.1968812581207)"><path class="outline" fill="#A5ABB6" stroke="none" d="M 25 0.5 L 53.41832726050174 0.5 L 53.41832726050174 -0.5 L 25 -0.5 Z M 72.75426476050174 0.5 L 101.17259202100348 0.5 L 101.17259202100348 3.5 L 108.17259202100348 0 L 101.17259202100348 -3.5 L 101.17259202100348 -0.5 L 72.75426476050174 -0.5 Z"/><text text-anchor="middle" pointer-events="none" font-size="8px" fill="#000000" x="63.08629601050174" y="3" font-family="sans-serif">trek</text></g></g><g class="layer nodes"><g class="node" transform="translate(276.25522400203215,400.08919134718593)"><circle class="outline" cx="0" cy="0" r="25" fill="#F16667" stroke="#eb2728" stroke-width="2px"/><text text-anchor="middle" pointer-events="none" font-family="sans-serif" dy="1.5625" font-size="25" fill="#FFFFFF"/><text text-anchor="middle" pointer-events="none" x="0" y="5" font-size="10px" fill="#FFFFFF" font-family="sans-serif"> Darjeeling</text></g><g class="node" transform="translate(13.82280409104227,359.8785414746706)"><circle class="outline" cx="0" cy="0" r="25" fill="#8DCC93" stroke="#5db665" stroke-width="2px"/><text text-anchor="middle" pointer-events="none" font-family="sans-serif" dy="1.5625" font-size="25" fill="#2A2C34"/><text text-anchor="middle" pointer-events="none" x="0" y="5" font-size="10px" fill="#2A2C34" font-family="sans-serif"> Sandak…</text></g><g class="node" transform="translate(333.88070981322426,-3.523321360850082)"><circle class="outline" cx="0" cy="0" r="25" fill="#F16667" stroke="#eb2728" stroke-width="2px"/><text text-anchor="middle" pointer-events="none" font-family="sans-serif" dy="1.5625" font-size="25" fill="#FFFFFF"/><text text-anchor="middle" pointer-events="none" x="0" y="5" font-size="10px" fill="#FFFFFF" font-family="sans-serif"> Darjeeling</text></g><g class="node" transform="translate(-2.409444116230074,-68.26112621503704)"><circle class="outline" cx="0" cy="0" r="25" fill="#8DCC93" stroke="#5db665" stroke-width="2px"/><text text-anchor="middle" pointer-events="none" font-family="sans-serif" dy="1.5625" font-size="25" fill="#2A2C34"/><text text-anchor="middle" pointer-events="none" x="0" y="5" font-size="10px" fill="#2A2C34" font-family="sans-serif"> Sandak…</text></g><g class="node" transform="translate(299.0555469591442,299.80133444152256)"><circle class="outline" cx="0" cy="0" r="25" fill="#D9C8AE" stroke="#c0a378" stroke-width="2px"/><text text-anchor="middle" pointer-events="none" font-family="sans-serif" dy="1.5625" font-size="25" fill="#2A2C34"/><text text-anchor="middle" pointer-events="none" x="0" y="5" font-size="10px" fill="#2A2C34" font-family="sans-serif"> Tumbling</text></g><g class="node" transform="translate(231.14530455576661,216.8276604557155)"><circle class="outline" cx="0" cy="0" r="25" fill="#D9C8AE" stroke="#c0a378" stroke-width="2px"/><text text-anchor="middle" pointer-events="none" font-family="sans-serif" dy="1.5625" font-size="25" fill="#2A2C34"/><text text-anchor="middle" pointer-events="none" x="0" y="5" font-size="10px" fill="#2A2C34" font-family="sans-serif"> Gairibus</text></g><g class="node" transform="translate(119.01886276851168,272.95452634088196)"><circle class="outline" cx="0" cy="0" r="25" fill="#D9C8AE" stroke="#c0a378" stroke-width="2px"/><text text-anchor="middle" pointer-events="none" font-family="sans-serif" dy="1.5625" font-size="25" fill="#2A2C34"/><text text-anchor="middle" pointer-events="none" x="0" y="5" font-size="10px" fill="#2A2C34" font-family="sans-serif"> BhikeBh…</text></g><g class="node" transform="translate(329.15186226841627,-106.6657412633711)"><circle class="outline" cx="0" cy="0" r="25" fill="#D9C8AE" stroke="#c0a378" stroke-width="2px"/><text text-anchor="middle" pointer-events="none" font-family="sans-serif" dy="1.5625" font-size="25" fill="#2A2C34"/><text text-anchor="middle" pointer-events="none" x="0" y="5" font-size="10px" fill="#2A2C34" font-family="sans-serif"> Tumbling</text></g><g class="node" transform="translate(219.61139902679182,-133.08550674445613)"><circle class="outline" cx="0" cy="0" r="25" fill="#D9C8AE" stroke="#c0a378" stroke-width="2px"/><text text-anchor="middle" pointer-events="none" font-family="sans-serif" dy="1.5625" font-size="25" fill="#2A2C34"/><text text-anchor="middle" pointer-events="none" x="0" y="5" font-size="10px" fill="#2A2C34" font-family="sans-serif"> Gairibus</text></g><g class="node" transform="translate(121.29051757843271,-41.94503966528759)"><circle class="outline" cx="0" cy="0" r="25" fill="#D9C8AE" stroke="#c0a378" stroke-width="2px"/><text text-anchor="middle" pointer-events="none" font-family="sans-serif" dy="1.5625" font-size="25" fill="#2A2C34"/><text text-anchor="middle" pointer-events="none" x="0" y="5" font-size="10px" fill="#2A2C34" font-family="sans-serif"> BhikeBh…</text></g><g class="node" transform="translate(224.68532179615084,-55.94614539313994)"><circle class="outline" cx="0" cy="0" r="25" fill="#F16667" stroke="#eb2728" stroke-width="2px"/><text text-anchor="middle" pointer-events="none" font-family="sans-serif" dy="1.5625" font-size="25" fill="#FFFFFF"/><text text-anchor="middle" pointer-events="none" x="0" y="5" font-size="10px" fill="#FFFFFF" font-family="sans-serif"> Rimbik</text></g><g class="node" transform="translate(94.22536211119872,-129.301587247952)"><circle class="outline" cx="0" cy="0" r="25" fill="#D9C8AE" stroke="#c0a378" stroke-width="2px"/><text text-anchor="middle" pointer-events="none" font-family="sans-serif" dy="1.5625" font-size="25" fill="#2A2C34"/><text text-anchor="middle" pointer-events="none" x="0" y="5" font-size="10px" fill="#2A2C34" font-family="sans-serif"> Sirikhola</text></g><g class="node" transform="translate(14.922568825487808,-198.34074560136827)"><circle class="outline" cx="0" cy="0" r="25" fill="#D9C8AE" stroke="#c0a378" stroke-width="2px"/><text text-anchor="middle" pointer-events="none" font-family="sans-serif" dy="1.5625" font-size="25" fill="#2A2C34"/><text text-anchor="middle" pointer-events="none" x="0" y="5" font-size="10px" fill="#2A2C34" font-family="sans-serif"> Gurdum</text></g><g class="node" transform="translate(181.32179049304364,338.905294553079)"><circle class="outline" cx="0" cy="0" r="25" fill="#F16667" stroke="#eb2728" stroke-width="2px"/><text text-anchor="middle" pointer-events="none" font-family="sans-serif" dy="1.5625" font-size="25" fill="#FFFFFF"/><text text-anchor="middle" pointer-events="none" x="0" y="5" font-size="10px" fill="#FFFFFF" font-family="sans-serif"> Rimbik</text></g><g class="node" transform="translate(46.59154748192992,263.0252976465599)"><circle class="outline" cx="0" cy="0" r="25" fill="#D9C8AE" stroke="#c0a378" stroke-width="2px"/><text text-anchor="middle" pointer-events="none" font-family="sans-serif" dy="1.5625" font-size="25" fill="#2A2C34"/><text text-anchor="middle" pointer-events="none" x="0" y="5" font-size="10px" fill="#2A2C34" font-family="sans-serif"> Sirikhola</text></g><g class="node" transform="translate(-57.11646515117441,291.50580759394234)"><circle class="outline" cx="0" cy="0" r="25" fill="#D9C8AE" stroke="#c0a378" stroke-width="2px"/><text text-anchor="middle" pointer-events="none" font-family="sans-serif" dy="1.5625" font-size="25" fill="#2A2C34"/><text text-anchor="middle" pointer-events="none" x="0" y="5" font-size="10px" fill="#2A2C34" font-family="sans-serif"> Gurdum</text></g><g class="node" transform="translate(-73.6645909180088,201.12523595632462)"><circle class="outline" cx="0" cy="0" r="25" fill="#D9C8AE" stroke="#c0a378" stroke-width="2px"/><text text-anchor="middle" pointer-events="none" font-family="sans-serif" dy="1.5625" font-size="25" fill="#2A2C34"/><text text-anchor="middle" pointer-events="none" x="0" y="5" font-size="10px" fill="#2A2C34" font-family="sans-serif"> Rammam</text></g><g class="node" transform="translate(-50.95712572306913,-136.83604787483097)"><circle class="outline" cx="0" cy="0" r="25" fill="#D9C8AE" stroke="#c0a378" stroke-width="2px"/><text text-anchor="middle" pointer-events="none" font-family="sans-serif" dy="1.5625" font-size="25" fill="#2A2C34"/><text text-anchor="middle" pointer-events="none" x="0" y="5" font-size="10px" fill="#2A2C34" font-family="sans-serif"> Rammam</text></g><g class="node" transform="translate(-120.94281613135354,-53.04975089699421)"><circle class="outline" cx="0" cy="0" r="25" fill="#8DCC93" stroke="#5db665" stroke-width="2px"/><text text-anchor="middle" pointer-events="none" font-family="sans-serif" dy="1.5625" font-size="25" fill="#2A2C34"/><text text-anchor="middle" pointer-events="none" x="0" y="5" font-size="10px" fill="#2A2C34" font-family="sans-serif"> Sabargr…</text></g><g class="node" transform="translate(-112.68970025280069,318.29097710451595)"><circle class="outline" cx="0" cy="0" r="25" fill="#8DCC93" stroke="#5db665" stroke-width="2px"/><text text-anchor="middle" pointer-events="none" font-family="sans-serif" dy="1.5625" font-size="25" fill="#2A2C34"/><text text-anchor="middle" pointer-events="none" x="0" y="5" font-size="10px" fill="#2A2C34" font-family="sans-serif"> Sabargr…</text></g></g></svg>