<svg xmlns="http://www.w3.org/2000/svg" width="58" height="160.52041625976562" viewBox="71 19.739795684814453 58 160.52041625976562"><title>Neo4j Graph Visualization</title><desc>Created using Neo4j (http://www.neo4j.com/)</desc><g class="layer relationships"><g class="relationship" transform="translate(100 151.26020460899477) rotate(270)"><path class="outline" fill="#A5ABB6" stroke="none" d="M 21.40063509461097,12.933012701892217 L 21.90063509461097,12.06698729810778 A 54.827231036560654 54.827231036560654 0 0 0 22.05916160916921,12.158160455151055 L 21.562052992001444,13.02584877634569 A 55.827231036560654 55.827231036560654 0 0 1 21.40063509461097,12.933012701892217 Z M 73.88925490656013,14.712539171979081 L 73.44905746460613,13.814638168473039 A 54.827231036560654 54.827231036560654 0 0 0 73.61312646754547,13.733863403492192 L 72.28355672299001,11.044580172896582 L 80.10971562969446,11.079747871295412 L 75.38588612695274,17.31957437761967 L 74.05631638239728,14.630291147024062 A 55.827231036560654 55.827231036560654 0 0 1 73.88925490656013,14.712539171979081"/><text text-anchor="middle" pointer-events="none" font-size="8px" fill="#000000" x="47.53178444181999" y="22.883723308200373" font-family="sans-serif">FLIGHT_TI…</text></g><g class="relationship" transform="translate(100 151.26020460899477) rotate(270)"><path class="outline" fill="#A5ABB6" stroke="none" d="M 25 0.5 L 26.537548358995608 0.5 L 26.537548358995608 -0.5 L 25 -0.5 Z M 68.98286085899561 0.5 L 70.52040921799122 0.5 L 70.52040921799122 3.5 L 77.52040921799122 0 L 70.52040921799122 -3.5 L 70.52040921799122 -0.5 L 68.98286085899561 -0.5 Z"/><text text-anchor="middle" pointer-events="none" font-size="8px" fill="#000000" x="47.76020460899561" y="3" font-family="sans-serif">FLIGHT…</text></g><g class="relationship" transform="translate(100 151.26020460899477) rotate(270)"><path class="outline" fill="#A5ABB6" stroke="none" d="M 21.40063509461097,-12.933012701892217 L 21.90063509461097,-12.06698729810778 A 54.827231036560654 54.827231036560654 0 0 1 22.059161609169216,-12.158160455151062 L 21.562052992001455,-13.02584877634569 A 55.827231036560654 55.827231036560654 0 0 0 21.40063509461097,-12.933012701892217 Z M 73.88925490656011,-14.712539171979088 L 73.44905746460611,-13.814638168473046 A 54.827231036560654 54.827231036560654 0 0 1 73.61312646754547,-13.733863403492192 L 72.28355672299001,-11.044580172896582 L 80.10971562969446,-11.079747871295412 L 75.38588612695274,-17.31957437761967 L 74.05631638239728,-14.630291147024062 A 55.827231036560654 55.827231036560654 0 0 0 73.88925490656011,-14.712539171979088"/><text text-anchor="middle" pointer-events="none" font-size="8px" fill="#000000" x="47.53178444181999" y="-16.883723308200373" font-family="sans-serif">FLIGHT_TI…</text></g></g><g class="layer nodes"><g class="node" transform="translate(100,151.26020460899477)"><circle class="outline" cx="0" cy="0" r="25" fill="#ECB5C9" stroke="#da7298" stroke-width="2px"/><text text-anchor="middle" pointer-events="none" font-family="sans-serif" dy="1.5625" font-size="25" fill="#2A2C34"/><text text-anchor="middle" pointer-events="none" x="0" y="5" font-size="10px" fill="#2A2C34" font-family="sans-serif"> LAX</text></g><g class="node" transform="translate(100,48.739795391003554)"><circle class="outline" cx="0" cy="0" r="25" fill="#ECB5C9" stroke="#da7298" stroke-width="2px"/><text text-anchor="middle" pointer-events="none" font-family="sans-serif" dy="1.5625" font-size="25" fill="#2A2C34"/><text text-anchor="middle" pointer-events="none" x="0" y="5" font-size="10px" fill="#2A2C34" font-family="sans-serif"> LAS</text></g></g></svg>