<svg xmlns="http://www.w3.org/2000/svg" width="383.23931884765625" height="349.9140625" viewBox="-77.03077697753906 -81.25950622558594 383.23931884765625 349.9140625"><title>Neo4j Graph Visualization</title><desc>Created using Neo4j (http://www.neo4j.com/)</desc><g class="layer relationships"><g class="relationship" transform="translate(26.37976856949026 -13.95907187356211) rotate(381.4995742982925)"><path class="outline" fill="#A5ABB6" stroke="none" d="M 24.018736134675446,-6.953439040707552 L 24.277555179777966,-5.987513214418485 A 151.46118705261404 151.46118705261404 0 0 1 50.51884424263585,-10.592960016994454 L 50.43327941251411,-11.58929262202463 A 152.46118705261404 152.46118705261404 0 0 0 24.018736134675446,-6.953439040707552 Z M 72.49618668551065,-11.881513511056284 L 72.43703988312107,-10.883264215656027 A 151.46118705261404 151.46118705261404 0 0 1 98.79109960715051,-6.974437282404607 L 98.09166290039764,-4.057111744648033 L 105.71476531304133,-5.828639222940653 L 99.72368188282101,-10.86420466608004 L 99.02424517606813,-7.946879128323466 A 152.46118705261404 152.46118705261404 0 0 0 72.49618668551065,-11.881513511056284"/><text text-anchor="middle" pointer-events="none" font-size="8px" fill="#000000" x="61.46606154332016" y="-8.63510069999026" font-family="sans-serif">road</text></g><g class="relationship" transform="translate(147.35842190948233 33.69464867517229) rotate(376.59670203401396)"><path class="outline" fill="#A5ABB6" stroke="none" d="M 21.40063509461097,-12.933012701892217 L 21.90063509461097,-12.06698729810778 A 88.74894032483765 88.74894032483765 0 0 1 41.32009888166617,-20.376349093100956 L 41.03891235387188,-21.336002226575232 A 89.74894032483765 89.74894032483765 0 0 0 21.40063509461097,-12.933012701892217 Z M 87.22404230503837,-22.477929413729797 L 86.99062520872295,-21.505552707330622 A 88.74894032483765 88.74894032483765 0 0 1 106.79700712394379,-14.166049819174384 L 105.42723633957398,-11.49701853455314 L 113.25304191878831,-11.414756536415041 L 108.62336816977019,-17.724758198669374 L 107.25359738540038,-15.055726914048131 A 89.74894032483765 89.74894032483765 0 0 0 87.22404230503837,-22.477929413729797"/><text text-anchor="middle" pointer-events="none" font-size="8px" fill="#000000" x="64.06909968974294" y="-21.4298231691686" font-family="sans-serif">twowheeler</text></g><g class="relationship" transform="translate(277.20853761559266 72.3965110874524) rotate(217.71844821846173)"><path class="outline" fill="#A5ABB6" stroke="none" d="M 21.40063509461097,12.933012701892217 L 21.90063509461097,12.06698729810778 A 43.40022013295179 43.40022013295179 0 0 0 22.63268149419714,12.480233771628981 L 22.1495488372047,13.355780935262914 A 44.40022013295179 44.40022013295179 0 0 1 21.40063509461097,12.933012701892217 Z M 62.212928042621556,14.792163588393073 L 61.79373681280777,13.884265624496685 A 43.40022013295179 43.40022013295179 0 0 0 62.55349766500128,13.524504555870637 L 61.24340621068228,10.825678814678675 L 69.06910630350235,10.917428785991643 L 64.30028627075994,17.12293887745992 L 62.99019481644094,14.424113136267957 A 44.40022013295179 44.40022013295179 0 0 1 62.212928042621556,14.792163588393073"/><text text-anchor="middle" pointer-events="none" font-size="8px" fill="#000000" x="42.02781179293798" y="21.353326321545893" transform="rotate(180 42.02781179293798 18.353326321545893)" font-family="sans-serif">twowhe…</text></g><g class="relationship" transform="translate(204.7826801832829 16.382187892288044) rotate(466.88117085260996)"><path class="outline" fill="#A5ABB6" stroke="none" d="M 25 0.5 L 59.54415822038851 0.5 L 59.54415822038851 -0.5 L 25 -0.5 Z M 78.88009572038851 0.5 L 113.42425394077702 0.5 L 113.42425394077702 3.5 L 120.42425394077702 0 L 113.42425394077702 -3.5 L 113.42425394077702 -0.5 L 78.88009572038851 -0.5 Z"/><text text-anchor="middle" pointer-events="none" font-size="8px" fill="#000000" x="69.21212697038851" y="3" transform="rotate(180 69.21212697038851 0)" font-family="sans-serif">trek</text></g><g class="relationship" transform="translate(26.37976856949026 -13.95907187356211) rotate(381.4995742982925)"><path class="outline" fill="#A5ABB6" stroke="none" d="M 24.018736134675446,6.953439040707552 L 24.277555179777966,5.987513214418485 A 151.46118705261404 151.46118705261404 0 0 0 51.847927467325725,10.701209706272834 L 51.77113771186538,11.698257013804607 A 152.46118705261404 152.46118705261404 0 0 1 24.018736134675446,6.953439040707552 Z M 71.15591175984113,11.955006309619762 L 71.1055558828771,10.956274971543706 A 151.46118705261404 151.46118705261404 0 0 0 98.79109960715051,6.974437282404607 L 98.09166290039764,4.057111744648033 L 105.71476531304133,5.828639222940653 L 99.72368188282101,10.86420466608004 L 99.02424517606813,7.946879128323466 A 152.46118705261404 152.46118705261404 0 0 1 71.15591175984113,11.955006309619762"/><text text-anchor="middle" pointer-events="none" font-size="8px" fill="#000000" x="61.466061543320144" y="14.63510069999026" font-family="sans-serif">trek</text></g><g class="relationship" transform="translate(147.35842190948233 33.69464867517229) rotate(376.59670203401396)"><path class="outline" fill="#A5ABB6" stroke="none" d="M 25 0.5 L 53.24162527031599 0.5 L 53.24162527031599 -0.5 L 25 -0.5 Z M 75.25334402031599 0.5 L 103.49496929063199 0.5 L 103.49496929063199 3.5 L 110.49496929063199 0 L 103.49496929063199 -3.5 L 103.49496929063199 -0.5 L 75.25334402031599 -0.5 Z"/><text text-anchor="middle" pointer-events="none" font-size="8px" fill="#000000" x="64.24748464531599" y="3" font-family="sans-serif">road</text></g><g class="relationship" transform="translate(147.35842190948233 33.69464867517229) rotate(376.59670203401396)"><path class="outline" fill="#A5ABB6" stroke="none" d="M 21.40063509461097,12.933012701892217 L 21.90063509461097,12.06698729810778 A 88.74894032483765 88.74894032483765 0 0 0 54.50223333581765,23.17276771087407 L 54.3695796739472,24.16393016274175 A 89.74894032483765 89.74894032483765 0 0 1 21.40063509461097,12.933012701892217 Z M 73.76990819814304,24.643603222121115 L 73.68639965849916,23.647096160527198 A 88.74894032483765 88.74894032483765 0 0 0 106.79700712394379,14.166049819174384 L 105.42723633957398,11.49701853455314 L 113.25304191878831,11.414756536415041 L 108.62336816977019,17.724758198669374 L 107.25359738540038,15.055726914048131 A 89.74894032483765 89.74894032483765 0 0 1 73.76990819814304,24.643603222121115"/><text text-anchor="middle" pointer-events="none" font-size="8px" fill="#000000" x="64.06909968974291" y="27.4298231691686" font-family="sans-serif">trek</text></g><g class="relationship" transform="translate(277.20853761559266 72.3965110874524) rotate(217.71844821846173)"><path class="outline" fill="#A5ABB6" stroke="none" d="M 25 0.5 L 31.273801031717703 0.5 L 31.273801031717703 -0.5 L 25 -0.5 Z M 53.2855197817177 0.5 L 59.559320813435406 0.5 L 59.559320813435406 3.5 L 66.5593208134354 0 L 59.559320813435406 -3.5 L 59.559320813435406 -0.5 L 53.2855197817177 -0.5 Z"/><text text-anchor="middle" pointer-events="none" font-size="8px" fill="#000000" x="42.2796604067177" y="3" transform="rotate(180 42.2796604067177 0)" font-family="sans-serif">road</text></g><g class="relationship" transform="translate(277.20853761559266 72.3965110874524) rotate(217.71844821846173)"><path class="outline" fill="#A5ABB6" stroke="none" d="M 21.40063509461097,-12.933012701892217 L 21.90063509461097,-12.06698729810778 A 43.40022013295179 43.40022013295179 0 0 1 32.608586434209016,-16.46642905148164 L 32.35531217216139,-17.43382356675668 A 44.40022013295179 44.40022013295179 0 0 0 21.40063509461097,-12.933012701892217 Z M 51.74132565894195,-18.12886562356836 L 51.557980160350304,-17.14581708552653 A 43.40022013295179 43.40022013295179 0 0 1 62.55349766500128,-13.524504555870637 L 61.24340621068228,-10.825678814678675 L 69.06910630350235,-10.917428785991643 L 64.30028627075994,-17.12293887745992 L 62.99019481644094,-14.424113136267957 A 44.40022013295179 44.40022013295179 0 0 0 51.74132565894195,-18.12886562356836"/><text text-anchor="middle" pointer-events="none" font-size="8px" fill="#000000" x="42.027811792937975" y="-15.353326321545893" transform="rotate(180 42.027811792937975 -18.353326321545893)" font-family="sans-serif">trek</text></g><g class="relationship" transform="translate(26.37976856949026 -13.95907187356211) rotate(332.5080783849511)"><path class="outline" fill="#A5ABB6" stroke="none" d="M 21.40063509461097,12.933012701892217 L 21.90063509461097,12.06698729810778 A 34.35867821809455 34.35867821809455 0 0 0 28.381548246114257,14.962110920954586 L 28.070173463602693,15.912398111658469 A 35.35867821809455 35.35867821809455 0 0 1 21.40063509461097,12.933012701892217 Z M 47.41803138385903,16.673002693683372 L 47.18221778447132,15.701204388301129 A 34.35867821809455 34.35867821809455 0 0 0 53.8704055591262,13.32378554429176 L 52.57899109362338,10.615973017861972 L 60.40387053171284,10.761787212523481 L 55.59229151312996,16.934202246198144 L 54.30087704762714,14.226389719768356 A 35.35867821809455 35.35867821809455 0 0 1 47.41803138385903,16.673002693683372"/><text text-anchor="middle" pointer-events="none" font-size="8px" fill="#000000" x="37.710664662487936" y="20.143272525149143" font-family="sans-serif">trek</text></g><g class="relationship" transform="translate(99.97954901862352 -52.259504206464804) rotate(393.2231312269873)"><path class="outline" fill="#A5ABB6" stroke="none" d="M 25 0.5 L 49.47262949925204 0.5 L 49.47262949925204 -0.5 L 25 -0.5 Z M 68.80856699925204 0.5 L 93.28119649850407 0.5 L 93.28119649850407 3.5 L 100.28119649850407 0 L 93.28119649850407 -3.5 L 93.28119649850407 -0.5 L 68.80856699925204 -0.5 Z"/><text text-anchor="middle" pointer-events="none" font-size="8px" fill="#000000" x="59.14059824925204" y="3" font-family="sans-serif">trek</text></g><g class="relationship" transform="translate(26.37976856949026 -13.95907187356211) rotate(332.5080783849511)"><path class="outline" fill="#A5ABB6" stroke="none" d="M 25 0.5 L 26.97862808431386 0.5 L 26.97862808431386 -0.5 L 25 -0.5 Z M 48.99034683431386 0.5 L 50.96897491862772 0.5 L 50.96897491862772 3.5 L 57.96897491862772 0 L 50.96897491862772 -3.5 L 50.96897491862772 -0.5 L 48.99034683431386 -0.5 Z"/><text text-anchor="middle" pointer-events="none" font-size="8px" fill="#000000" x="37.98448745931386" y="3" font-family="sans-serif">road</text></g><g class="relationship" transform="translate(26.37976856949026 -13.95907187356211) rotate(332.5080783849511)"><path class="outline" fill="#A5ABB6" stroke="none" d="M 21.40063509461097,-12.933012701892217 L 21.90063509461097,-12.06698729810778 A 34.35867821809455 34.35867821809455 0 0 1 22.75058108664543,-12.541776812603995 L 22.275318533954646,-13.421620836286511 A 35.35867821809455 35.35867821809455 0 0 0 21.40063509461097,-12.933012701892217 Z M 53.390535850081534,-14.644824818809525 L 52.98581026735034,-13.730386629163615 A 34.35867821809455 34.35867821809455 0 0 1 53.8704055591262,-13.32378554429176 L 52.57899109362338,-10.615973017861972 L 60.40387053171284,-10.761787212523481 L 55.59229151312996,-16.934202246198144 L 54.30087704762714,-14.226389719768356 A 35.35867821809455 35.35867821809455 0 0 0 53.390535850081534,-14.644824818809525"/><text text-anchor="middle" pointer-events="none" font-size="8px" fill="#000000" x="37.710664662487936" y="-14.143272525149143" font-family="sans-serif">Publi…</text></g><g class="relationship" transform="translate(99.97954901862352 -52.259504206464804) rotate(494.1373731485842)"><path class="outline" fill="#A5ABB6" stroke="none" d="M 24.018736134675446,-6.953439040707552 L 24.277555179777966,-5.987513214418485 A 191.07704559164193 191.07704559164193 0 0 1 48.428178592896145,-10.815445118389789 L 48.29575161827147,-11.80663788288706 A 192.07704559164193 192.07704559164193 0 0 0 24.018736134675446,-6.953439040707552 Z M 94.7646655979146,-12.343274591939519 L 94.65516405975677,-11.349287965700995 A 191.07704559164193 191.07704559164193 0 0 1 118.91084061825114,-7.0803662749994345 L 118.20151040826893,-4.165430486134337 L 125.83057916060007,-5.911085083185116 L 119.85661423156076,-10.966947326819565 L 119.14728402157854,-8.052011537954467 A 192.07704559164193 192.07704559164193 0 0 0 94.7646655979146,-12.343274591939519"/><text text-anchor="middle" pointer-events="none" font-size="8px" fill="#000000" x="71.51969300767823" y="-9.985532280529526" transform="rotate(180 71.51969300767823 -12.985532280529526)" font-family="sans-serif">twowheeler</text></g><g class="relationship" transform="translate(-4.562368707255095 55.4786759899784) rotate(421.3163203005008)"><path class="outline" fill="#A5ABB6" stroke="none" d="M 24.018736134675446,-6.953439040707552 L 24.277555179777966,-5.987513214418485 A 115.3649306884028 115.3649306884028 0 0 1 29.434623899176614,-7.24294134614577 L 29.22050707587257,-8.219749406093172 A 116.3649306884028 116.3649306884028 0 0 0 24.018736134675446,-6.953439040707552 Z M 75.56838418103264,-8.927750687644604 L 75.38420336577006,-7.944858309360384 A 115.3649306884028 115.3649306884028 0 0 1 80.57721225000557,-6.847535978054198 L 79.8896285350926,-3.9273940919489236 L 87.5054739367367,-5.729864290941465 L 81.49399053655621,-10.741058492861232 L 80.80640682164324,-7.820916606755956 A 116.3649306884028 116.3649306884028 0 0 0 75.56838418103264,-8.927750687644604"/><text text-anchor="middle" pointer-events="none" font-size="8px" fill="#000000" x="52.366472390309035" y="-7.404961709184704" font-family="sans-serif">twowheeler</text></g><g class="relationship" transform="translate(49.117876998793164 153.59398828529694) rotate(360.98281402208573)"><path class="outline" fill="#A5ABB6" stroke="none" d="M 24.018736134675446,6.953439040707552 L 24.277555179777966,5.987513214418485 A 118.5771691272067 118.5771691272067 0 0 0 30.22885246592459,7.418604195118704 L 30.02022265480321,8.396598879108069 A 119.5771691272067 119.5771691272067 0 0 1 24.018736134675446,6.953439040707552 Z M 76.37944598378834,9.095276744899053 L 76.20038286266052,8.111439157361374 A 118.5771691272067 118.5771691272067 0 0 0 82.19210330797081,6.860340884487699 L 81.50332353752808,3.9404808830785827 L 89.11990660633253,5.73983142035616 L 83.11047633522779,10.753487553033189 L 82.42169656478505,7.833627551624072 A 119.5771691272067 119.5771691272067 0 0 1 76.37944598378834,9.095276744899053"/><text text-anchor="middle" pointer-events="none" font-size="8px" fill="#000000" x="53.1731817304069" y="13.514411354808686" font-family="sans-serif">twowheeler</text></g><g class="relationship" transform="translate(99.97954901862352 -52.259504206464804) rotate(494.1373731485842)"><path class="outline" fill="#A5ABB6" stroke="none" d="M 24.018736134675446,6.953439040707552 L 24.277555179777966,5.987513214418485 A 191.07704559164193 191.07704559164193 0 0 0 61.8902746998698,12.131019819532241 L 61.828301484174105,13.129097632398697 A 192.07704559164193 192.07704559164193 0 0 1 24.018736134675446,6.953439040707552 Z M 81.20518449987073,13.35286758617454 L 81.16627693121235,12.353624772289407 A 191.07704559164193 191.07704559164193 0 0 0 118.91084061825114,7.0803662749994345 L 118.20151040826893,4.165430486134337 L 125.83057916060007,5.911085083185116 L 119.85661423156076,10.966947326819565 L 119.14728402157854,8.052011537954467 A 192.07704559164193 192.07704559164193 0 0 1 81.20518449987073,13.35286758617454"/><text text-anchor="middle" pointer-events="none" font-size="8px" fill="#000000" x="71.51969300767827" y="15.985532280529526" transform="rotate(180 71.51969300767827 12.985532280529526)" font-family="sans-serif">trek</text></g><g class="relationship" transform="translate(-4.562368707255095 55.4786759899784) rotate(421.3163203005008)"><path class="outline" fill="#A5ABB6" stroke="none" d="M 24.018736134675446,6.953439040707552 L 24.277555179777966,5.987513214418485 A 115.3649306884028 115.3649306884028 0 0 0 42.76628048407505,9.356823497330709 L 42.66772439924972,10.351954995246388 A 116.3649306884028 116.3649306884028 0 0 1 24.018736134675446,6.953439040707552 Z M 62.06231408851903,10.648223027631374 L 61.99419977209431,9.650545504632092 A 115.3649306884028 115.3649306884028 0 0 0 80.57721225000557,6.847535978054198 L 79.8896285350926,3.9273940919489236 L 87.5054739367367,5.729864290941465 L 81.49399053655621,10.741058492861232 L 80.80640682164324,7.820916606755956 A 116.3649306884028 116.3649306884028 0 0 1 62.06231408851903,10.648223027631374"/><text text-anchor="middle" pointer-events="none" font-size="8px" fill="#000000" x="52.36647239030905" y="13.404961709184704" font-family="sans-serif">trek</text></g><g class="relationship" transform="translate(49.117876998793164 153.59398828529694) rotate(360.98281402208573)"><path class="outline" fill="#A5ABB6" stroke="none" d="M 24.018736134675446,-6.953439040707552 L 24.277555179777966,-5.987513214418485 A 118.5771691272067 118.5771691272067 0 0 1 43.5708948906574,-9.47898221210319 L 43.474782881427714,-10.47435273692389 A 119.5771691272067 119.5771691272067 0 0 0 24.018736134675446,-6.953439040707552 Z M 62.86838308171237,-10.766632853477688 L 62.80231028307415,-9.76881804837599 A 118.5771691272067 118.5771691272067 0 0 1 82.19210330797081,-6.860340884487699 L 81.50332353752808,-3.9404808830785827 L 89.11990660633253,-5.73983142035616 L 83.11047633522779,-10.753487553033189 L 82.42169656478505,-7.833627551624072 A 119.5771691272067 119.5771691272067 0 0 0 62.86838308171237,-10.766632853477688"/><text text-anchor="middle" pointer-events="none" font-size="8px" fill="#000000" x="53.17318173040687" y="-7.514411354808686" font-family="sans-serif">trek</text></g><g class="relationship" transform="translate(99.97954901862352 -52.259504206464804) rotate(421.13596357604195)"><path class="outline" fill="#A5ABB6" stroke="none" d="M 25 0.5 L 35.905634118568756 0.5 L 35.905634118568756 -0.5 L 25 -0.5 Z M 55.241571618568756 0.5 L 66.14720573713751 0.5 L 66.14720573713751 3.5 L 73.14720573713751 0 L 66.14720573713751 -3.5 L 66.14720573713751 -0.5 L 55.241571618568756 -0.5 Z"/><text text-anchor="middle" pointer-events="none" font-size="8px" fill="#000000" x="45.573602868568756" y="3" font-family="sans-serif">trek</text></g><g class="relationship" transform="translate(-4.562368707255095 55.4786759899784) rotate(469.9171061287241)"><path class="outline" fill="#A5ABB6" stroke="none" d="M 24.018736134675446,-6.953439040707552 L 24.277555179777966,-5.987513214418485 A 146.66311391828103 146.66311391828103 0 0 1 37.22859226521216,-8.837083869205827 L 37.05807788472116,-9.822439056965948 A 147.66311391828103 147.66311391828103 0 0 0 24.018736134675446,-6.953439040707552 Z M 83.4831522344956,-10.448433633549854 L 83.33926802810956,-9.458839102869405 A 146.66311391828103 146.66311391828103 0 0 1 96.36242963022283,-6.959503913232033 L 95.66438770728845,-4.041844324824556 L 103.28664232366268,-5.817016024453082 L 97.29315219413533,-10.849716697775335 L 96.59511027120095,-7.932057109367858 A 147.66311391828103 147.66311391828103 0 0 0 83.4831522344956,-10.448433633549854"/><text text-anchor="middle" pointer-events="none" font-size="8px" fill="#000000" x="60.25259878667175" y="-8.471561036870582" transform="rotate(180 60.25259878667175 -11.471561036870582)" font-family="sans-serif">twowheeler</text></g><g class="relationship" transform="translate(-48.03077949663846 175.4469125195436) rotate(347.3227171811119)"><path class="outline" fill="#A5ABB6" stroke="none" d="M 21.40063509461097,12.933012701892217 L 21.90063509461097,12.06698729810778 A 51.767907219672814 51.767907219672814 0 0 0 23.989191797010992,13.209606675826208 L 23.52953642005201,14.097704043479489 A 52.767907219672814 52.767907219672814 0 0 1 21.40063509461097,12.933012701892217 Z M 68.88452966216573,15.600401631660297 L 68.48466652433314,14.683826773286654 A 51.767907219672814 51.767907219672814 0 0 0 70.64427424326203,13.681957200028549 L 69.31953348591531,10.990291930009922 L 77.14561666619662,11.039506311222649 L 72.41059525305766,17.27084422672005 L 71.08585449571095,14.579178956701426 A 52.767907219672814 52.767907219672814 0 0 1 68.88452966216573,15.600401631660297"/><text text-anchor="middle" pointer-events="none" font-size="8px" fill="#000000" x="46.05380276898725" y="22.473907506417248" font-family="sans-serif">twowheeler</text></g><g class="relationship" transform="translate(-4.562368707255095 55.4786759899784) rotate(469.9171061287241)"><path class="outline" fill="#A5ABB6" stroke="none" d="M 24.018736134675446,6.953439040707552 L 24.277555179777966,5.987513214418485 A 146.66311391828103 146.66311391828103 0 0 0 50.63628925986688,10.525442037293004 L 50.557193209700735,11.522309036871235 A 147.66311391828103 147.66311391828103 0 0 1 24.018736134675446,6.953439040707552 Z M 69.94311109293943,11.783708283441655 L 69.8909223735458,10.785071043214742 A 146.66311391828103 146.66311391828103 0 0 0 96.36242963022283,6.959503913232033 L 95.66438770728845,4.041844324824556 L 103.28664232366268,5.817016024453082 L 97.29315219413533,10.849716697775335 L 96.59511027120095,7.932057109367858 A 147.66311391828103 147.66311391828103 0 0 1 69.94311109293943,11.783708283441655"/><text text-anchor="middle" pointer-events="none" font-size="8px" fill="#000000" x="60.25259878667182" y="14.471561036870582" transform="rotate(180 60.25259878667182 11.471561036870582)" font-family="sans-serif">trek</text></g><g class="relationship" transform="translate(-48.03077949663846 175.4469125195436) rotate(347.3227171811119)"><path class="outline" fill="#A5ABB6" stroke="none" d="M 25 0.5 L 35.28222091650926 0.5 L 35.28222091650926 -0.5 L 25 -0.5 Z M 57.29393966650926 0.5 L 67.57616058301852 0.5 L 67.57616058301852 3.5 L 74.57616058301852 0 L 67.57616058301852 -3.5 L 67.57616058301852 -0.5 L 57.29393966650926 -0.5 Z"/><text text-anchor="middle" pointer-events="none" font-size="8px" fill="#000000" x="46.28808029150926" y="3" font-family="sans-serif">road</text></g><g class="relationship" transform="translate(-48.03077949663846 175.4469125195436) rotate(347.3227171811119)"><path class="outline" fill="#A5ABB6" stroke="none" d="M 21.40063509461097,-12.933012701892217 L 21.90063509461097,-12.06698729810778 A 51.767907219672814 51.767907219672814 0 0 1 36.58384741814718,-17.776326691724798 L 36.3674828423344,-18.752639331371213 A 52.767907219672814 52.767907219672814 0 0 0 21.40063509461097,-12.933012701892217 Z M 55.76662179034909,-19.395369871630628 L 55.61535497863582,-18.406876901663672 A 51.767907219672814 51.767907219672814 0 0 1 70.64427424326203,-13.681957200028549 L 69.31953348591531,-10.990291930009922 L 77.14561666619662,-11.039506311222649 L 72.41059525305766,-17.27084422672005 L 71.08585449571095,-14.579178956701426 A 52.767907219672814 52.767907219672814 0 0 0 55.76662179034909,-19.395369871630628"/><text text-anchor="middle" pointer-events="none" font-size="8px" fill="#000000" x="46.05380276898725" y="-16.473907506417248" font-family="sans-serif">trek</text></g><g class="relationship" transform="translate(-48.03077949663846 175.4469125195436) rotate(390.11458549354313)"><path class="outline" fill="#A5ABB6" stroke="none" d="M 25 0.5 L 50.818167588974674 0.5 L 50.818167588974674 -0.5 L 25 -0.5 Z M 70.15410508897467 0.5 L 95.97227267794935 0.5 L 95.97227267794935 3.5 L 102.97227267794935 0 L 95.97227267794935 -3.5 L 95.97227267794935 -0.5 L 70.15410508897467 -0.5 Z"/><text text-anchor="middle" pointer-events="none" font-size="8px" fill="#000000" x="60.486136338974674" y="3" font-family="sans-serif">trek</text></g><g class="relationship" transform="translate(62.66827257792015 239.65456349786223) rotate(319.89878531545816)"><path class="outline" fill="#A5ABB6" stroke="none" d="M 25 0.5 L 52.12421049752973 0.5 L 52.12421049752973 -0.5 L 25 -0.5 Z M 71.46014799752973 0.5 L 98.58435849505946 0.5 L 98.58435849505946 3.5 L 105.58435849505946 0 L 98.58435849505946 -3.5 L 98.58435849505946 -0.5 L 71.46014799752973 -0.5 Z"/><text text-anchor="middle" pointer-events="none" font-size="8px" fill="#000000" x="61.79217924752973" y="3" font-family="sans-serif">trek</text></g></g><g class="layer nodes"><g class="node" transform="translate(26.37976856949026,-13.95907187356211)"><circle class="outline" cx="0" cy="0" r="25" fill="#F16667" stroke="#eb2728" stroke-width="2px"/><text text-anchor="middle" pointer-events="none" font-family="sans-serif" dy="1.5625" font-size="25" fill="#FFFFFF"/><text text-anchor="middle" pointer-events="none" x="0" y="5" font-size="10px" fill="#FFFFFF" font-family="sans-serif"> Darjeeling</text></g><g class="node" transform="translate(162.55325978858767,155.53997490889628)"><circle class="outline" cx="0" cy="0" r="25" fill="#8DCC93" stroke="#5db665" stroke-width="2px"/><text text-anchor="middle" pointer-events="none" font-family="sans-serif" dy="1.5625" font-size="25" fill="#2A2C34"/><text text-anchor="middle" pointer-events="none" x="0" y="5" font-size="10px" fill="#2A2C34" font-family="sans-serif"> Sandak…</text></g><g class="node" transform="translate(147.35842190948233,33.69464867517229)"><circle class="outline" cx="0" cy="0" r="25" fill="#D9C8AE" stroke="#c0a378" stroke-width="2px"/><text text-anchor="middle" pointer-events="none" font-family="sans-serif" dy="1.5625" font-size="25" fill="#2A2C34"/><text text-anchor="middle" pointer-events="none" x="0" y="5" font-size="10px" fill="#2A2C34" font-family="sans-serif"> Tumbling</text></g><g class="node" transform="translate(277.20853761559266,72.3965110874524)"><circle class="outline" cx="0" cy="0" r="25" fill="#D9C8AE" stroke="#c0a378" stroke-width="2px"/><text text-anchor="middle" pointer-events="none" font-family="sans-serif" dy="1.5625" font-size="25" fill="#2A2C34"/><text text-anchor="middle" pointer-events="none" x="0" y="5" font-size="10px" fill="#2A2C34" font-family="sans-serif"> Gairibus</text></g><g class="node" transform="translate(204.7826801832829,16.382187892288044)"><circle class="outline" cx="0" cy="0" r="25" fill="#D9C8AE" stroke="#c0a378" stroke-width="2px"/><text text-anchor="middle" pointer-events="none" font-family="sans-serif" dy="1.5625" font-size="25" fill="#2A2C34"/><text text-anchor="middle" pointer-events="none" x="0" y="5" font-size="10px" fill="#2A2C34" font-family="sans-serif"> BhikeBh…</text></g><g class="node" transform="translate(99.97954901862352,-52.259504206464804)"><circle class="outline" cx="0" cy="0" r="25" fill="#F16667" stroke="#eb2728" stroke-width="2px"/><text text-anchor="middle" pointer-events="none" font-family="sans-serif" dy="1.5625" font-size="25" fill="#FFFFFF"/><text text-anchor="middle" pointer-events="none" x="0" y="5" font-size="10px" fill="#FFFFFF" font-family="sans-serif"> Rimbik</text></g><g class="node" transform="translate(-4.562368707255095,55.4786759899784)"><circle class="outline" cx="0" cy="0" r="25" fill="#D9C8AE" stroke="#c0a378" stroke-width="2px"/><text text-anchor="middle" pointer-events="none" font-family="sans-serif" dy="1.5625" font-size="25" fill="#2A2C34"/><text text-anchor="middle" pointer-events="none" x="0" y="5" font-size="10px" fill="#2A2C34" font-family="sans-serif"> Sirikhola</text></g><g class="node" transform="translate(49.117876998793164,153.59398828529694)"><circle class="outline" cx="0" cy="0" r="25" fill="#D9C8AE" stroke="#c0a378" stroke-width="2px"/><text text-anchor="middle" pointer-events="none" font-family="sans-serif" dy="1.5625" font-size="25" fill="#2A2C34"/><text text-anchor="middle" pointer-events="none" x="0" y="5" font-size="10px" fill="#2A2C34" font-family="sans-serif"> Gurdum</text></g><g class="node" transform="translate(-48.03077949663846,175.4469125195436)"><circle class="outline" cx="0" cy="0" r="25" fill="#D9C8AE" stroke="#c0a378" stroke-width="2px"/><text text-anchor="middle" pointer-events="none" font-family="sans-serif" dy="1.5625" font-size="25" fill="#2A2C34"/><text text-anchor="middle" pointer-events="none" x="0" y="5" font-size="10px" fill="#2A2C34" font-family="sans-serif"> Rammam</text></g><g class="node" transform="translate(62.66827257792015,239.65456349786223)"><circle class="outline" cx="0" cy="0" r="25" fill="#8DCC93" stroke="#5db665" stroke-width="2px"/><text text-anchor="middle" pointer-events="none" font-family="sans-serif" dy="1.5625" font-size="25" fill="#2A2C34"/><text text-anchor="middle" pointer-events="none" x="0" y="5" font-size="10px" fill="#2A2C34" font-family="sans-serif"> Sabargr…</text></g></g></svg>