<svg xmlns="http://www.w3.org/2000/svg" width="250.34291076660156" height="226.09420776367188" viewBox="-59.890655517578125 -20.310035705566406 250.34291076660156 226.09420776367188"><title>Neo4j Graph Visualization</title><desc>Created using Neo4j (http://www.neo4j.com/)</desc><g class="layer relationships"><g class="relationship" transform="translate(92.47169969513625 175.53547120238332) rotate(279.86252297316116)"><path class="outline" fill="#A5ABB6" stroke="none" d="M 5.987513214418485,24.277555179777966 L 6.953439040707552,24.018736134675446 A 30.97988257003699 30.97988257003699 0 0 0 8.5596298037689,28.56397512224664 L 7.645550228330855,28.969509990990378 A 31.97988257003699 31.97988257003699 0 0 1 5.987513214418485,24.277555179777966 Z M 63.541668579530935,33.656885084649595 L 62.707895634598216,33.10477759846758 A 30.97988257003699 30.97988257003699 0 0 0 65.04864595250835,28.890523907636396 L 62.32065579518808,27.642297284957746 L 68.41583976497859,22.733251311002217 L 68.6859661622687,30.55482607120793 L 65.95797600494843,29.30659944852928 A 31.97988257003699 31.97988257003699 0 0 1 63.541668579530935,33.656885084649595"/><text text-anchor="middle" pointer-events="none" font-size="8px" fill="#000000" x="34.24707954259042" y="50.370327805616725" font-family="sans-serif">FLIGHT_TICKET</text></g><g class="relationship" transform="translate(105.97197111135048 97.88254489526142) rotate(216.3804165449244)"><path class="outline" fill="#A5ABB6" stroke="none" d="M 5.987513214418485,-24.277555179777966 L 6.953439040707552,-24.018736134675446 A 31.075668980785977 31.075668980785977 0 0 1 8.607910174692499,-28.675210006890634 L 7.695224429413685,-29.083872129388986 A 32.07566898078598 32.07566898078598 0 0 0 5.987513214418485,-24.277555179777966 Z M 63.65964430008196,-33.7668746681337 L 62.82756768657124,-33.2122139526972 A 31.075668980785977 31.075668980785977 0 0 1 65.23290269047857,-28.89545739542062 L 62.504465298238244,-27.648208664563455 L 68.59788929451868,-22.736978268669386 L 68.87081921346567,-30.558455703230173 L 66.14238182122534,-29.311206972373007 A 32.07566898078598 32.07566898078598 0 0 0 63.65964430008196,-33.7668746681337"/><text text-anchor="middle" pointer-events="none" font-size="8px" fill="#000000" x="34.33723687087406" y="-44.441460222595" transform="rotate(180 34.33723687087406 -47.441460222595)" font-family="sans-serif">FLIGHT_TICKET</text></g><g class="relationship" transform="translate(42.376081107851626 51.029154599178085) rotate(371.4931696046034)"><path class="outline" fill="#A5ABB6" stroke="none" d="M 5.987513214418485,24.277555179777966 L 6.953439040707552,24.018736134675446 A 54.00114565215741 54.00114565215741 0 0 0 25.4725199320892,52.28363870305659 L 24.849532772521584,53.065870765180016 A 55.00114565215741 55.00114565215741 0 0 1 5.987513214418485,24.277555179777966 Z M 88.47060704110774,56.55400933196508 L 87.9368714903714,55.70835788965555 A 54.00114565215741 54.00114565215741 0 0 0 109.43500872008731,29.637470487921213 L 106.63948644901009,28.54886806650592 L 112.44100141523586,23.29601892564357 L 113.16237174819028,31.0889403831416 L 110.36684947711306,30.00033796172631 A 55.00114565215741 55.00114565215741 0 0 1 88.47060704110774,56.55400933196508"/><text text-anchor="middle" pointer-events="none" font-size="8px" fill="#000000" x="56.1308990291629" y="67.46162648913892" font-family="sans-serif">FLIGHT_TICKET</text></g><g class="relationship" transform="translate(42.376081107851626 51.029154599178085) rotate(371.4931696046034)"><path class="outline" fill="#A5ABB6" stroke="none" d="M 17.324116139070416,18.03122292025696 L 18.031222920256962,17.324116139070412 A 58.10058459081353 58.10058459081353 0 0 0 25.655278347646593,23.73980636362952 L 25.079393231114267,24.557336994588717 A 59.10058459081353 59.10058459081353 0 0 1 17.324116139070416,18.03122292025696 Z M 89.26912769532291,27.069727127079382 L 88.75890283665566,26.20968608526917 A 58.10058459081353 58.10058459081353 0 0 0 96.86108755421172,20.409521861730813 L 94.9120599732643,18.12888785148141 L 102.50740484161824,16.241896507895092 L 99.45979099547493,23.45036720873002 L 97.51076341452752,21.169733198480618 A 59.10058459081353 59.10058459081353 0 0 1 89.26912769532291,27.069727127079382"/><text text-anchor="middle" pointer-events="none" font-size="8px" fill="#000000" x="56.82266465186191" y="37.796548463361866" font-family="sans-serif">FLIGHT_TICKET</text></g><g class="relationship" transform="translate(92.47169969513625 175.53547120238332) rotate(279.86252297316116)"><path class="outline" fill="#A5ABB6" stroke="none" d="M 13.473521019338785,21.06452542407343 L 14.30499063164133,20.50895519105383 A 27.147975999216698 27.147975999216698 0 0 0 15.306374794890854,21.909375385626408 L 14.511791327002108,22.51653031853719 A 28.147975999216698 28.147975999216698 0 0 1 13.473521019338785,21.06452542407343 Z M 56.62968221419965,25.480475994179972 L 55.92796303892962,24.768022347225763 A 27.147975999216698 27.147975999216698 0 0 0 57.11560889408244,23.52164989626582 L 54.879209998176805,21.52201993590014 L 62.1541452842533,18.63665746588029 L 60.09747408862329,26.187823176753398 L 57.86107519271765,24.188193216387717 A 28.147975999216698 28.147975999216698 0 0 1 56.62968221419965,25.480475994179972"/><text text-anchor="middle" pointer-events="none" font-size="8px" fill="#000000" x="34.93684756057096" y="36.00611648814542" font-family="sans-serif">FLIGHT_…</text></g><g class="relationship" transform="translate(105.97197111135048 97.88254489526142) rotate(216.3804165449244)"><path class="outline" fill="#A5ABB6" stroke="none" d="M 17.324116139070416,-18.03122292025696 L 18.031222920256962,-17.324116139070412 A 26.783801063852902 26.783801063852902 0 0 1 18.768429990366815,-18.033682919987704 L 18.088847572445673,-18.767282086598772 A 27.783801063852902 27.783801063852902 0 0 0 17.324116139070416,-18.03122292025696 Z M 53.32535331589304,-20.84506318834993 L 52.73669652988141,-20.036680118090256 A 26.783801063852902 26.783801063852902 0 0 1 53.552186406763205,-19.418670780373912 L 51.69487465828067,-17.062743559734717 L 59.35890187966842,-15.47759790402118 L 56.028602071406596,-22.559907074559508 L 54.17129032292406,-20.203979853920313 A 27.783801063852902 27.783801063852902 0 0 0 53.32535331589304,-20.84506318834993"/><text text-anchor="middle" pointer-events="none" font-size="8px" fill="#000000" x="35.36418381998313" y="-22.621599290203978" transform="rotate(180 35.36418381998313 -25.621599290203978)" font-family="sans-serif">FLIGH…</text></g><g class="relationship" transform="translate(42.376081107851626 51.029154599178085) rotate(371.4931696046034)"><path class="outline" fill="#A5ABB6" stroke="none" d="M 24.018736134675446,6.953439040707552 L 24.277555179777966,5.987513214418485 A 134.59977445534042 134.59977445534042 0 0 0 25.14678393834442,6.217313575485463 L 24.89442277002575,7.184946688149978 A 135.59977445534042 135.59977445534042 0 0 1 24.018736134675446,6.953439040707552 Z M 89.61532595890098,8.099059150574476 L 89.39039353695495,7.124684784348915 A 134.59977445534042 134.59977445534042 0 0 0 90.26576563493413,6.919525015522609 L 89.57145781415959,4.000974579088227 L 97.1914346234101,5.785898506454432 L 91.19150939596683,10.810925597435117 L 90.49720157519229,7.892375161000736 A 135.59977445534042 135.59977445534042 0 0 1 89.61532595890098,8.099059150574476"/><text text-anchor="middle" pointer-events="none" font-size="8px" fill="#000000" x="57.20659299053866" y="14.060416140989787" font-family="sans-serif">FLIGHT_TICK…</text></g><g class="relationship" transform="translate(42.376081107851626 51.029154599178085) rotate(371.4931696046034)"><path class="outline" fill="#A5ABB6" stroke="none" d="M 24.018736134675446,-6.953439040707552 L 24.277555179777966,-5.987513214418485 A 134.59977445534042 134.59977445534042 0 0 1 25.146783938344377,-6.217313575485434 L 24.894422770025706,-7.184946688149978 A 135.59977445534042 135.59977445534042 0 0 0 24.018736134675446,-6.953439040707552 Z M 89.61532595890094,-8.099059150574476 L 89.3903935369549,-7.124684784348915 A 134.59977445534042 134.59977445534042 0 0 1 90.26576563493413,-6.919525015522609 L 89.57145781415959,-4.000974579088227 L 97.1914346234101,-5.785898506454432 L 91.19150939596683,-10.810925597435117 L 90.49720157519229,-7.892375161000736 A 135.59977445534042 135.59977445534042 0 0 0 89.61532595890094,-8.099059150574476"/><text text-anchor="middle" pointer-events="none" font-size="8px" fill="#000000" x="57.206592990538624" y="-8.060416140989787" font-family="sans-serif">FLIGHT_TICK…</text></g><g class="relationship" transform="translate(105.97197111135048 97.88254489526142) rotate(216.3804165449244)"><path class="outline" fill="#A5ABB6" stroke="none" d="M 24.018736134675446,-6.953439040707552 L 24.277555179777966,-5.987513214418485 A 49.04073073004794 49.04073073004794 0 0 1 24.521793540337242,-6.0522827586825585 L 24.267954811737425,-7.01952931456313 A 50.04073073004794 50.04073073004794 0 0 0 24.018736134675446,-6.953439040707552 Z M 47.61688626830985,-7.51282964211709 L 47.40412646575449,-6.535725110136703 A 49.04073073004794 49.04073073004794 0 0 1 47.65088247796059,-6.481328960704965 L 46.99750810687129,-3.5533429752187558 L 54.5917455059433,-5.444786425744271 L 48.522048306079675,-10.385310274686576 L 47.86867393499037,-7.4573242892003675 A 50.04073073004794 50.04073073004794 0 0 0 47.61688626830985,-7.51282964211709"/><text text-anchor="middle" pointer-events="none" font-size="8px" fill="#000000" x="35.92380096550774" y="-5.147482702438943" transform="rotate(180 35.92380096550774 -8.147482702438943)" font-family="sans-serif">FL…</text></g><g class="relationship" transform="translate(92.47169969513625 175.53547120238332) rotate(279.86252297316116)"><path class="outline" fill="#A5ABB6" stroke="none" d="M 19.529452792776517,15.615712395363635 L 20.13821422178524,14.822359055072399 A 27.497624998977702 27.497624998977702 0 0 0 20.94463875943471,15.41811059789574 L 20.365204391860548,16.23312950177094 A 28.497624998977702 28.497624998977702 0 0 1 19.529452792776517,15.615712395363635 Z M 50.965991844647355,17.778681196067147 L 50.47162488829068,16.90942788864598 A 27.497624998977702 27.497624998977702 0 0 0 51.33397163228701,16.39796085273998 L 49.756788447668455,13.846002153592115 L 57.55140579440179,13.143193205154656 L 53.43688254511176,19.8005724516038 L 51.8596993604932,17.248613752455935 A 28.497624998977702 28.497624998977702 0 0 1 50.965991844647355,17.778681196067147"/><text text-anchor="middle" pointer-events="none" font-size="8px" fill="#000000" x="35.46543392079132" y="23.96900932325798" font-family="sans-serif">FLIG…</text></g><g class="relationship" transform="translate(92.47169969513625 175.53547120238332) rotate(279.86252297316116)"><path class="outline" fill="#A5ABB6" stroke="none" d="M 23.51253350472606,8.509451697326591 L 23.833972970029226,7.562521567831486 A 40.57913277132156 40.57913277132156 0 0 0 24.484644308443453,7.777285559007005 L 24.179239472122656,8.729508162158112 A 41.57913277132156 41.57913277132156 0 0 1 23.51253350472606,8.509451697326591 Z M 47.474819583819155,9.342956246003538 L 47.21995347269576,8.375979893965479 A 40.57913277132156 40.57913277132156 0 0 0 47.88102605918541,8.195758369359588 L 47.06755487851595,5.308153022671743 L 54.75435039823529,6.778926505578824 L 48.965654300078015,12.04589883161005 L 48.152183119408555,9.158293484922204 A 41.57913277132156 41.57913277132156 0 0 1 47.474819583819155,9.342956246003538"/><text text-anchor="middle" pointer-events="none" font-size="8px" fill="#000000" x="35.79633594826417" y="13.201815346000338" font-family="sans-serif">FL…</text></g><g class="relationship" transform="translate(42.376081107851626 51.029154599178085) rotate(371.4931696046034)"><path class="outline" fill="#A5ABB6" stroke="none" d="M 17.324116139070416,-18.03122292025696 L 18.031222920256962,-17.324116139070412 A 58.10058459081353 58.10058459081353 0 0 1 25.655278347646608,-23.739806363629533 L 25.079393231114274,-24.55733699458873 A 59.10058459081353 59.10058459081353 0 0 0 17.324116139070416,-18.03122292025696 Z M 89.26912769532291,-27.069727127079382 L 88.75890283665566,-26.20968608526917 A 58.10058459081353 58.10058459081353 0 0 1 96.86108755421172,-20.409521861730813 L 94.9120599732643,-18.12888785148141 L 102.50740484161824,-16.241896507895092 L 99.45979099547493,-23.45036720873002 L 97.51076341452752,-21.169733198480618 A 59.10058459081353 59.10058459081353 0 0 0 89.26912769532291,-27.069727127079382"/><text text-anchor="middle" pointer-events="none" font-size="8px" fill="#000000" x="56.82266465186193" y="-31.796548463361866" font-family="sans-serif">FLIGHT_TICKET</text></g><g class="relationship" transform="translate(42.376081107851626 51.029154599178085) rotate(371.4931696046034)"><path class="outline" fill="#A5ABB6" stroke="none" d="M 5.987513214418485,-24.277555179777966 L 6.953439040707552,-24.018736134675446 A 54.00114565215741 54.00114565215741 0 0 1 25.472519932089206,-52.283638703056596 L 24.84953277252159,-53.06587076518002 A 55.00114565215741 55.00114565215741 0 0 0 5.987513214418485,-24.277555179777966 Z M 88.47060704110775,-56.55400933196508 L 87.93687149037142,-55.70835788965555 A 54.00114565215741 54.00114565215741 0 0 1 109.43500872008731,-29.637470487921213 L 106.63948644901009,-28.54886806650592 L 112.44100141523586,-23.29601892564357 L 113.16237174819028,-31.0889403831416 L 110.36684947711306,-30.00033796172631 A 55.00114565215741 55.00114565215741 0 0 0 88.47060704110775,-56.55400933196508"/><text text-anchor="middle" pointer-events="none" font-size="8px" fill="#000000" x="56.130899029162904" y="-61.46162648913892" font-family="sans-serif">FLIGHT_TICKET</text></g><g class="relationship" transform="translate(92.47169969513625 175.53547120238332) rotate(200.07391987534527)"><path class="outline" fill="#A5ABB6" stroke="none" d="M 21.40063509461097,12.933012701892217 L 21.90063509461097,12.06698729810778 A 52.52032518571128 52.52032518571128 0 0 0 22.009371865576448,12.129593438640178 L 21.511442240628032,12.996810878846915 A 53.52032518571128 53.52032518571128 0 0 1 21.40063509461097,12.933012701892217 Z M 71.70117368930248,14.648381031898694 L 71.26133376082385,13.750304845088287 A 52.52032518571128 52.52032518571128 0 0 0 71.37395114295407,13.694982702735516 L 70.04799856897023,11.00391418418278 L 77.8741031152411,11.049604783198673 L 73.14188790826586,17.28307406080583 L 71.81593533428202,14.592005542253094 A 53.52032518571128 53.52032518571128 0 0 1 71.70117368930248,14.648381031898694"/><text text-anchor="middle" pointer-events="none" font-size="8px" fill="#000000" x="46.41702635988893" y="22.574693684555278" transform="rotate(180 46.41702635988893 19.574693684555278)" font-family="sans-serif">FLIGHT_T…</text></g><g class="relationship" transform="translate(-1.7348277022888445 141.1093935733182) rotate(296.0902814590127)"><path class="outline" fill="#A5ABB6" stroke="none" d="M 5.987513214418485,-24.277555179777966 L 6.953439040707552,-24.018736134675446 A 42.66152565441754 42.66152565441754 0 0 1 16.217462824684294,-41.2542581615503 L 15.468688720980595,-41.91708343386777 A 43.66152565441754 43.66152565441754 0 0 0 5.987513214418485,-24.277555179777966 Z M 76.7526435969573,-45.975065852018204 L 76.09780310045116,-45.2192987422975 A 42.66152565441754 42.66152565441754 0 0 1 87.5535167364019,-29.35575622178632 L 84.78341831589782,-28.203994640242318 L 90.70264349675526,-23.08415350420077 L 91.24698129707403,-30.89143833051165 L 88.47688287656995,-29.73967674896765 A 43.66152565441754 43.66152565441754 0 0 0 76.7526435969573,-45.975065852018204"/><text text-anchor="middle" pointer-events="none" font-size="8px" fill="#000000" x="45.30956700404701" y="-53.044334172562984" font-family="sans-serif">FLIGHT_TICKET</text></g><g class="relationship" transform="translate(92.47169969513625 175.53547120238332) rotate(279.86252297316116)"><path class="outline" fill="#A5ABB6" stroke="none" d="M 25 0.5 L 26.465504768650334 0.5 L 26.465504768650334 -0.5 L 25 -0.5 Z M 45.352223518650334 0.5 L 46.81772828730067 0.5 L 46.81772828730067 3.5 L 53.81772828730067 0 L 46.81772828730067 -3.5 L 46.81772828730067 -0.5 L 45.352223518650334 -0.5 Z"/><text text-anchor="middle" pointer-events="none" font-size="8px" fill="#000000" x="35.908864143650334" y="3" font-family="sans-serif">F…</text></g><g class="relationship" transform="translate(92.47169969513625 175.53547120238332) rotate(279.86252297316116)"><path class="outline" fill="#A5ABB6" stroke="none" d="M 23.51253350472606,-8.509451697326591 L 23.833972970029226,-7.562521567831486 A 40.57913277132156 40.57913277132156 0 0 1 24.484644308443443,-7.777285559007005 L 24.179239472122646,-8.729508162158112 A 41.57913277132156 41.57913277132156 0 0 0 23.51253350472606,-8.509451697326591 Z M 47.474819583819155,-9.342956246003538 L 47.21995347269576,-8.375979893965479 A 40.57913277132156 40.57913277132156 0 0 1 47.88102605918541,-8.195758369359588 L 47.06755487851595,-5.308153022671743 L 54.75435039823529,-6.778926505578824 L 48.965654300078015,-12.04589883161005 L 48.152183119408555,-9.158293484922204 A 41.57913277132156 41.57913277132156 0 0 0 47.474819583819155,-9.342956246003538"/><text text-anchor="middle" pointer-events="none" font-size="8px" fill="#000000" x="35.796335948264165" y="-7.201815346000338" font-family="sans-serif">FL…</text></g><g class="relationship" transform="translate(-1.7348277022888445 141.1093935733182) rotate(296.0902814590127)"><path class="outline" fill="#A5ABB6" stroke="none" d="M 13.473521019338785,-21.06452542407343 L 14.30499063164133,-20.50895519105383 A 40.71864723210412 40.71864723210412 0 0 1 16.968983414193712,-24.06029112277653 L 16.202938194979847,-24.703077807548063 A 41.71864723210412 41.71864723210412 0 0 0 13.473521019338785,-21.06452542407343 Z M 76.93412492610354,-28.095669679621903 L 76.24443773881721,-27.371562240291887 A 40.71864723210412 40.71864723210412 0 0 1 79.28739388483208,-24.139030362820872 L 76.99413851844888,-22.20486909122156 L 84.18264607962767,-19.11046138652663 L 82.34506770667635,-26.717912058286622 L 80.05181234029314,-24.78375078668731 A 41.71864723210412 41.71864723210412 0 0 0 76.93412492610354,-28.095669679621903"/><text text-anchor="middle" pointer-events="none" font-size="8px" fill="#000000" x="45.86231885721861" y="-36.04137053384089" font-family="sans-serif">FLIGHT_TICKET</text></g><g class="relationship" transform="translate(92.47169969513625 175.53547120238332) rotate(200.07391987534527)"><path class="outline" fill="#A5ABB6" stroke="none" d="M 25 0.5 L 25.427180801590268 0.5 L 25.427180801590268 -0.5 L 25 -0.5 Z M 67.87249330159027 0.5 L 68.29967410318054 0.5 L 68.29967410318054 3.5 L 75.29967410318054 0 L 68.29967410318054 -3.5 L 68.29967410318054 -0.5 L 67.87249330159027 -0.5 Z"/><text text-anchor="middle" pointer-events="none" font-size="8px" fill="#000000" x="46.64983705159027" y="3" transform="rotate(180 46.64983705159027 0)" font-family="sans-serif">FLIGHT…</text></g><g class="relationship" transform="translate(-1.7348277022888445 141.1093935733182) rotate(296.0902814590127)"><path class="outline" fill="#A5ABB6" stroke="none" d="M 19.529452792776517,-15.615712395363635 L 20.13821422178524,-14.822359055072399 A 46.03296612114427 46.03296612114427 0 0 1 21.395407431182235,-15.75352718124806 L 20.81395671697926,-16.567108810190632 A 47.03296612114427 47.03296612114427 0 0 0 19.529452792776517,-15.615712395363635 Z M 72.34429818810099,-18.641546435419578 L 71.83012713483149,-17.783858772001402 A 46.03296612114427 46.03296612114427 0 0 1 73.15810220312378,-16.956760795366517 L 71.52904399656782,-14.437600347984748 L 79.30765294810722,-13.575485054632923 L 75.33017981186504,-20.315641391875538 L 73.70112160530908,-17.79648094449377 A 47.03296612114427 47.03296612114427 0 0 0 72.34429818810099,-18.641546435419578"/><text text-anchor="middle" pointer-events="none" font-size="8px" fill="#000000" x="46.28956435507416" y="-21.797257942033333" font-family="sans-serif">FLIGHT_TI…</text></g><g class="relationship" transform="translate(92.47169969513625 175.53547120238332) rotate(200.07391987534527)"><path class="outline" fill="#A5ABB6" stroke="none" d="M 21.40063509461097,-12.933012701892217 L 21.90063509461097,-12.06698729810778 A 52.52032518571128 52.52032518571128 0 0 1 22.009371865576455,-12.129593438640178 L 21.51144224062804,-12.996810878846915 A 53.52032518571128 53.52032518571128 0 0 0 21.40063509461097,-12.933012701892217 Z M 71.70117368930248,-14.648381031898687 L 71.26133376082386,-13.75030484508828 A 52.52032518571128 52.52032518571128 0 0 1 71.37395114295407,-13.694982702735516 L 70.04799856897023,-11.00391418418278 L 77.8741031152411,-11.049604783198673 L 73.14188790826586,-17.28307406080583 L 71.81593533428202,-14.592005542253094 A 53.52032518571128 53.52032518571128 0 0 0 71.70117368930248,-14.648381031898687"/><text text-anchor="middle" pointer-events="none" font-size="8px" fill="#000000" x="46.417026359888936" y="-16.574693684555278" transform="rotate(180 46.417026359888936 -19.574693684555278)" font-family="sans-serif">FLIGHT_T…</text></g><g class="relationship" transform="translate(92.47169969513625 175.53547120238332) rotate(304.51934214029137)"><path class="outline" fill="#A5ABB6" stroke="none" d="M 21.40063509461097,12.933012701892217 L 21.90063509461097,12.06698729810778 A 74.64746786474633 74.64746786474633 0 0 0 25.056443139895592,13.789030758238624 L 24.59871929654973,14.67812517574032 A 75.64746786474633 75.64746786474633 0 0 1 21.40063509461097,12.933012701892217 Z M 90.11663213802804,16.472592121641284 L 89.70826072807843,15.559776263137621 A 74.64746786474633 74.64746786474633 0 0 0 92.95359685523727,14.013053431140806 L 91.59805611984217,11.336766952700101 L 99.42418876083141,11.296172794959052 L 94.76098450243072,17.581435402395076 L 93.40544376703562,14.905148923954373 A 75.64746786474633 75.64746786474633 0 0 1 90.11663213802804,16.472592121641284"/><text text-anchor="middle" pointer-events="none" font-size="8px" fill="#000000" x="57.16693021830273" y="25.53968139981538" font-family="sans-serif">FLIGHT_TICKET</text></g><g class="relationship" transform="translate(92.47169969513625 175.53547120238332) rotate(304.51934214029137)"><path class="outline" fill="#A5ABB6" stroke="none" d="M 25 0.5 L 27.472663040585303 0.5 L 27.472663040585303 -0.5 L 25 -0.5 Z M 87.2539130405853 0.5 L 89.7265760811706 0.5 L 89.7265760811706 3.5 L 96.7265760811706 0 L 89.7265760811706 -3.5 L 89.7265760811706 -0.5 L 87.2539130405853 -0.5 Z"/><text text-anchor="middle" pointer-events="none" font-size="8px" fill="#000000" x="57.3632880405853" y="3" font-family="sans-serif">FLIGHT_TIC…</text></g><g class="relationship" transform="translate(92.47169969513625 175.53547120238332) rotate(304.51934214029137)"><path class="outline" fill="#A5ABB6" stroke="none" d="M 21.40063509461097,-12.933012701892217 L 21.90063509461097,-12.06698729810778 A 74.64746786474633 74.64746786474633 0 0 1 25.0564431398956,-13.789030758238624 L 24.59871929654974,-14.67812517574032 A 75.64746786474633 75.64746786474633 0 0 0 21.40063509461097,-12.933012701892217 Z M 90.11663213802802,-16.4725921216413 L 89.70826072807843,-15.559776263137636 A 74.64746786474633 74.64746786474633 0 0 1 92.95359685523727,-14.013053431140806 L 91.59805611984217,-11.336766952700101 L 99.42418876083141,-11.296172794959052 L 94.76098450243072,-17.581435402395076 L 93.40544376703562,-14.905148923954373 A 75.64746786474633 75.64746786474633 0 0 0 90.11663213802802,-16.4725921216413"/><text text-anchor="middle" pointer-events="none" font-size="8px" fill="#000000" x="57.16693021830273" y="-19.53968139981538" font-family="sans-serif">FLIGHT_TICKET</text></g><g class="relationship" transform="translate(105.97197111135048 97.88254489526142) rotate(518.1325253046658)"><path class="outline" fill="#A5ABB6" stroke="none" d="M 5.987513214418485,-24.277555179777966 L 6.953439040707552,-24.018736134675446 A 51.09737335165221 51.09737335165221 0 0 1 23.008430224907244,-49.54897171108303 L 22.356708243769063,-50.307429659357894 A 52.09737335165221 52.09737335165221 0 0 0 5.987513214418485,-24.277555179777966 Z M 85.52151196187218,-53.93083533606004 L 84.96079654637336,-53.10282674744396 A 51.09737335165221 51.09737335165221 0 0 1 103.82991314002585,-29.575988679255914 L 101.03993402330754,-28.473257284819482 L 106.86794957983058,-23.249825972652594 L 107.54988529565027,-31.046297205171157 L 104.75990617893196,-29.943565810734725 A 52.09737335165221 52.09737335165221 0 0 0 85.52151196187218,-53.93083533606004"/><text text-anchor="middle" pointer-events="none" font-size="8px" fill="#000000" x="53.35472160271896" y="-59.306450230686195" transform="rotate(180 53.35472160271896 -62.306450230686195)" font-family="sans-serif">FLIGHT_TICKET</text></g><g class="relationship" transform="translate(105.97197111135048 97.88254489526142) rotate(518.1325253046658)"><path class="outline" fill="#A5ABB6" stroke="none" d="M 17.324116139070416,-18.03122292025696 L 18.031222920256962,-17.324116139070412 A 54.13395786151799 54.13395786151799 0 0 1 23.24069648620503,-21.904997854083575 L 22.629822712390208,-22.69672585817667 A 55.13395786151799 55.13395786151799 0 0 0 17.324116139070416,-18.03122292025696 Z M 86.31198740631477,-25.301619021261644 L 85.76781686326997,-24.46264439704329 A 54.13395786151799 54.13395786151799 0 0 1 91.33401894432109,-20.322537331500687 L 89.39303908373257,-18.035050242839905 L 96.99498546129433,-16.174832171570948 L 93.92199209177245,-23.372520116381732 L 91.98101223118394,-21.08503302772095 A 55.13395786151799 55.13395786151799 0 0 0 86.31198740631477,-25.301619021261644"/><text text-anchor="middle" pointer-events="none" font-size="8px" fill="#000000" x="54.07679894880446" y="-30.633936196816492" transform="rotate(180 54.07679894880446 -33.63393619681649)" font-family="sans-serif">FLIGHT_TICKET</text></g><g class="relationship" transform="translate(105.97197111135048 97.88254489526142) rotate(459.86252297316116)"><path class="outline" fill="#A5ABB6" stroke="none" d="M 19.529452792776517,15.615712395363635 L 20.13821422178524,14.822359055072399 A 27.497624998977702 27.497624998977702 0 0 0 20.94463875943471,15.41811059789574 L 20.365204391860548,16.23312950177094 A 28.497624998977702 28.497624998977702 0 0 1 19.529452792776517,15.615712395363635 Z M 50.965991844647355,17.778681196067147 L 50.47162488829068,16.90942788864598 A 27.497624998977702 27.497624998977702 0 0 0 51.33397163228701,16.39796085273998 L 49.756788447668455,13.846002153592115 L 57.55140579440179,13.143193205154656 L 53.43688254511176,19.8005724516038 L 51.8596993604932,17.248613752455935 A 28.497624998977702 28.497624998977702 0 0 1 50.965991844647355,17.778681196067147"/><text text-anchor="middle" pointer-events="none" font-size="8px" fill="#000000" x="35.46543392079132" y="23.96900932325798" transform="rotate(180 35.46543392079132 20.96900932325798)" font-family="sans-serif">FLIG…</text></g><g class="relationship" transform="translate(105.97197111135048 97.88254489526142) rotate(518.1325253046658)"><path class="outline" fill="#A5ABB6" stroke="none" d="M 24.018736134675446,-6.953439040707552 L 24.277555179777966,-5.987513214418485 A 123.76274869624433 123.76274869624433 0 0 1 25.0559274491673,-6.193366174439333 L 24.803397633074226,-7.160955287639766 A 124.76274869624433 124.76274869624433 0 0 0 24.018736134675446,-6.953439040707552 Z M 84.24157408815425,-8.037743475480909 L 84.01769426213698,-7.063126718236063 A 123.76274869624433 123.76274869624433 0 0 1 84.80179971914359,-6.880322278475639 L 84.11115358201383,-3.9609031730254203 L 91.72888532138239,-5.755384476081256 L 85.7226612353166,-10.772881085742597 L 85.03201509818683,-7.853461980292378 A 124.76274869624433 124.76274869624433 0 0 0 84.24157408815425,-8.037743475480909"/><text text-anchor="middle" pointer-events="none" font-size="8px" fill="#000000" x="54.47687849990818" y="-7.691109045854958" transform="rotate(180 54.47687849990818 -10.691109045854958)" font-family="sans-serif">FLIGHT_TIC…</text></g><g class="relationship" transform="translate(105.97197111135048 97.88254489526142) rotate(459.86252297316116)"><path class="outline" fill="#A5ABB6" stroke="none" d="M 13.473521019338785,21.06452542407343 L 14.30499063164133,20.50895519105383 A 27.147975999216698 27.147975999216698 0 0 0 15.306374794890854,21.909375385626408 L 14.511791327002108,22.51653031853719 A 28.147975999216698 28.147975999216698 0 0 1 13.473521019338785,21.06452542407343 Z M 56.62968221419965,25.480475994179972 L 55.92796303892962,24.768022347225763 A 27.147975999216698 27.147975999216698 0 0 0 57.11560889408244,23.52164989626582 L 54.879209998176805,21.52201993590014 L 62.1541452842533,18.63665746588029 L 60.09747408862329,26.187823176753398 L 57.86107519271765,24.188193216387717 A 28.147975999216698 28.147975999216698 0 0 1 56.62968221419965,25.480475994179972"/><text text-anchor="middle" pointer-events="none" font-size="8px" fill="#000000" x="34.93684756057096" y="36.00611648814542" transform="rotate(180 34.93684756057096 33.00611648814542)" font-family="sans-serif">FLIGHT_…</text></g><g class="relationship" transform="translate(105.97197111135048 97.88254489526142) rotate(459.86252297316116)"><path class="outline" fill="#A5ABB6" stroke="none" d="M 5.987513214418485,24.277555179777966 L 6.953439040707552,24.018736134675446 A 30.97988257003699 30.97988257003699 0 0 0 8.5596298037689,28.56397512224664 L 7.645550228330855,28.969509990990378 A 31.97988257003699 31.97988257003699 0 0 1 5.987513214418485,24.277555179777966 Z M 63.541668579530935,33.656885084649595 L 62.707895634598216,33.10477759846758 A 30.97988257003699 30.97988257003699 0 0 0 65.04864595250835,28.890523907636396 L 62.32065579518808,27.642297284957746 L 68.41583976497859,22.733251311002217 L 68.6859661622687,30.55482607120793 L 65.95797600494843,29.30659944852928 A 31.97988257003699 31.97988257003699 0 0 1 63.541668579530935,33.656885084649595"/><text text-anchor="middle" pointer-events="none" font-size="8px" fill="#000000" x="34.24707954259042" y="50.370327805616725" transform="rotate(180 34.24707954259042 47.370327805616725)" font-family="sans-serif">FLIGHT_TICKET</text></g><g class="relationship" transform="translate(42.376081107851626 51.029154599178085) rotate(428.08241244350006)"><path class="outline" fill="#A5ABB6" stroke="none" d="M 5.987513214418485,24.277555179777966 L 6.953439040707552,24.018736134675446 A 60.73273098221025 60.73273098221025 0 0 0 31.34767194257401,58.44069796514185 L 30.78341145402534,59.26629478021735 A 61.73273098221025 61.73273098221025 0 0 1 5.987513214418485,24.277555179777966 Z M 95.22377155163923,62.4696310954926 L 94.7441715293645,61.592143876990775 A 60.73273098221025 60.73273098221025 0 0 0 122.43194280653066,29.75918333556579 L 119.62545660921069,28.699166720482562 L 125.37306260794485,23.387384977666404 L 126.17392440295728,31.17253882234343 L 123.36743820563731,30.112522207260202 A 61.73273098221025 61.73273098221025 0 0 1 95.22377155163923,62.4696310954926"/><text text-anchor="middle" pointer-events="none" font-size="8px" fill="#000000" x="62.57662153093711" y="72.45716370600132" font-family="sans-serif">FLIGHT_TICKET</text></g><g class="relationship" transform="translate(42.376081107851626 51.029154599178085) rotate(476.0902814590127)"><path class="outline" fill="#A5ABB6" stroke="none" d="M 23.51253350472606,8.509451697326591 L 23.833972970029226,7.562521567831486 A 75.6824787094198 75.6824787094198 0 0 0 25.82335943009506,8.20731478850621 L 25.52820592283648,9.162764633947063 A 76.6824787094198 76.6824787094198 0 0 1 23.51253350472606,8.509451697326591 Z M 67.6923039382001,10.050010256371976 L 67.43760435352695,9.082990028265385 A 75.6824787094198 75.6824787094198 0 0 0 69.45235415937937,8.522454565748681 L 68.60839214611381,5.643613111245714 L 76.31031122209721,7.0330167772128975 L 70.57763684373343,12.360909838419307 L 69.73367483046788,9.482068383916339 A 76.6824787094198 76.6824787094198 0 0 1 67.6923039382001,10.050010256371976"/><text text-anchor="middle" pointer-events="none" font-size="8px" fill="#000000" x="46.55857973775832" y="15.062119924897218" transform="rotate(180 46.55857973775832 12.062119924897218)" font-family="sans-serif">FLIGHT…</text></g><g class="relationship" transform="translate(42.376081107851626 51.029154599178085) rotate(396.3804165449244)"><path class="outline" fill="#A5ABB6" stroke="none" d="M 24.018736134675446,-6.953439040707552 L 24.277555179777966,-5.987513214418485 A 49.04073073004794 49.04073073004794 0 0 1 24.521793540337242,-6.0522827586825585 L 24.267954811737425,-7.01952931456313 A 50.04073073004794 50.04073073004794 0 0 0 24.018736134675446,-6.953439040707552 Z M 47.61688626830985,-7.51282964211709 L 47.40412646575449,-6.535725110136703 A 49.04073073004794 49.04073073004794 0 0 1 47.65088247796059,-6.481328960704965 L 46.99750810687129,-3.5533429752187558 L 54.5917455059433,-5.444786425744271 L 48.522048306079675,-10.385310274686576 L 47.86867393499037,-7.4573242892003675 A 50.04073073004794 50.04073073004794 0 0 0 47.61688626830985,-7.51282964211709"/><text text-anchor="middle" pointer-events="none" font-size="8px" fill="#000000" x="35.92380096550774" y="-5.147482702438943" font-family="sans-serif">FL…</text></g><g class="relationship" transform="translate(42.376081107851626 51.029154599178085) rotate(476.0902814590127)"><path class="outline" fill="#A5ABB6" stroke="none" d="M 25 0.5 L 25.4276720881443 0.5 L 25.4276720881443 -0.5 L 25 -0.5 Z M 67.8729845881443 0.5 L 68.3006566762886 0.5 L 68.3006566762886 3.5 L 75.3006566762886 0 L 68.3006566762886 -3.5 L 68.3006566762886 -0.5 L 67.8729845881443 -0.5 Z"/><text text-anchor="middle" pointer-events="none" font-size="8px" fill="#000000" x="46.6503283381443" y="3" transform="rotate(180 46.6503283381443 0)" font-family="sans-serif">FLIGHT…</text></g><g class="relationship" transform="translate(42.376081107851626 51.029154599178085) rotate(476.0902814590127)"><path class="outline" fill="#A5ABB6" stroke="none" d="M 23.51253350472606,-8.509451697326591 L 23.833972970029226,-7.562521567831486 A 75.6824787094198 75.6824787094198 0 0 1 25.82335943009504,-8.207314788506196 L 25.52820592283646,-9.162764633947063 A 76.6824787094198 76.6824787094198 0 0 0 23.51253350472606,-8.509451697326591 Z M 67.69230393820008,-10.050010256371976 L 67.43760435352692,-9.082990028265385 A 75.6824787094198 75.6824787094198 0 0 1 69.45235415937937,-8.522454565748681 L 68.60839214611381,-5.643613111245714 L 76.31031122209721,-7.0330167772128975 L 70.57763684373343,-12.360909838419307 L 69.73367483046788,-9.482068383916339 A 76.6824787094198 76.6824787094198 0 0 0 67.69230393820008,-10.050010256371976"/><text text-anchor="middle" pointer-events="none" font-size="8px" fill="#000000" x="46.5585797377583" y="-9.062119924897218" transform="rotate(180 46.5585797377583 -12.062119924897218)" font-family="sans-serif">FLIGHT…</text></g><g class="relationship" transform="translate(42.376081107851626 51.029154599178085) rotate(476.0902814590127)"><path class="outline" fill="#A5ABB6" stroke="none" d="M 19.529452792776517,-15.615712395363635 L 20.13821422178524,-14.822359055072399 A 46.03296612114427 46.03296612114427 0 0 1 21.395407431182235,-15.75352718124806 L 20.81395671697926,-16.567108810190632 A 47.03296612114427 47.03296612114427 0 0 0 19.529452792776517,-15.615712395363635 Z M 72.34429818810099,-18.641546435419578 L 71.83012713483149,-17.783858772001402 A 46.03296612114427 46.03296612114427 0 0 1 73.15810220312378,-16.956760795366517 L 71.52904399656782,-14.437600347984748 L 79.30765294810722,-13.575485054632923 L 75.33017981186504,-20.315641391875538 L 73.70112160530908,-17.79648094449377 A 47.03296612114427 47.03296612114427 0 0 0 72.34429818810099,-18.641546435419578"/><text text-anchor="middle" pointer-events="none" font-size="8px" fill="#000000" x="46.28956435507416" y="-21.797257942033333" transform="rotate(180 46.28956435507416 -24.797257942033333)" font-family="sans-serif">FLIGHT_TI…</text></g><g class="relationship" transform="translate(42.376081107851626 51.029154599178085) rotate(428.08241244350006)"><path class="outline" fill="#A5ABB6" stroke="none" d="M 17.324116139070416,18.03122292025696 L 18.031222920256962,17.324116139070412 A 67.29610115940864 67.29610115940864 0 0 0 31.46926428812796,27.727501870506444 L 30.961842795336345,28.589199862063303 A 68.29610115940864 68.29610115940864 0 0 1 17.324116139070416,18.03122292025696 Z M 96.00277443224142,30.902686413895644 L 95.5578585216856,30.007114064761147 A 67.29610115940864 67.29610115940864 0 0 0 109.70109461452452,20.58478615156067 L 107.73585406755993,18.318108055190066 L 115.31755026388338,16.377004558038365 L 112.32141534381066,23.607023613388144 L 110.35617479684606,21.34034551701754 A 68.29610115940864 68.29610115940864 0 0 1 96.00277443224142,30.902686413895644"/><text text-anchor="middle" pointer-events="none" font-size="8px" fill="#000000" x="63.20678935213021" y="40.49184053599954" font-family="sans-serif">FLIGHT_TICKET</text></g><g class="relationship" transform="translate(42.376081107851626 51.029154599178085) rotate(396.3804165449244)"><path class="outline" fill="#A5ABB6" stroke="none" d="M 17.324116139070416,-18.03122292025696 L 18.031222920256962,-17.324116139070412 A 26.783801063852902 26.783801063852902 0 0 1 18.768429990366815,-18.033682919987704 L 18.088847572445673,-18.767282086598772 A 27.783801063852902 27.783801063852902 0 0 0 17.324116139070416,-18.03122292025696 Z M 53.32535331589304,-20.84506318834993 L 52.73669652988141,-20.036680118090256 A 26.783801063852902 26.783801063852902 0 0 1 53.552186406763205,-19.418670780373912 L 51.69487465828067,-17.062743559734717 L 59.35890187966842,-15.47759790402118 L 56.028602071406596,-22.559907074559508 L 54.17129032292406,-20.203979853920313 A 27.783801063852902 27.783801063852902 0 0 0 53.32535331589304,-20.84506318834993"/><text text-anchor="middle" pointer-events="none" font-size="8px" fill="#000000" x="35.36418381998313" y="-22.621599290203978" font-family="sans-serif">FLIGH…</text></g><g class="relationship" transform="translate(42.376081107851626 51.029154599178085) rotate(428.08241244350006)"><path class="outline" fill="#A5ABB6" stroke="none" d="M 24.018736134675446,6.953439040707552 L 24.277555179777966,5.987513214418485 A 159.72239292258377 159.72239292258377 0 0 0 30.29371067714891,7.475065666001768 L 30.07255795664426,8.450304854208127 A 160.72239292258377 160.72239292258377 0 0 1 24.018736134675446,6.953439040707552 Z M 97.12092819066469,9.31201639890648 L 96.92491209595441,8.331415720437121 A 159.72239292258377 159.72239292258377 0 0 0 102.97731046550382,6.9989693834191975 L 102.2755824726208,4.0821941394203805 L 109.90007403364822,5.847733274025263 L 103.91294778934785,10.888003042084286 L 103.21121979646483,7.971227798085469 A 160.72239292258377 160.72239292258377 0 0 1 97.12092819066469,9.31201639890648"/><text text-anchor="middle" pointer-events="none" font-size="8px" fill="#000000" x="63.55773017118486" y="14.916690955447137" font-family="sans-serif">FLIGHT_TICKET</text></g><g class="relationship" transform="translate(42.376081107851626 51.029154599178085) rotate(476.0902814590127)"><path class="outline" fill="#A5ABB6" stroke="none" d="M 13.473521019338785,-21.06452542407343 L 14.30499063164133,-20.50895519105383 A 40.71864723210412 40.71864723210412 0 0 1 16.968983414193712,-24.06029112277653 L 16.202938194979847,-24.703077807548063 A 41.71864723210412 41.71864723210412 0 0 0 13.473521019338785,-21.06452542407343 Z M 76.93412492610354,-28.095669679621903 L 76.24443773881721,-27.371562240291887 A 40.71864723210412 40.71864723210412 0 0 1 79.28739388483208,-24.139030362820872 L 76.99413851844888,-22.20486909122156 L 84.18264607962767,-19.11046138652663 L 82.34506770667635,-26.717912058286622 L 80.05181234029314,-24.78375078668731 A 41.71864723210412 41.71864723210412 0 0 0 76.93412492610354,-28.095669679621903"/><text text-anchor="middle" pointer-events="none" font-size="8px" fill="#000000" x="45.86231885721861" y="-36.04137053384089" transform="rotate(180 45.86231885721861 -39.04137053384089)" font-family="sans-serif">FLIGHT_TICKET</text></g><g class="relationship" transform="translate(42.376081107851626 51.029154599178085) rotate(396.3804165449244)"><path class="outline" fill="#A5ABB6" stroke="none" d="M 5.987513214418485,-24.277555179777966 L 6.953439040707552,-24.018736134675446 A 31.075668980785977 31.075668980785977 0 0 1 8.607910174692499,-28.675210006890634 L 7.695224429413685,-29.083872129388986 A 32.07566898078598 32.07566898078598 0 0 0 5.987513214418485,-24.277555179777966 Z M 63.65964430008196,-33.7668746681337 L 62.82756768657124,-33.2122139526972 A 31.075668980785977 31.075668980785977 0 0 1 65.23290269047857,-28.89545739542062 L 62.504465298238244,-27.648208664563455 L 68.59788929451868,-22.736978268669386 L 68.87081921346567,-30.558455703230173 L 66.14238182122534,-29.311206972373007 A 32.07566898078598 32.07566898078598 0 0 0 63.65964430008196,-33.7668746681337"/><text text-anchor="middle" pointer-events="none" font-size="8px" fill="#000000" x="34.33723687087406" y="-44.441460222595" font-family="sans-serif">FLIGHT_TICKET</text></g><g class="relationship" transform="translate(42.376081107851626 51.029154599178085) rotate(476.0902814590127)"><path class="outline" fill="#A5ABB6" stroke="none" d="M 5.987513214418485,-24.277555179777966 L 6.953439040707552,-24.018736134675446 A 42.66152565441754 42.66152565441754 0 0 1 16.217462824684294,-41.2542581615503 L 15.468688720980595,-41.91708343386777 A 43.66152565441754 43.66152565441754 0 0 0 5.987513214418485,-24.277555179777966 Z M 76.7526435969573,-45.975065852018204 L 76.09780310045116,-45.2192987422975 A 42.66152565441754 42.66152565441754 0 0 1 87.5535167364019,-29.35575622178632 L 84.78341831589782,-28.203994640242318 L 90.70264349675526,-23.08415350420077 L 91.24698129707403,-30.89143833051165 L 88.47688287656995,-29.73967674896765 A 43.66152565441754 43.66152565441754 0 0 0 76.7526435969573,-45.975065852018204"/><text text-anchor="middle" pointer-events="none" font-size="8px" fill="#000000" x="45.30956700404701" y="-53.044334172562984" transform="rotate(180 45.30956700404701 -56.044334172562984)" font-family="sans-serif">FLIGHT_TICKET</text></g><g class="relationship" transform="translate(42.376081107851626 51.029154599178085) rotate(428.08241244350006)"><path class="outline" fill="#A5ABB6" stroke="none" d="M 24.018736134675446,-6.953439040707552 L 24.277555179777966,-5.987513214418485 A 159.72239292258377 159.72239292258377 0 0 1 30.293710677148873,-7.475065666001768 L 30.072557956644225,-8.450304854208127 A 160.72239292258377 160.72239292258377 0 0 0 24.018736134675446,-6.953439040707552 Z M 97.12092819066461,-9.31201639890648 L 96.92491209595435,-8.33141572043715 A 159.72239292258377 159.72239292258377 0 0 1 102.97731046550382,-6.9989693834191975 L 102.2755824726208,-4.0821941394203805 L 109.90007403364822,-5.847733274025263 L 103.91294778934785,-10.888003042084286 L 103.21121979646483,-7.971227798085469 A 160.72239292258377 160.72239292258377 0 0 0 97.12092819066461,-9.31201639890648"/><text text-anchor="middle" pointer-events="none" font-size="8px" fill="#000000" x="63.55773017118481" y="-8.916690955447137" font-family="sans-serif">FLIGHT_TICKET</text></g><g class="relationship" transform="translate(42.376081107851626 51.029154599178085) rotate(428.08241244350006)"><path class="outline" fill="#A5ABB6" stroke="none" d="M 17.324116139070416,-18.03122292025696 L 18.031222920256962,-17.324116139070412 A 67.29610115940864 67.29610115940864 0 0 1 31.46926428812796,-27.727501870506444 L 30.961842795336345,-28.589199862063303 A 68.29610115940864 68.29610115940864 0 0 0 17.324116139070416,-18.03122292025696 Z M 96.00277443224141,-30.90268641389566 L 95.55785852168559,-30.00711406476116 A 67.29610115940864 67.29610115940864 0 0 1 109.70109461452452,-20.58478615156067 L 107.73585406755993,-18.318108055190066 L 115.31755026388338,-16.377004558038365 L 112.32141534381066,-23.607023613388144 L 110.35617479684606,-21.34034551701754 A 68.29610115940864 68.29610115940864 0 0 0 96.00277443224141,-30.90268641389566"/><text text-anchor="middle" pointer-events="none" font-size="8px" fill="#000000" x="63.206789352130194" y="-34.49184053599954" font-family="sans-serif">FLIGHT_TICKET</text></g><g class="relationship" transform="translate(42.376081107851626 51.029154599178085) rotate(428.08241244350006)"><path class="outline" fill="#A5ABB6" stroke="none" d="M 5.987513214418485,-24.277555179777966 L 6.953439040707552,-24.018736134675446 A 60.73273098221025 60.73273098221025 0 0 1 31.347671942574003,-58.44069796514184 L 30.783411454025334,-59.26629478021735 A 61.73273098221025 61.73273098221025 0 0 0 5.987513214418485,-24.277555179777966 Z M 95.2237715516392,-62.469631095492616 L 94.74417152936446,-61.59214387699079 A 60.73273098221025 60.73273098221025 0 0 1 122.43194280653066,-29.75918333556579 L 119.62545660921069,-28.699166720482562 L 125.37306260794485,-23.387384977666404 L 126.17392440295728,-31.17253882234343 L 123.36743820563731,-30.112522207260202 A 61.73273098221025 61.73273098221025 0 0 0 95.2237715516392,-62.469631095492616"/><text text-anchor="middle" pointer-events="none" font-size="8px" fill="#000000" x="62.576621530937096" y="-66.45716370600132" font-family="sans-serif">FLIGHT_TICKET</text></g><g class="relationship" transform="translate(-1.7348277022888445 141.1093935733182) rotate(338.1325253046658)"><path class="outline" fill="#A5ABB6" stroke="none" d="M 24.018736134675446,-6.953439040707552 L 24.277555179777966,-5.987513214418485 A 123.76274869624433 123.76274869624433 0 0 1 25.0559274491673,-6.193366174439333 L 24.803397633074226,-7.160955287639766 A 124.76274869624433 124.76274869624433 0 0 0 24.018736134675446,-6.953439040707552 Z M 84.24157408815425,-8.037743475480909 L 84.01769426213698,-7.063126718236063 A 123.76274869624433 123.76274869624433 0 0 1 84.80179971914359,-6.880322278475639 L 84.11115358201383,-3.9609031730254203 L 91.72888532138239,-5.755384476081256 L 85.7226612353166,-10.772881085742597 L 85.03201509818683,-7.853461980292378 A 124.76274869624433 124.76274869624433 0 0 0 84.24157408815425,-8.037743475480909"/><text text-anchor="middle" pointer-events="none" font-size="8px" fill="#000000" x="54.47687849990818" y="-7.691109045854958" font-family="sans-serif">FLIGHT_TIC…</text></g><g class="relationship" transform="translate(-1.7348277022888445 141.1093935733182) rotate(338.1325253046658)"><path class="outline" fill="#A5ABB6" stroke="none" d="M 17.324116139070416,-18.03122292025696 L 18.031222920256962,-17.324116139070412 A 54.13395786151799 54.13395786151799 0 0 1 23.24069648620503,-21.904997854083575 L 22.629822712390208,-22.69672585817667 A 55.13395786151799 55.13395786151799 0 0 0 17.324116139070416,-18.03122292025696 Z M 86.31198740631477,-25.301619021261644 L 85.76781686326997,-24.46264439704329 A 54.13395786151799 54.13395786151799 0 0 1 91.33401894432109,-20.322537331500687 L 89.39303908373257,-18.035050242839905 L 96.99498546129433,-16.174832171570948 L 93.92199209177245,-23.372520116381732 L 91.98101223118394,-21.08503302772095 A 55.13395786151799 55.13395786151799 0 0 0 86.31198740631477,-25.301619021261644"/><text text-anchor="middle" pointer-events="none" font-size="8px" fill="#000000" x="54.07679894880446" y="-30.633936196816492" font-family="sans-serif">FLIGHT_TICKET</text></g><g class="relationship" transform="translate(-1.7348277022888445 141.1093935733182) rotate(338.1325253046658)"><path class="outline" fill="#A5ABB6" stroke="none" d="M 5.987513214418485,-24.277555179777966 L 6.953439040707552,-24.018736134675446 A 51.09737335165221 51.09737335165221 0 0 1 23.008430224907244,-49.54897171108303 L 22.356708243769063,-50.307429659357894 A 52.09737335165221 52.09737335165221 0 0 0 5.987513214418485,-24.277555179777966 Z M 85.52151196187218,-53.93083533606004 L 84.96079654637336,-53.10282674744396 A 51.09737335165221 51.09737335165221 0 0 1 103.82991314002585,-29.575988679255914 L 101.03993402330754,-28.473257284819482 L 106.86794957983058,-23.249825972652594 L 107.54988529565027,-31.046297205171157 L 104.75990617893196,-29.943565810734725 A 52.09737335165221 52.09737335165221 0 0 0 85.52151196187218,-53.93083533606004"/><text text-anchor="middle" pointer-events="none" font-size="8px" fill="#000000" x="53.35472160271896" y="-59.306450230686195" font-family="sans-serif">FLIGHT_TICKET</text></g></g><g class="layer nodes"><g class="node" transform="translate(92.47169969513625,175.53547120238332)"><circle class="outline" cx="0" cy="0" r="25" fill="#ECB5C9" stroke="#da7298" stroke-width="2px"/><text text-anchor="middle" pointer-events="none" font-family="sans-serif" dy="1.5625" font-size="25" fill="#2A2C34"/><text text-anchor="middle" pointer-events="none" x="0" y="5" font-size="10px" fill="#2A2C34" font-family="sans-serif"> LAX</text></g><g class="node" transform="translate(161.45225343264198,75.24069302070478)"><circle class="outline" cx="0" cy="0" r="25" fill="#ECB5C9" stroke="#da7298" stroke-width="2px"/><text text-anchor="middle" pointer-events="none" font-family="sans-serif" dy="1.5625" font-size="25" fill="#2A2C34"/><text text-anchor="middle" pointer-events="none" x="0" y="5" font-size="10px" fill="#2A2C34" font-family="sans-serif"> LAS</text></g><g class="node" transform="translate(105.97197111135048,97.88254489526142)"><circle class="outline" cx="0" cy="0" r="25" fill="#ECB5C9" stroke="#da7298" stroke-width="2px"/><text text-anchor="middle" pointer-events="none" font-family="sans-serif" dy="1.5625" font-size="25" fill="#2A2C34"/><text text-anchor="middle" pointer-events="none" x="0" y="5" font-size="10px" fill="#2A2C34" font-family="sans-serif"> EWR</text></g><g class="node" transform="translate(42.376081107851626,51.029154599178085)"><circle class="outline" cx="0" cy="0" r="25" fill="#ECB5C9" stroke="#da7298" stroke-width="2px"/><text text-anchor="middle" pointer-events="none" font-family="sans-serif" dy="1.5625" font-size="25" fill="#2A2C34"/><text text-anchor="middle" pointer-events="none" x="0" y="5" font-size="10px" fill="#2A2C34" font-family="sans-serif"> ORD</text></g><g class="node" transform="translate(-1.7348277022888445,141.1093935733182)"><circle class="outline" cx="0" cy="0" r="25" fill="#ECB5C9" stroke="#da7298" stroke-width="2px"/><text text-anchor="middle" pointer-events="none" font-family="sans-serif" dy="1.5625" font-size="25" fill="#2A2C34"/><text text-anchor="middle" pointer-events="none" x="0" y="5" font-size="10px" fill="#2A2C34" font-family="sans-serif"> IAH</text></g></g></svg>