<svg xmlns="http://www.w3.org/2000/svg" width="391.96710205078125" height="381.34918212890625" viewBox="-96.0326919555664 -90.89500427246094 391.96710205078125 381.34918212890625"><title>Neo4j Graph Visualization</title><desc>Created using Neo4j (http://www.neo4j.com/)</desc><g class="layer relationships"><g class="relationship" transform="translate(266.9344068539953 47.82255606910482) rotate(226.40789529813026)"><path class="outline" fill="#A5ABB6" stroke="none" d="M 21.40063509461097,12.933012701892217 L 21.90063509461097,12.06698729810778 A 57.945569377506864 57.945569377506864 0 0 0 39.54474228065674,18.712023019872056 L 39.34923678085048,19.692725624918822 A 58.945569377506864 58.945569377506864 0 0 1 21.40063509461097,12.933012701892217 Z M 58.752236030205424,20.301297101097617 L 58.61857346099038,19.310270200559174 A 57.945569377506864 57.945569377506864 0 0 0 76.6444308904643,13.784016309497368 L 75.31019543205304,11.097044828160417 L 83.13640358998573,11.118628820093901 L 78.42341150167934,17.366644951279966 L 77.08917604326807,14.679673469943015 A 58.945569377506864 58.945569377506864 0 0 1 58.752236030205424,20.301297101097617"/><text text-anchor="middle" pointer-events="none" font-size="8px" fill="#000000" x="49.04118633926056" y="23.301494789968977" transform="rotate(180 49.04118633926056 20.301494789968977)" font-family="sans-serif">trek</text></g><g class="relationship" transform="translate(194.17088241023032 -28.60775836184001) rotate(198.48380282650197)"><path class="outline" fill="#A5ABB6" stroke="none" d="M 25 0.5 L 39.329518294351146 0.5 L 39.329518294351146 -0.5 L 25 -0.5 Z M 58.665455794351146 0.5 L 72.99497408870229 0.5 L 72.99497408870229 3.5 L 79.99497408870229 0 L 72.99497408870229 -3.5 L 72.99497408870229 -0.5 L 58.665455794351146 -0.5 Z"/><text text-anchor="middle" pointer-events="none" font-size="8px" fill="#000000" x="48.997487044351146" y="3" transform="rotate(180 48.997487044351146 0)" font-family="sans-serif">trek</text></g><g class="relationship" transform="translate(94.59225072058254 -61.89500358737261) rotate(526.669737541586)"><path class="outline" fill="#A5ABB6" stroke="none" d="M 25 0.5 L 39.611554859585304 0.5 L 39.611554859585304 -0.5 L 25 -0.5 Z M 58.947492359585304 0.5 L 73.55904721917061 0.5 L 73.55904721917061 3.5 L 80.55904721917061 0 L 73.55904721917061 -3.5 L 73.55904721917061 -0.5 L 58.947492359585304 -0.5 Z"/><text text-anchor="middle" pointer-events="none" font-size="8px" fill="#000000" x="49.279523609585304" y="3" transform="rotate(180 49.279523609585304 0)" font-family="sans-serif">trek</text></g><g class="relationship" transform="translate(-67.03269168806816 152.12176055868622) rotate(406.2420790538391)"><path class="outline" fill="#A5ABB6" stroke="none" d="M 21.40063509461097,12.933012701892217 L 21.90063509461097,12.06698729810778 A 57.937953786528986 57.937953786528986 0 0 0 39.54108119085875,18.710882100970977 L 39.34555252516309,19.69158008755567 A 58.937953786528986 58.937953786528986 0 0 1 21.40063509461097,12.933012701892217 Z M 58.74854885938255,20.300191570898846 L 58.61486697249445,19.309167275980684 A 57.937953786528986 57.937953786528986 0 0 0 76.6370218241773,13.783897044752187 L 75.30279746075355,11.096920054146103 L 83.12900552949544,11.118536361864479 L 78.41598764207562,17.366533032226965 L 77.08176327865188,14.67955604162088 A 58.937953786528986 58.937953786528986 0 0 1 58.74854885938255,20.300191570898846"/><text text-anchor="middle" pointer-events="none" font-size="8px" fill="#000000" x="49.037496696996605" y="23.300474454968068" font-family="sans-serif">trek</text></g><g class="relationship" transform="translate(5.946635233730628 228.3358644810968) rotate(378.38931056856677)"><path class="outline" fill="#A5ABB6" stroke="none" d="M 25 0.5 L 39.322169535965294 0.5 L 39.322169535965294 -0.5 L 25 -0.5 Z M 58.658107035965294 0.5 L 72.98027657193059 0.5 L 72.98027657193059 3.5 L 79.98027657193059 0 L 72.98027657193059 -3.5 L 72.98027657193059 -0.5 L 58.658107035965294 -0.5 Z"/><text text-anchor="middle" pointer-events="none" font-size="8px" fill="#000000" x="48.990138285965294" y="3" font-family="sans-serif">trek</text></g><g class="relationship" transform="translate(105.5660818507093 261.4542026768151) rotate(346.852020105315)"><path class="outline" fill="#A5ABB6" stroke="none" d="M 25 0.5 L 39.60602173419987 0.5 L 39.60602173419987 -0.5 L 25 -0.5 Z M 58.94195923419987 0.5 L 73.54798096839974 0.5 L 73.54798096839974 3.5 L 80.54798096839974 0 L 73.54798096839974 -3.5 L 73.54798096839974 -0.5 L 58.94195923419987 -0.5 Z"/><text text-anchor="middle" pointer-events="none" font-size="8px" fill="#000000" x="49.27399048419987" y="3" font-family="sans-serif">trek</text></g><g class="relationship" transform="translate(266.9344068539953 47.82255606910482) rotate(226.40789529813026)"><path class="outline" fill="#A5ABB6" stroke="none" d="M 25 0.5 L 38.258056925563494 0.5 L 38.258056925563494 -0.5 L 25 -0.5 Z M 60.269775675563494 0.5 L 73.52783260112699 0.5 L 73.52783260112699 3.5 L 80.52783260112699 0 L 73.52783260112699 -3.5 L 73.52783260112699 -0.5 L 60.269775675563494 -0.5 Z"/><text text-anchor="middle" pointer-events="none" font-size="8px" fill="#000000" x="49.263916300563494" y="3" transform="rotate(180 49.263916300563494 0)" font-family="sans-serif">road</text></g><g class="relationship" transform="translate(266.9344068539953 47.82255606910482) rotate(226.40789529813026)"><path class="outline" fill="#A5ABB6" stroke="none" d="M 21.40063509461097,-12.933012701892217 L 21.90063509461097,-12.06698729810778 A 57.945569377506864 57.945569377506864 0 0 1 22.587485474413626,-12.457321980960664 L 22.099338846244834,-13.330083614745881 A 58.945569377506864 58.945569377506864 0 0 0 21.40063509461097,-12.933012701892217 Z M 76.36696201056725,-15.032177559779875 L 75.93446907689255,-14.13054023672727 A 57.945569377506864 57.945569377506864 0 0 1 76.6444308904643,-13.784016309497368 L 75.31019543205304,-11.097044828160417 L 83.13640358998573,-11.118628820093901 L 78.42341150167934,-17.366644951279966 L 77.08917604326807,-14.679673469943015 A 58.945569377506864 58.945569377506864 0 0 0 76.36696201056725,-15.032177559779875"/><text text-anchor="middle" pointer-events="none" font-size="8px" fill="#000000" x="49.04118633926057" y="-17.301494789968977" transform="rotate(180 49.04118633926057 -20.301494789968977)" font-family="sans-serif">PublicTrans…</text></g><g class="relationship" transform="translate(-67.03269168806816 152.12176055868622) rotate(406.2420790538391)"><path class="outline" fill="#A5ABB6" stroke="none" d="M 25 0.5 L 38.2543808506064 0.5 L 38.2543808506064 -0.5 L 25 -0.5 Z M 60.2660996006064 0.5 L 73.5204804512128 0.5 L 73.5204804512128 3.5 L 80.5204804512128 0 L 73.5204804512128 -3.5 L 73.5204804512128 -0.5 L 60.2660996006064 -0.5 Z"/><text text-anchor="middle" pointer-events="none" font-size="8px" fill="#000000" x="49.2602402256064" y="3" font-family="sans-serif">road</text></g><g class="relationship" transform="translate(-67.03269168806816 152.12176055868622) rotate(406.2420790538391)"><path class="outline" fill="#A5ABB6" stroke="none" d="M 21.40063509461097,-12.933012701892217 L 21.90063509461097,-12.06698729810778 A 57.937953786528986 57.937953786528986 0 0 1 22.58413695305742,-12.455448161789398 L 22.095934087988432,-13.32817833918584 A 58.937953786528986 58.937953786528986 0 0 0 21.40063509461097,-12.933012701892217 Z M 76.36306526311401,-15.030369002543537 L 75.93051795467547,-14.128757763725737 A 57.937953786528986 57.937953786528986 0 0 1 76.6370218241773,-13.783897044752187 L 75.30279746075355,-11.096920054146103 L 83.12900552949544,-11.118536361864479 L 78.41598764207562,-17.366533032226965 L 77.08176327865188,-14.67955604162088 A 58.937953786528986 58.937953786528986 0 0 0 76.36306526311401,-15.030369002543537"/><text text-anchor="middle" pointer-events="none" font-size="8px" fill="#000000" x="49.0374966969966" y="-17.300474454968068" font-family="sans-serif">PublicTrans…</text></g></g><g class="layer nodes"><g class="node" transform="translate(266.9344068539953,47.82255606910482)"><circle class="outline" cx="0" cy="0" r="25" fill="#F16667" stroke="#eb2728" stroke-width="2px"/><text text-anchor="middle" pointer-events="none" font-family="sans-serif" dy="1.5625" font-size="25" fill="#FFFFFF"/><text text-anchor="middle" pointer-events="none" x="0" y="5" font-size="10px" fill="#FFFFFF" font-family="sans-serif"> Darjeeling</text></g><g class="node" transform="translate(-8.122743312310025,-37.556917166252035)"><circle class="outline" cx="0" cy="0" r="25" fill="#8DCC93" stroke="#5db665" stroke-width="2px"/><text text-anchor="middle" pointer-events="none" font-family="sans-serif" dy="1.5625" font-size="25" fill="#2A2C34"/><text text-anchor="middle" pointer-events="none" x="0" y="5" font-size="10px" fill="#2A2C34" font-family="sans-serif"> Sandak…</text></g><g class="node" transform="translate(-67.03269168806816,152.12176055868622)"><circle class="outline" cx="0" cy="0" r="25" fill="#F16667" stroke="#eb2728" stroke-width="2px"/><text text-anchor="middle" pointer-events="none" font-family="sans-serif" dy="1.5625" font-size="25" fill="#FFFFFF"/><text text-anchor="middle" pointer-events="none" x="0" y="5" font-size="10px" fill="#FFFFFF" font-family="sans-serif"> Darjeeling</text></g><g class="node" transform="translate(208.34720972056476,237.4455367349912)"><circle class="outline" cx="0" cy="0" r="25" fill="#8DCC93" stroke="#5db665" stroke-width="2px"/><text text-anchor="middle" pointer-events="none" font-family="sans-serif" dy="1.5625" font-size="25" fill="#2A2C34"/><text text-anchor="middle" pointer-events="none" x="0" y="5" font-size="10px" fill="#2A2C34" font-family="sans-serif"> Sandak…</text></g><g class="node" transform="translate(194.17088241023032,-28.60775836184001)"><circle class="outline" cx="0" cy="0" r="25" fill="#F16667" stroke="#eb2728" stroke-width="2px"/><text text-anchor="middle" pointer-events="none" font-family="sans-serif" dy="1.5625" font-size="25" fill="#FFFFFF"/><text text-anchor="middle" pointer-events="none" x="0" y="5" font-size="10px" fill="#FFFFFF" font-family="sans-serif"> Rimbik</text></g><g class="node" transform="translate(94.59225072058254,-61.89500358737261)"><circle class="outline" cx="0" cy="0" r="25" fill="#D9C8AE" stroke="#c0a378" stroke-width="2px"/><text text-anchor="middle" pointer-events="none" font-family="sans-serif" dy="1.5625" font-size="25" fill="#2A2C34"/><text text-anchor="middle" pointer-events="none" x="0" y="5" font-size="10px" fill="#2A2C34" font-family="sans-serif"> BhikeBh…</text></g><g class="node" transform="translate(5.946635233730628,228.3358644810968)"><circle class="outline" cx="0" cy="0" r="25" fill="#F16667" stroke="#eb2728" stroke-width="2px"/><text text-anchor="middle" pointer-events="none" font-family="sans-serif" dy="1.5625" font-size="25" fill="#FFFFFF"/><text text-anchor="middle" pointer-events="none" x="0" y="5" font-size="10px" fill="#FFFFFF" font-family="sans-serif"> Rimbik</text></g><g class="node" transform="translate(105.5660818507093,261.4542026768151)"><circle class="outline" cx="0" cy="0" r="25" fill="#D9C8AE" stroke="#c0a378" stroke-width="2px"/><text text-anchor="middle" pointer-events="none" font-family="sans-serif" dy="1.5625" font-size="25" fill="#2A2C34"/><text text-anchor="middle" pointer-events="none" x="0" y="5" font-size="10px" fill="#2A2C34" font-family="sans-serif"> BhikeBh…</text></g></g></svg>