<svg xmlns="http://www.w3.org/2000/svg" width="393.001953125" height="378.8056335449219" viewBox="-96.53556823730469 -89.1324462890625 393.001953125 378.8056335449219"><title>Neo4j Graph Visualization</title><desc>Created using Neo4j (http://www.neo4j.com/)</desc><g class="layer relationships"><g class="relationship" transform="translate(267.4664130735163 48.76255304781219) rotate(226.94978627750322)"><path class="outline" fill="#A5ABB6" stroke="none" d="M 21.40063509461097,12.933012701892217 L 21.90063509461097,12.06698729810778 A 57.928992988494684 57.928992988494684 0 0 0 22.58019713140868,12.45324310022383 L 22.09192807996725,13.325936249850024 A 58.928992988494684 58.928992988494684 0 0 1 21.40063509461097,12.933012701892217 Z M 76.3584801088928,15.028240723419188 L 75.92586880455553,14.126660189379322 A 57.928992988494684 57.928992988494684 0 0 0 76.62830406783213,13.783756693581203 L 75.29409276102982,11.096773219720438 L 83.12030072464097,11.118427556685937 L 78.40725247690187,17.366401325395557 L 77.07304117009956,14.679417851534794 A 58.928992988494684 58.928992988494684 0 0 1 76.3584801088928,15.028240723419188"/><text text-anchor="middle" pointer-events="none" font-size="8px" fill="#000000" x="49.033155342295366" y="23.29927388978686" transform="rotate(180 49.033155342295366 20.29927388978686)" font-family="sans-serif">PublicTrans…</text></g><g class="relationship" transform="translate(195.43991762271858 -28.340820121730875) rotate(197.63227780063391)"><path class="outline" fill="#A5ABB6" stroke="none" d="M 25 0.5 L 39.309602872485776 0.5 L 39.309602872485776 -0.5 L 25 -0.5 Z M 58.645540372485776 0.5 L 72.95514324497155 0.5 L 72.95514324497155 3.5 L 79.95514324497155 0 L 72.95514324497155 -3.5 L 72.95514324497155 -0.5 L 58.645540372485776 -0.5 Z"/><text text-anchor="middle" pointer-events="none" font-size="8px" fill="#000000" x="48.977571622485776" y="3" transform="rotate(180 48.977571622485776 0)" font-family="sans-serif">trek</text></g><g class="relationship" transform="translate(95.41554860981499 -60.13244947826103) rotate(527.9533598773291)"><path class="outline" fill="#A5ABB6" stroke="none" d="M 25 0.5 L 39.5832766918522 0.5 L 39.5832766918522 -0.5 L 25 -0.5 Z M 58.9192141918522 0.5 L 73.5024908837044 0.5 L 73.5024908837044 3.5 L 80.5024908837044 0 L 73.5024908837044 -3.5 L 73.5024908837044 -0.5 L 58.9192141918522 -0.5 Z"/><text text-anchor="middle" pointer-events="none" font-size="8px" fill="#000000" x="49.2512454418522" y="3" transform="rotate(180 49.2512454418522 0)" font-family="sans-serif">trek</text></g><g class="relationship" transform="translate(267.4664130735163 48.76255304781219) rotate(226.94978627750322)"><path class="outline" fill="#A5ABB6" stroke="none" d="M 25 0.5 L 39.587946086740345 0.5 L 39.587946086740345 -0.5 L 25 -0.5 Z M 58.923883586740345 0.5 L 73.51182967348069 0.5 L 73.51182967348069 3.5 L 80.51182967348069 0 L 73.51182967348069 -3.5 L 73.51182967348069 -0.5 L 58.923883586740345 -0.5 Z"/><text text-anchor="middle" pointer-events="none" font-size="8px" fill="#000000" x="49.255914836740345" y="3" transform="rotate(180 49.255914836740345 0)" font-family="sans-serif">trek</text></g><g class="relationship" transform="translate(267.4664130735163 48.76255304781219) rotate(226.94978627750322)"><path class="outline" fill="#A5ABB6" stroke="none" d="M 21.40063509461097,-12.933012701892217 L 21.90063509461097,-12.06698729810778 A 57.928992988494684 57.928992988494684 0 0 1 38.239025185260175,-18.435276341462156 L 38.0210668581388,-19.411234418245407 A 58.928992988494684 58.928992988494684 0 0 0 21.40063509461097,-12.933012701892217 Z M 60.07925220295314,-20.10318454566974 L 59.922892486847125,-19.115484368905946 A 57.928992988494684 57.928992988494684 0 0 1 76.62830406783213,-13.783756693581203 L 75.29409276102982,-11.096773219720438 L 83.12030072464097,-11.118427556685937 L 78.40725247690187,-17.366401325395557 L 77.07304117009956,-14.679417851534794 A 58.928992988494684 58.928992988494684 0 0 0 60.07925220295314,-20.10318454566974"/><text text-anchor="middle" pointer-events="none" font-size="8px" fill="#000000" x="49.03315534229538" y="-17.29927388978686" transform="rotate(180 49.03315534229538 -20.29927388978686)" font-family="sans-serif">road</text></g><g class="relationship" transform="translate(-67.53556735484051 151.2428329505502) rotate(406.7050949105267)"><path class="outline" fill="#A5ABB6" stroke="none" d="M 21.40063509461097,12.933012701892217 L 21.90063509461097,12.06698729810778 A 57.9195759788734 57.9195759788734 0 0 0 38.23450849662649,18.433825526811518 L 38.01651804393349,19.409776428514412 A 58.9195759788734 58.9195759788734 0 0 1 21.40063509461097,12.933012701892217 Z M 60.07468963498231,20.101782509784186 L 59.91830245130267,19.11408668171729 A 57.9195759788734 57.9195759788734 0 0 0 76.61914251647832,13.783609173934652 L 75.28494493316937,11.09661888576974 L 83.11115278608128,11.118313194241253 L 78.39807262755691,17.366262891487867 L 77.06387504424796,14.679272603322955 A 58.9195759788734 58.9195759788734 0 0 1 60.07468963498231,20.101782509784186"/><text text-anchor="middle" pointer-events="none" font-size="8px" fill="#000000" x="49.02859298491035" y="23.29801220189041" font-family="sans-serif">road</text></g><g class="relationship" transform="translate(4.813319036063851 228.03128568520273) rotate(378.1194386046419)"><path class="outline" fill="#A5ABB6" stroke="none" d="M 25 0.5 L 39.311151277819214 0.5 L 39.311151277819214 -0.5 L 25 -0.5 Z M 58.647088777819214 0.5 L 72.95824005563843 0.5 L 72.95824005563843 3.5 L 79.95824005563843 0 L 72.95824005563843 -3.5 L 72.95824005563843 -0.5 L 58.647088777819214 -0.5 Z"/><text text-anchor="middle" pointer-events="none" font-size="8px" fill="#000000" x="48.979120027819214" y="3" font-family="sans-serif">trek</text></g><g class="relationship" transform="translate(104.56670877452778 260.67318194236185) rotate(347.6395732163901)"><path class="outline" fill="#A5ABB6" stroke="none" d="M 25 0.5 L 39.58989539227093 0.5 L 39.58989539227093 -0.5 L 25 -0.5 Z M 58.92583289227093 0.5 L 73.51572828454186 0.5 L 73.51572828454186 3.5 L 80.51572828454186 0 L 73.51572828454186 -3.5 L 73.51572828454186 -0.5 L 58.92583289227093 -0.5 Z"/><text text-anchor="middle" pointer-events="none" font-size="8px" fill="#000000" x="49.25786414227093" y="3" font-family="sans-serif">trek</text></g><g class="relationship" transform="translate(-67.53556735484051 151.2428329505502) rotate(406.7050949105267)"><path class="outline" fill="#A5ABB6" stroke="none" d="M 25 0.5 L 39.58340051039444 0.5 L 39.58340051039444 -0.5 L 25 -0.5 Z M 58.91933801039444 0.5 L 73.50273852078888 0.5 L 73.50273852078888 3.5 L 80.50273852078888 0 L 73.50273852078888 -3.5 L 73.50273852078888 -0.5 L 58.91933801039444 -0.5 Z"/><text text-anchor="middle" pointer-events="none" font-size="8px" fill="#000000" x="49.25136926039444" y="3" font-family="sans-serif">trek</text></g><g class="relationship" transform="translate(-67.53556735484051 151.2428329505502) rotate(406.7050949105267)"><path class="outline" fill="#A5ABB6" stroke="none" d="M 21.40063509461097,-12.933012701892217 L 21.90063509461097,-12.06698729810778 A 57.9195759788734 57.9195759788734 0 0 1 22.576056932970573,-12.450925479035647 L 22.08771830698695,-13.32357969828427 A 58.9195759788734 58.9195759788734 0 0 0 21.40063509461097,-12.933012701892217 Z M 76.35366140961295,-15.026003785333046 L 75.92098283204297,-14.124455534537773 A 57.9195759788734 57.9195759788734 0 0 1 76.61914251647832,-13.783609173934652 L 75.28494493316937,-11.09661888576974 L 83.11115278608128,-11.118313194241253 L 78.39807262755691,-17.366262891487867 L 77.06387504424796,-14.679272603322955 A 58.9195759788734 58.9195759788734 0 0 0 76.35366140961295,-15.026003785333046"/><text text-anchor="middle" pointer-events="none" font-size="8px" fill="#000000" x="49.02859298491033" y="-17.29801220189041" font-family="sans-serif">PublicTrans…</text></g></g><g class="layer nodes"><g class="node" transform="translate(267.4664130735163,48.76255304781219)"><circle class="outline" cx="0" cy="0" r="25" fill="#F16667" stroke="#eb2728" stroke-width="2px"/><text text-anchor="middle" pointer-events="none" font-family="sans-serif" dy="1.5625" font-size="25" fill="#FFFFFF"/><text text-anchor="middle" pointer-events="none" x="0" y="5" font-size="10px" fill="#FFFFFF" font-family="sans-serif"> Darjeeling</text></g><g class="node" transform="translate(-7.763569756755932,-38.113250678956874)"><circle class="outline" cx="0" cy="0" r="25" fill="#8DCC93" stroke="#5db665" stroke-width="2px"/><text text-anchor="middle" pointer-events="none" font-family="sans-serif" dy="1.5625" font-size="25" fill="#2A2C34"/><text text-anchor="middle" pointer-events="none" x="0" y="5" font-size="10px" fill="#2A2C34" font-family="sans-serif"> Sandak…</text></g><g class="node" transform="translate(-67.53556735484051,151.2428329505502)"><circle class="outline" cx="0" cy="0" r="25" fill="#F16667" stroke="#eb2728" stroke-width="2px"/><text text-anchor="middle" pointer-events="none" font-family="sans-serif" dy="1.5625" font-size="25" fill="#FFFFFF"/><text text-anchor="middle" pointer-events="none" x="0" y="5" font-size="10px" fill="#FFFFFF" font-family="sans-serif"> Darjeeling</text></g><g class="node" transform="translate(207.63662039854574,238.08641074251136)"><circle class="outline" cx="0" cy="0" r="25" fill="#8DCC93" stroke="#5db665" stroke-width="2px"/><text text-anchor="middle" pointer-events="none" font-family="sans-serif" dy="1.5625" font-size="25" fill="#2A2C34"/><text text-anchor="middle" pointer-events="none" x="0" y="5" font-size="10px" fill="#2A2C34" font-family="sans-serif"> Sandak…</text></g><g class="node" transform="translate(195.43991762271858,-28.340820121730875)"><circle class="outline" cx="0" cy="0" r="25" fill="#F16667" stroke="#eb2728" stroke-width="2px"/><text text-anchor="middle" pointer-events="none" font-family="sans-serif" dy="1.5625" font-size="25" fill="#FFFFFF"/><text text-anchor="middle" pointer-events="none" x="0" y="5" font-size="10px" fill="#FFFFFF" font-family="sans-serif"> Rimbik</text></g><g class="node" transform="translate(95.41554860981499,-60.13244947826103)"><circle class="outline" cx="0" cy="0" r="25" fill="#D9C8AE" stroke="#c0a378" stroke-width="2px"/><text text-anchor="middle" pointer-events="none" font-family="sans-serif" dy="1.5625" font-size="25" fill="#2A2C34"/><text text-anchor="middle" pointer-events="none" x="0" y="5" font-size="10px" fill="#2A2C34" font-family="sans-serif"> BhikeBh…</text></g><g class="node" transform="translate(4.813319036063851,228.03128568520273)"><circle class="outline" cx="0" cy="0" r="25" fill="#F16667" stroke="#eb2728" stroke-width="2px"/><text text-anchor="middle" pointer-events="none" font-family="sans-serif" dy="1.5625" font-size="25" fill="#FFFFFF"/><text text-anchor="middle" pointer-events="none" x="0" y="5" font-size="10px" fill="#FFFFFF" font-family="sans-serif"> Rimbik</text></g><g class="node" transform="translate(104.56670877452778,260.67318194236185)"><circle class="outline" cx="0" cy="0" r="25" fill="#D9C8AE" stroke="#c0a378" stroke-width="2px"/><text text-anchor="middle" pointer-events="none" font-family="sans-serif" dy="1.5625" font-size="25" fill="#2A2C34"/><text text-anchor="middle" pointer-events="none" x="0" y="5" font-size="10px" fill="#2A2C34" font-family="sans-serif"> BhikeBh…</text></g></g></svg>