<svg xmlns="http://www.w3.org/2000/svg" width="570.578369140625" height="574.1461181640625" viewBox="-153.13265991210938 -148.093017578125 570.578369140625 574.1461181640625"><title>Neo4j Graph Visualization</title><desc>Created using Neo4j (http://www.neo4j.com/)</desc><g class="layer relationships"><g class="relationship" transform="translate(36.337720202106226 394.94374553070196) rotate(361.1063281156005)"><path class="outline" fill="#A5ABB6" stroke="none" d="M 25 0.5 L 28.34250152802803 0.5 L 28.34250152802803 -0.5 L 25 -0.5 Z M 73.90500152802804 0.5 L 77.24750305605606 0.5 L 77.24750305605606 3.5 L 84.24750305605606 0 L 77.24750305605606 -3.5 L 77.24750305605606 -0.5 L 73.90500152802804 -0.5 Z"/><text text-anchor="middle" pointer-events="none" font-size="8px" fill="#000000" x="51.12375152802803" y="3" font-family="sans-serif">ACTED_IN</text></g><g class="relationship" transform="translate(250.6418346602225 365.24133970333537) rotate(523.1564678969082)"><path class="outline" fill="#A5ABB6" stroke="none" d="M 25 0.5 L 28.612187621371163 0.5 L 28.612187621371163 -0.5 L 25 -0.5 Z M 74.17468762137116 0.5 L 77.78687524274233 0.5 L 77.78687524274233 3.5 L 84.78687524274233 0 L 77.78687524274233 -3.5 L 77.78687524274233 -0.5 L 74.17468762137116 -0.5 Z"/><text text-anchor="middle" pointer-events="none" font-size="8px" fill="#000000" x="51.39343762137116" y="3" transform="rotate(180 51.39343762137116 0)" font-family="sans-serif">ACTED_IN</text></g><g class="relationship" transform="translate(141.89260452831857 289.7002648258135) rotate(448.04082818950354)"><path class="outline" fill="#A5ABB6" stroke="none" d="M 25 0.5 L 27.426553873832724 0.5 L 27.426553873832724 -0.5 L 25 -0.5 Z M 72.98905387383272 0.5 L 75.41560774766545 0.5 L 75.41560774766545 3.5 L 82.41560774766545 0 L 75.41560774766545 -3.5 L 75.41560774766545 -0.5 L 72.98905387383272 -0.5 Z"/><text text-anchor="middle" pointer-events="none" font-size="8px" fill="#000000" x="50.207803873832724" y="3" font-family="sans-serif">ACTED_IN</text></g><g class="relationship" transform="translate(364.89229737750696 125.9355287523543) rotate(241.40837568687812)"><path class="outline" fill="#A5ABB6" stroke="none" d="M 25 0.5 L 28.568362607887366 0.5 L 28.568362607887366 -0.5 L 25 -0.5 Z M 74.13086260788737 0.5 L 77.69922521577473 0.5 L 77.69922521577473 3.5 L 84.69922521577473 0 L 77.69922521577473 -3.5 L 77.69922521577473 -0.5 L 74.13086260788737 -0.5 Z"/><text text-anchor="middle" pointer-events="none" font-size="8px" fill="#000000" x="51.349612607887366" y="3" transform="rotate(180 51.349612607887366 0)" font-family="sans-serif">ACTED_IN</text></g><g class="relationship" transform="translate(388.44570036187196 -44.47093792857613) rotate(495.7505034040507)"><path class="outline" fill="#A5ABB6" stroke="none" d="M 25 0.5 L 26.804462409148584 0.5 L 26.804462409148584 -0.5 L 25 -0.5 Z M 72.36696240914858 0.5 L 74.17142481829717 0.5 L 74.17142481829717 3.5 L 81.17142481829717 0 L 74.17142481829717 -3.5 L 74.17142481829717 -0.5 L 72.36696240914858 -0.5 Z"/><text text-anchor="middle" pointer-events="none" font-size="8px" fill="#000000" x="49.585712409148584" y="3" transform="rotate(180 49.585712409148584 0)" font-family="sans-serif">ACTED_IN</text></g><g class="relationship" transform="translate(264.47412907309524 -73.02026559110217) rotate(424.9720025024986)"><path class="outline" fill="#A5ABB6" stroke="none" d="M 25 0.5 L 30.35374317209186 0.5 L 30.35374317209186 -0.5 L 25 -0.5 Z M 75.91624317209187 0.5 L 81.26998634418372 0.5 L 81.26998634418372 3.5 L 88.26998634418372 0 L 81.26998634418372 -3.5 L 81.26998634418372 -0.5 L 75.91624317209187 -0.5 Z"/><text text-anchor="middle" pointer-events="none" font-size="8px" fill="#000000" x="53.13499317209186" y="3" font-family="sans-serif">ACTED_IN</text></g><g class="relationship" transform="translate(208.67961843479281 55.159052945579774) rotate(346.163277873633)"><path class="outline" fill="#A5ABB6" stroke="none" d="M 25 0.5 L 27.125877332844986 0.5 L 27.125877332844986 -0.5 L 25 -0.5 Z M 72.688377332845 0.5 L 74.81425466568997 0.5 L 74.81425466568997 3.5 L 81.81425466568997 0 L 74.81425466568997 -3.5 L 74.81425466568997 -0.5 L 72.688377332845 -0.5 Z"/><text text-anchor="middle" pointer-events="none" font-size="8px" fill="#000000" x="49.907127332844986" y="3" font-family="sans-serif">ACTED_IN</text></g><g class="relationship" transform="translate(2.412804655513389 -9.36201162659593) rotate(250.02924877859368)"><path class="outline" fill="#A5ABB6" stroke="none" d="M 25 0.5 L 32.094565306216836 0.5 L 32.094565306216836 -0.5 L 25 -0.5 Z M 77.65706530621684 0.5 L 84.75163061243367 0.5 L 84.75163061243367 3.5 L 91.75163061243367 0 L 84.75163061243367 -3.5 L 84.75163061243367 -0.5 L 77.65706530621684 -0.5 Z"/><text text-anchor="middle" pointer-events="none" font-size="8px" fill="#000000" x="54.875815306216836" y="3" transform="rotate(180 54.875815306216836 0)" font-family="sans-serif">ACTED_IN</text></g><g class="relationship" transform="translate(2.412804655513389 -9.36201162659593) rotate(507.4146572137195)"><path class="outline" fill="#A5ABB6" stroke="none" d="M 25 0.5 L 43.540939908362915 0.5 L 43.540939908362915 -0.5 L 25 -0.5 Z M 89.10343990836292 0.5 L 107.64437981672583 0.5 L 107.64437981672583 3.5 L 114.64437981672583 0 L 107.64437981672583 -3.5 L 107.64437981672583 -0.5 L 89.10343990836292 -0.5 Z"/><text text-anchor="middle" pointer-events="none" font-size="8px" fill="#000000" x="66.32218990836292" y="3" transform="rotate(180 66.32218990836292 0)" font-family="sans-serif">ACTED_IN</text></g><g class="relationship" transform="translate(2.412804655513389 -9.36201162659593) rotate(475.9239709346205)"><path class="outline" fill="#A5ABB6" stroke="none" d="M 25 0.5 L 25.74293281955461 0.5 L 25.74293281955461 -0.5 L 25 -0.5 Z M 66.85621406955461 0.5 L 67.59914688910922 0.5 L 67.59914688910922 3.5 L 74.59914688910922 0 L 67.59914688910922 -3.5 L 67.59914688910922 -0.5 L 66.85621406955461 -0.5 Z"/><text text-anchor="middle" pointer-events="none" font-size="8px" fill="#000000" x="46.29957344455461" y="3" transform="rotate(180 46.29957344455461 0)" font-family="sans-serif">ACTED…</text></g><g class="relationship" transform="translate(-60.91361408420509 -23.836451685677428) rotate(283.8304929212936)"><path class="outline" fill="#A5ABB6" stroke="none" d="M 25 0.5 L 27.882427800802567 0.5 L 27.882427800802567 -0.5 L 25 -0.5 Z M 63.21836530080257 0.5 L 66.10079310160513 0.5 L 66.10079310160513 3.5 L 73.10079310160513 0 L 66.10079310160513 -3.5 L 66.10079310160513 -0.5 L 63.21836530080257 -0.5 Z"/><text text-anchor="middle" pointer-events="none" font-size="8px" fill="#000000" x="45.55039655080257" y="3" font-family="sans-serif">ACTE…</text></g><g class="relationship" transform="translate(-60.91361408420509 -23.836451685677428) rotate(481.2112320453952)"><path class="outline" fill="#A5ABB6" stroke="none" d="M 25 0.5 L 26.147468905670863 0.5 L 26.147468905670863 -0.5 L 25 -0.5 Z M 71.70996890567086 0.5 L 72.85743781134173 0.5 L 72.85743781134173 3.5 L 79.85743781134173 0 L 72.85743781134173 -3.5 L 72.85743781134173 -0.5 L 71.70996890567086 -0.5 Z"/><text text-anchor="middle" pointer-events="none" font-size="8px" fill="#000000" x="48.92871890567086" y="3" transform="rotate(180 48.92871890567086 0)" font-family="sans-serif">ACTED_IN</text></g><g class="relationship" transform="translate(-60.91361408420509 -23.836451685677428) rotate(439.2345482397708)"><path class="outline" fill="#A5ABB6" stroke="none" d="M 25 0.5 L 26.676512615428848 0.5 L 26.676512615428848 -0.5 L 25 -0.5 Z M 72.23901261542885 0.5 L 73.9155252308577 0.5 L 73.9155252308577 3.5 L 80.9155252308577 0 L 73.9155252308577 -3.5 L 73.9155252308577 -0.5 L 72.23901261542885 -0.5 Z"/><text text-anchor="middle" pointer-events="none" font-size="8px" fill="#000000" x="49.45776261542885" y="3" font-family="sans-serif">ACTED_IN</text></g><g class="relationship" transform="translate(-124.13266985763781 -29.224778066804532) rotate(313.9621415635805)"><path class="outline" fill="#A5ABB6" stroke="none" d="M 25 0.5 L 36.1447149004089 0.5 L 36.1447149004089 -0.5 L 25 -0.5 Z M 81.7072149004089 0.5 L 92.8519298008178 0.5 L 92.8519298008178 3.5 L 99.8519298008178 0 L 92.8519298008178 -3.5 L 92.8519298008178 -0.5 L 81.7072149004089 -0.5 Z"/><text text-anchor="middle" pointer-events="none" font-size="8px" fill="#000000" x="58.9259649004089" y="3" font-family="sans-serif">ACTED_IN</text></g><g class="relationship" transform="translate(-124.13266985763781 -29.224778066804532) rotate(444.6622343357652)"><path class="outline" fill="#A5ABB6" stroke="none" d="M 25 0.5 L 26.573548142107583 0.5 L 26.573548142107583 -0.5 L 25 -0.5 Z M 61.90948564210758 0.5 L 63.483033784215166 0.5 L 63.483033784215166 3.5 L 70.48303378421517 0 L 63.483033784215166 -3.5 L 63.483033784215166 -0.5 L 61.90948564210758 -0.5 Z"/><text text-anchor="middle" pointer-events="none" font-size="8px" fill="#000000" x="44.24151689210758" y="3" font-family="sans-serif">ACTE…</text></g><g class="relationship" transform="translate(-124.13266985763781 -29.224778066804532) rotate(412.8220550282483)"><path class="outline" fill="#A5ABB6" stroke="none" d="M 25 0.5 L 42.39651309023364 0.5 L 42.39651309023364 -0.5 L 25 -0.5 Z M 87.95901309023364 0.5 L 105.35552618046728 0.5 L 105.35552618046728 3.5 L 112.35552618046728 0 L 105.35552618046728 -3.5 L 105.35552618046728 -0.5 L 87.95901309023364 -0.5 Z"/><text text-anchor="middle" pointer-events="none" font-size="8px" fill="#000000" x="65.17776309023364" y="3" font-family="sans-serif">ACTED_IN</text></g><g class="relationship" transform="translate(-57.82633611052556 193.81275726017532) rotate(278.361451462479)"><path class="outline" fill="#A5ABB6" stroke="none" d="M 25 0.5 L 31.127881809468548 0.5 L 31.127881809468548 -0.5 L 25 -0.5 Z M 76.69038180946855 0.5 L 82.8182636189371 0.5 L 82.8182636189371 3.5 L 89.8182636189371 0 L 82.8182636189371 -3.5 L 82.8182636189371 -0.5 L 76.69038180946855 -0.5 Z"/><text text-anchor="middle" pointer-events="none" font-size="8px" fill="#000000" x="53.90913180946855" y="3" font-family="sans-serif">ACTED_IN</text></g></g><g class="layer nodes"><g class="node" transform="translate(36.337720202106226,394.94374553070196)"><circle class="outline" cx="0" cy="0" r="25" fill="#F79767" stroke="#f36924" stroke-width="2px"/><text text-anchor="middle" pointer-events="none" font-family="sans-serif" dy="1.5625" font-size="25" fill="#FFFFFF"/><text text-anchor="middle" pointer-events="none" font-family="sans-serif" dy="1.5625" font-size="25" fill="#FFFFFF"/><text text-anchor="middle" pointer-events="none" x="0" y="0" font-size="10px" fill="#FFFFFF" font-family="sans-serif"> Tom</text><text text-anchor="middle" pointer-events="none" x="0" y="10" font-size="10px" fill="#FFFFFF" font-family="sans-serif"> Hanks</text></g><g class="node" transform="translate(145.56485796508412,397.0530819406731)"><circle class="outline" cx="0" cy="0" r="25" fill="#57C7E3" stroke="#23b3d7" stroke-width="2px"/><text text-anchor="middle" pointer-events="none" font-family="sans-serif" dy="1.5625" font-size="25" fill="#2A2C34"/><text text-anchor="middle" pointer-events="none" font-family="sans-serif" dy="1.5625" font-size="25" fill="#2A2C34"/><text text-anchor="middle" pointer-events="none" x="0" y="0" font-size="10px" fill="#2A2C34" font-family="sans-serif"> Cloud</text><text text-anchor="middle" pointer-events="none" x="0" y="10" font-size="10px" fill="#2A2C34" font-family="sans-serif"> Atlas</text></g><g class="node" transform="translate(250.6418346602225,365.24133970333537)"><circle class="outline" cx="0" cy="0" r="25" fill="#F79767" stroke="#f36924" stroke-width="2px"/><text text-anchor="middle" pointer-events="none" font-family="sans-serif" dy="1.5625" font-size="25" fill="#FFFFFF"/><text text-anchor="middle" pointer-events="none" font-family="sans-serif" dy="1.5625" font-size="25" fill="#FFFFFF"/><text text-anchor="middle" pointer-events="none" x="0" y="0" font-size="10px" fill="#FFFFFF" font-family="sans-serif"> Jim</text><text text-anchor="middle" pointer-events="none" x="0" y="10" font-size="10px" fill="#FFFFFF" font-family="sans-serif"> Broadb…</text></g><g class="node" transform="translate(141.89260452831857,289.7002648258135)"><circle class="outline" cx="0" cy="0" r="25" fill="#F79767" stroke="#f36924" stroke-width="2px"/><text text-anchor="middle" pointer-events="none" font-family="sans-serif" dy="1.5625" font-size="25" fill="#FFFFFF"/><text text-anchor="middle" pointer-events="none" font-family="sans-serif" dy="1.5625" font-size="25" fill="#FFFFFF"/><text text-anchor="middle" pointer-events="none" x="0" y="0" font-size="10px" fill="#FFFFFF" font-family="sans-serif"> Halle</text><text text-anchor="middle" pointer-events="none" x="0" y="10" font-size="10px" fill="#FFFFFF" font-family="sans-serif"> Berry</text></g><g class="node" transform="translate(364.89229737750696,125.9355287523543)"><circle class="outline" cx="0" cy="0" r="25" fill="#F79767" stroke="#f36924" stroke-width="2px"/><text text-anchor="middle" pointer-events="none" font-family="sans-serif" dy="1.5625" font-size="25" fill="#FFFFFF"/><text text-anchor="middle" pointer-events="none" x="0" y="5" font-size="10px" fill="#FFFFFF" font-family="sans-serif"> Ben Miles</text></g><g class="node" transform="translate(312.39425151259934,29.61380122783716)"><circle class="outline" cx="0" cy="0" r="25" fill="#57C7E3" stroke="#23b3d7" stroke-width="2px"/><text text-anchor="middle" pointer-events="none" font-family="sans-serif" dy="1.5625" font-size="25" fill="#2A2C34"/><text text-anchor="middle" pointer-events="none" font-family="sans-serif" dy="1.5625" font-size="25" fill="#2A2C34"/><text text-anchor="middle" pointer-events="none" x="0" y="0" font-size="10px" fill="#2A2C34" font-family="sans-serif"> V for</text><text text-anchor="middle" pointer-events="none" x="0" y="10" font-size="10px" fill="#2A2C34" font-family="sans-serif"> Vendetta</text></g><g class="node" transform="translate(388.44570036187196,-44.47093792857613)"><circle class="outline" cx="0" cy="0" r="25" fill="#F79767" stroke="#f36924" stroke-width="2px"/><text text-anchor="middle" pointer-events="none" font-family="sans-serif" dy="1.5625" font-size="25" fill="#FFFFFF"/><text text-anchor="middle" pointer-events="none" font-family="sans-serif" dy="1.5625" font-size="25" fill="#FFFFFF"/><text text-anchor="middle" pointer-events="none" x="0" y="0" font-size="10px" fill="#FFFFFF" font-family="sans-serif"> Natalie</text><text text-anchor="middle" pointer-events="none" x="0" y="10" font-size="10px" fill="#FFFFFF" font-family="sans-serif"> Portman</text></g><g class="node" transform="translate(264.47412907309524,-73.02026559110217)"><circle class="outline" cx="0" cy="0" r="25" fill="#F79767" stroke="#f36924" stroke-width="2px"/><text text-anchor="middle" pointer-events="none" font-family="sans-serif" dy="1.5625" font-size="25" fill="#FFFFFF"/><text text-anchor="middle" pointer-events="none" x="0" y="5" font-size="10px" fill="#FFFFFF" font-family="sans-serif"> John Hurt</text></g><g class="node" transform="translate(208.67961843479281,55.159052945579774)"><circle class="outline" cx="0" cy="0" r="25" fill="#F79767" stroke="#f36924" stroke-width="2px"/><text text-anchor="middle" pointer-events="none" font-family="sans-serif" dy="1.5625" font-size="25" fill="#FFFFFF"/><text text-anchor="middle" pointer-events="none" font-family="sans-serif" dy="1.5625" font-size="25" fill="#FFFFFF"/><text text-anchor="middle" pointer-events="none" x="0" y="0" font-size="10px" fill="#FFFFFF" font-family="sans-serif"> Stephen</text><text text-anchor="middle" pointer-events="none" x="0" y="10" font-size="10px" fill="#FFFFFF" font-family="sans-serif"> Rea</text></g><g class="node" transform="translate(2.412804655513389,-9.36201162659593)"><circle class="outline" cx="0" cy="0" r="25" fill="#F79767" stroke="#f36924" stroke-width="2px"/><text text-anchor="middle" pointer-events="none" font-family="sans-serif" dy="1.5625" font-size="25" fill="#FFFFFF"/><text text-anchor="middle" pointer-events="none" font-family="sans-serif" dy="1.5625" font-size="25" fill="#FFFFFF"/><text text-anchor="middle" pointer-events="none" x="0" y="0" font-size="10px" fill="#FFFFFF" font-family="sans-serif"> Laurence</text><text text-anchor="middle" pointer-events="none" x="0" y="10" font-size="10px" fill="#FFFFFF" font-family="sans-serif"> Fishbur…</text></g><g class="node" transform="translate(-37.46259366744965,-119.09302756669919)"><circle class="outline" cx="0" cy="0" r="25" fill="#57C7E3" stroke="#23b3d7" stroke-width="2px"/><text text-anchor="middle" pointer-events="none" font-family="sans-serif" dy="1.5625" font-size="25" fill="#2A2C34"/><text text-anchor="middle" pointer-events="none" font-family="sans-serif" dy="1.5625" font-size="25" fill="#2A2C34"/><text text-anchor="middle" pointer-events="none" font-family="sans-serif" dy="1.5625" font-size="25" fill="#2A2C34"/><text text-anchor="middle" pointer-events="none" x="0" y="-5" font-size="10px" fill="#2A2C34" font-family="sans-serif"> The</text><text text-anchor="middle" pointer-events="none" x="0" y="5" font-size="10px" fill="#2A2C34" font-family="sans-serif"> Matrix</text><text text-anchor="middle" pointer-events="none" x="0" y="15" font-size="10px" fill="#2A2C34" font-family="sans-serif"> Revol…</text></g><g class="node" transform="translate(-60.91361408420509,-23.836451685677428)"><circle class="outline" cx="0" cy="0" r="25" fill="#F79767" stroke="#f36924" stroke-width="2px"/><text text-anchor="middle" pointer-events="none" font-family="sans-serif" dy="1.5625" font-size="25" fill="#FFFFFF"/><text text-anchor="middle" pointer-events="none" x="0" y="5" font-size="10px" fill="#FFFFFF" font-family="sans-serif"> Carrie-A…</text></g><g class="node" transform="translate(-124.13266985763781,-29.224778066804532)"><circle class="outline" cx="0" cy="0" r="25" fill="#F79767" stroke="#f36924" stroke-width="2px"/><text text-anchor="middle" pointer-events="none" font-family="sans-serif" dy="1.5625" font-size="25" fill="#FFFFFF"/><text text-anchor="middle" pointer-events="none" font-family="sans-serif" dy="1.5625" font-size="25" fill="#FFFFFF"/><text text-anchor="middle" pointer-events="none" x="0" y="0" font-size="10px" fill="#FFFFFF" font-family="sans-serif"> Keanu</text><text text-anchor="middle" pointer-events="none" x="0" y="10" font-size="10px" fill="#FFFFFF" font-family="sans-serif"> Reeves</text></g><g class="node" transform="translate(-115.25018070049335,65.84420282081615)"><circle class="outline" cx="0" cy="0" r="25" fill="#57C7E3" stroke="#23b3d7" stroke-width="2px"/><text text-anchor="middle" pointer-events="none" font-family="sans-serif" dy="1.5625" font-size="25" fill="#2A2C34"/><text text-anchor="middle" pointer-events="none" font-family="sans-serif" dy="1.5625" font-size="25" fill="#2A2C34"/><text text-anchor="middle" pointer-events="none" font-family="sans-serif" dy="1.5625" font-size="25" fill="#2A2C34"/><text text-anchor="middle" pointer-events="none" x="0" y="-5" font-size="10px" fill="#2A2C34" font-family="sans-serif"> The</text><text text-anchor="middle" pointer-events="none" x="0" y="5" font-size="10px" fill="#2A2C34" font-family="sans-serif"> Matrix</text><text text-anchor="middle" pointer-events="none" x="0" y="15" font-size="10px" fill="#2A2C34" font-family="sans-serif"> Reloa…</text></g><g class="node" transform="translate(-57.82633611052556,193.81275726017532)"><circle class="outline" cx="0" cy="0" r="25" fill="#F79767" stroke="#f36924" stroke-width="2px"/><text text-anchor="middle" pointer-events="none" font-family="sans-serif" dy="1.5625" font-size="25" fill="#FFFFFF"/><text text-anchor="middle" pointer-events="none" font-family="sans-serif" dy="1.5625" font-size="25" fill="#FFFFFF"/><text text-anchor="middle" pointer-events="none" x="0" y="0" font-size="10px" fill="#FFFFFF" font-family="sans-serif"> Emil</text><text text-anchor="middle" pointer-events="none" x="0" y="10" font-size="10px" fill="#FFFFFF" font-family="sans-serif"> Eifrem</text></g><g class="node" transform="translate(-41.12976111088542,80.21496659614381)"><circle class="outline" cx="0" cy="0" r="25" fill="#57C7E3" stroke="#23b3d7" stroke-width="2px"/><text text-anchor="middle" pointer-events="none" font-family="sans-serif" dy="1.5625" font-size="25" fill="#2A2C34"/><text text-anchor="middle" pointer-events="none" font-family="sans-serif" dy="1.5625" font-size="25" fill="#2A2C34"/><text text-anchor="middle" pointer-events="none" x="0" y="0" font-size="10px" fill="#2A2C34" font-family="sans-serif"> The</text><text text-anchor="middle" pointer-events="none" x="0" y="10" font-size="10px" fill="#2A2C34" font-family="sans-serif"> Matrix</text></g></g></svg>